<svg xmlns="http://www.w3.org/2000/svg" xmlns:xlink="http://www.w3.org/1999/xlink" width="30" height="29" viewBox="0 0 30 29"><defs><path id="a" d="M1069.227 605.121a.82.82 0 0 0-.646-.3c-.279 0-.537.109-.776.326-.238.22-.416.525-.537.927-.122.401-.18.758-.18 1.068 0 .414.082.715.248.911.17.196.376.296.625.293.187 0 .36-.044.521-.136.124-.065.25-.167.367-.306.172-.197.323-.49.447-.872.125-.378.19-.735.19-1.064 0-.368-.087-.65-.259-.847zm13.128 18.356l-10.842-8.393 10.842-7.273v15.666zm-26.495.559l12.838-9.936 12.834 9.936zm-.824-16.225l10.844 7.273-10.844 8.393zm9.596-3.489c.431-.788 1.025-1.382 1.78-1.776.751-.397 1.61-.597 2.58-.597.818 0 1.548.16 2.188.478a3.423 3.423 0 0 1 1.466 1.362 3.87 3.87 0 0 1 .505 1.928c0 .83-.256 1.581-.77 2.253-.642.847-1.463 1.27-2.468 1.27-.27 0-.473-.045-.611-.14a.7.7 0 0 1-.275-.418c-.378.374-.824.562-1.326.562-.542 0-.99-.187-1.346-.558-.357-.374-.535-.872-.535-1.49 0-.77.213-1.465.644-2.095.523-.77 1.19-1.157 2.004-1.157.581 0 1.01.222 1.285.667l.122-.542h1.293l-.738 3.503a2.85 2.85 0 0 0-.07.43c0 .084.02.14.056.183a.173.173 0 0 0 .132.061c.161 0 .362-.092.608-.284a2.69 2.69 0 0 0 .806-.996c.205-.417.31-.85.31-1.297 0-.8-.289-1.47-.869-2.012-.581-.536-1.393-.807-2.43-.807-.885 0-1.633.18-2.247.542a3.44 3.44 0 0 0-1.391 1.52 4.693 4.693 0 0 0-.465 2.04c0 .686.177 1.313.522 1.876.349.566.835.976 1.461 1.236.627.257 1.347.386 2.154.386.775 0 1.445-.108 2.008-.325.562-.217 1.012-.539 1.354-.976h1.038a3.555 3.555 0 0 1-1.497 1.557c-.773.43-1.714.643-2.824.643-1.079 0-2.006-.18-2.788-.542-.783-.364-1.363-.9-1.748-1.608a4.825 4.825 0 0 1-.567-2.316c0-.915.215-1.77.649-2.56zm4.066-7.83L1054 607.465v17.451h29.392v-17.45z"/></defs><use fill="#07b1e8" xlink:href="#a" transform="translate(-1054 -596)"/></svg>