<svg xmlns="http://www.w3.org/2000/svg" xmlns:xlink="http://www.w3.org/1999/xlink" width="30" height="30" viewBox="0 0 30 30"><defs><path id="a" d="M740 611c0-8.284 6.715-15 15-15 8.284 0 15 6.716 15 15 0 8.284-6.716 15-15 15-8.285 0-15-6.716-15-15z"/><path id="c" d="M758.531 612.467c-.922-.084-1.425 1.174-2.096 1.51-1.09.586-3.102-1.51-3.102-1.51s-2.096-2.012-1.593-3.102c.42-.67 1.677-1.174 1.593-2.096-.084-.839-1.928-3.857-2.85-3.018-2.013 1.844-2.18 2.599-2.18 4.108-.084 2.6 3.27 5.869 3.27 5.869.335.335 3.27 3.354 5.868 3.27 1.51 0 2.264-.168 4.109-2.18.838-.922-2.096-2.767-3.019-2.85z"/><clipPath id="b"><use fill="#fff" xlink:href="#a"/></clipPath></defs><use fill="#fff" fill-opacity="0" stroke="#07b1e8" stroke-miterlimit="50" stroke-width="2" clip-path="url(&quot;#b&quot;)" xlink:href="#a" transform="translate(-740 -596)"/><use fill="#07b1e8" xlink:href="#c" transform="translate(-740 -596)"/></svg>