<svg xmlns="http://www.w3.org/2000/svg" xmlns:xlink="http://www.w3.org/1999/xlink" width="30" height="30" viewBox="0 0 30 30"><defs><path id="a" d="M467 603c1.378 0 2.5 1.121 2.5 2.5s-1.122 2.5-2.5 2.5a2.503 2.503 0 0 1-2.5-2.5c0-1.379 1.121-2.5 2.5-2.5zm0 6c1.93 0 3.5-1.57 3.5-3.5s-1.57-3.5-3.5-3.5-3.5 1.57-3.5 3.5 1.57 3.5 3.5 3.5z"/><path id="b" d="M460.838 599.515a8.534 8.534 0 0 1 6.073-2.515c2.294 0 4.45.893 6.073 2.515 3.025 3.025 3.398 8.719.787 12.2l-6.86 9.906-6.87-9.921c-2.6-3.466-2.227-9.16.797-12.185zm6.073 23.864l7.67-11.079c2.878-3.835 2.462-10.14-.89-13.491a9.524 9.524 0 0 0-6.78-2.809 9.526 9.526 0 0 0-6.78 2.809c-3.351 3.35-3.767 9.655-.902 13.476z"/><path id="c" d="M473.058 617.504a.5.5 0 0 0-.117.993c5.258.618 8.059 2.287 8.059 3.253 0 1.357-5.326 3.25-14 3.25s-14-1.893-14-3.25c0-.966 2.8-2.635 8.058-3.253a.5.5 0 0 0-.117-.993c-5.264.62-8.941 2.365-8.941 4.246 0 2.112 5.152 4.25 15 4.25 9.847 0 15-2.138 15-4.25 0-1.88-3.677-3.627-8.942-4.247z"/></defs><use fill="#07b1e8" xlink:href="#a" transform="translate(-452 -596)"/><use fill="#07b1e8" xlink:href="#b" transform="translate(-452 -596)"/><use fill="#07b1e8" xlink:href="#c" transform="translate(-452 -596)"/></svg>