<svg xmlns="http://www.w3.org/2000/svg" xmlns:xlink="http://www.w3.org/1999/xlink" width="30" height="30" viewBox="0 0 30 30"><defs><path id="a" d="M1303.696 622.497c-6.379 0-11.57-5.19-11.57-11.569 0-6.38 5.191-11.57 11.57-11.57 6.38 0 11.57 5.19 11.57 11.57s-5.19 11.57-11.57 11.57zm0-26.265c-8.103 0-14.696 6.592-14.696 14.696s6.593 14.696 14.696 14.696c8.104 0 14.697-6.592 14.697-14.696s-6.593-14.696-14.697-14.696z"/><path id="b" d="M1311.355 610.474h-6.604v-7.94a1.21 1.21 0 0 0-2.42 0v9.15c0 .669.542 1.21 1.21 1.21h7.814a1.21 1.21 0 0 0 0-2.42z"/></defs><use fill="#07b1e8" xlink:href="#a" transform="translate(-1289 -596)"/><use fill="#07b1e8" xlink:href="#b" transform="translate(-1289 -596)"/></svg>