<svg xmlns="http://www.w3.org/2000/svg" xmlns:xlink="http://www.w3.org/1999/xlink" width="35" height="36" viewBox="0 0 35 36"><defs><path id="a" d="M1413.739 2966.448c-8.58 0-15.559-6.98-15.559-15.559 0-8.579 6.98-15.558 15.559-15.558 8.579 0 15.559 6.98 15.559 15.558 0 8.58-6.98 15.56-15.56 15.56zm0-32.82c-9.518 0-17.261 7.744-17.261 17.261 0 9.518 7.743 17.262 17.26 17.262 9.519 0 17.262-7.744 17.262-17.262 0-9.517-7.744-17.26-17.261-17.26z"/><path id="b" d="M1408.338 2957.504a1.189 1.189 0 0 1-1.188-1.187v-7.21h2.777a4.17 4.17 0 0 0-.39 1.754 4.206 4.206 0 0 0 4.202 4.201 4.206 4.206 0 0 0 4.2-4.201 4.17 4.17 0 0 0-.388-1.755h2.776v7.211c0 .655-.533 1.187-1.187 1.187zm8.624-12.616h2.53v2.607h-2.53zm-.725 5.973a2.501 2.501 0 0 1-2.498 2.498 2.501 2.501 0 0 1-2.499-2.498c0-.684.276-1.303.722-1.755h3.553a2.49 2.49 0 0 1 .722 1.755zm2.903-8.285h-10.802a2.893 2.893 0 0 0-2.89 2.89v10.852a2.893 2.893 0 0 0 2.89 2.89h10.801a2.893 2.893 0 0 0 2.89-2.89v-10.853a2.893 2.893 0 0 0-2.89-2.889z"/></defs><use xlink:href="#a" transform="translate(-1396 -2933)"/><use xlink:href="#b" transform="translate(-1396 -2933)"/></svg>