<svg xmlns="http://www.w3.org/2000/svg" xmlns:xlink="http://www.w3.org/1999/xlink" width="60" height="44" viewBox="0 0 60 44"><defs><path id="f1roa" d="M482 485.783a2.219 2.219 0 0 1-2.217 2.217h-51.566a2.219 2.219 0 0 1-2.217-2.217v-35.566c0-1.223.994-2.217 2.217-2.217h51.566c1.223 0 2.217.994 2.217 2.217zM479.783 446h-51.566a4.222 4.222 0 0 0-4.217 4.217v35.566a4.222 4.222 0 0 0 4.217 4.217h51.566a4.222 4.222 0 0 0 4.217-4.217v-35.566a4.222 4.222 0 0 0-4.217-4.217z"/><path id="f1rob" d="M447 479.092c-.624.38-3.162.908-8 .908s-7.376-.528-8-.908v-1.099c0-.835.455-1.603 1.152-1.982l3.857-1.901c.602-.294.99-.917.99-1.588v-1.803l-.604-.26c-1.517-.654-2.503-1.901-3.015-3.814l-.143-.533-.526-.164A1.01 1.01 0 0 1 432 465v-1c0-.362.207-.698.541-.876l.469-.25.055-.529a9.39 9.39 0 0 1 .622-2.57c.133-.325.246-.568.338-.767.339-.728.462-1.104.377-1.875 1.176.672 2.589.958 4.122.841a5.71 5.71 0 0 1 .477-.019c3.744 0 5.572 1.356 5.929 4.398l.062.522.465.246c.334.178.543.515.543.879v1c0 .428-.293.817-.712.947l-.526.164-.143.533c-.512 1.913-1.498 3.16-3.015 3.814l-.604.261v1.811c0 .669.37 1.272.964 1.575l3.775 1.929a2.266 2.266 0 0 1 1.261 2.039zm-.362-4.846L443 472.388v-.387c1.628-.889 2.773-2.353 3.412-4.364A2.976 2.976 0 0 0 448 465v-1c0-.926-.431-1.785-1.151-2.349-.624-3.78-3.262-5.696-7.849-5.696-.217 0-.429.008-.636.024-.864.071-2.129-.004-3.224-.74-.409-.276-.718-.544-.915-.793a1.192 1.192 0 0 0-1.402-.373 1.187 1.187 0 0 0-.734 1.247c.042.374.105.809.2 1.286.193.975.193.975-.078 1.558-.102.221-.228.49-.376.853a11.167 11.167 0 0 0-.701 2.647A2.985 2.985 0 0 0 430 464v1c0 1.122.619 2.123 1.588 2.637.639 2.012 1.784 3.476 3.412 4.364v.376l-3.769 1.858a4.277 4.277 0 0 0-2.231 3.758v1.325c0 .803 0 2.682 10 2.682s10-1.879 10-2.682v-1.245a4.258 4.258 0 0 0-2.362-3.827z"/><path id="f1roc" d="M454 461h10a1 1 0 1 0 0-2h-10a1 1 0 1 0 0 2z"/><path id="f1rod" d="M468 461h1a1 1 0 1 0 0-2h-1a1 1 0 1 0 0 2z"/><path id="f1roe" d="M455 476h-1a1 1 0 1 0 0 2h1a1 1 0 1 0 0-2z"/><path id="f1rof" d="M461 476h-2a1 1 0 1 0 0 2h2a1 1 0 1 0 0-2z"/><path id="f1rog" d="M466 476h-1a1 1 0 1 0 0 2h1a1 1 0 1 0 0-2z"/><path id="f1roh" d="M472 476h-2a1 1 0 1 0 0 2h2a1 1 0 1 0 0-2z"/><path id="f1roi" d="M475.29 476.29c-.181.189-.29.45-.29.71 0 .26.109.52.29.71.189.18.45.29.71.29.26 0 .52-.11.71-.29.18-.19.29-.45.29-.71 0-.26-.11-.521-.29-.71-.38-.37-1.05-.37-1.42 0z"/><path id="f1roj" d="M476 465h-22a1 1 0 1 0 0 2h22a1 1 0 1 0 0-2z"/><path id="f1rok" d="M476 471h-22a1 1 0 1 0 0 2h22a1 1 0 1 0 0-2z"/></defs><g><g transform="translate(-424 -446)"><g><use fill="#07b1e8" xlink:href="#f1roa"/></g><g><use fill="#07b1e8" xlink:href="#f1rob"/></g><g><use fill="#07b1e8" xlink:href="#f1roc"/></g><g><use fill="#07b1e8" xlink:href="#f1rod"/></g><g><use fill="#07b1e8" xlink:href="#f1roe"/></g><g><use fill="#07b1e8" xlink:href="#f1rof"/></g><g><use fill="#07b1e8" xlink:href="#f1rog"/></g><g><use fill="#07b1e8" xlink:href="#f1roh"/></g><g><use fill="#07b1e8" xlink:href="#f1roi"/></g><g><use fill="#07b1e8" xlink:href="#f1roj"/></g><g><use fill="#07b1e8" xlink:href="#f1rok"/></g></g></g></svg>