<svg xmlns="http://www.w3.org/2000/svg" xmlns:xlink="http://www.w3.org/1999/xlink" width="67" height="41" viewBox="0 0 67 41"><defs><path id="c9tia" d="M827.471 1103.337c-.474 0-.932.103-1.29.291l-3.596 1.891.687-4.005c.14-.819-.202-1.874-.797-2.454l-2.91-2.835 4.021-.585c.823-.12 1.72-.771 2.087-1.516l1.799-3.643 1.798 3.643c.367.745 1.265 1.397 2.087 1.516l4.02.585-2.909 2.836c-.595.58-.937 1.634-.797 2.453l.687 4.005-3.596-1.89c-.358-.189-.816-.292-1.29-.292zm5.483 4.218c.368 0 .696-.15.925-.42.256-.305.353-.732.272-1.203l-.806-4.705c-.047-.27.112-.759.309-.95l3.417-3.332c.43-.419.588-.933.432-1.411-.155-.478-.585-.802-1.18-.888l-4.722-.686c-.272-.04-.687-.342-.809-.588l-2.112-4.28c-.265-.538-.706-.846-1.209-.846-.502 0-.943.309-1.209.847l-2.112 4.28c-.121.245-.537.547-.808.587l-4.723.686c-.595.086-1.024.41-1.18.888-.155.478.003.992.433 1.412l3.417 3.33c.197.192.355.68.309.951l-.807 4.704c-.08.472.016.9.273 1.204.382.453 1.048.551 1.683.218l4.225-2.221a1.15 1.15 0 0 1 .5-.097c.232 0 .41.05.499.097l4.224 2.22c.256.135.511.203.759.203z"/><path id="c9tib" d="M850.93 1103.337c-.475 0-.933.103-1.29.291l-3.596 1.891.686-4.005c.14-.819-.202-1.874-.797-2.454l-2.91-2.835 4.022-.585c.822-.12 1.719-.771 2.087-1.516l1.798-3.643 1.798 3.643c.368.745 1.265 1.397 2.087 1.516l4.02.585-2.909 2.836c-.595.58-.937 1.634-.797 2.453l.687 4.005-3.596-1.89c-.358-.189-.816-.292-1.29-.292zm5.482 4.218c.368 0 .696-.15.925-.42.257-.305.354-.732.273-1.204l-.807-4.704c-.047-.27.112-.759.309-.95l3.417-3.332c.43-.419.588-.933.433-1.411-.156-.478-.586-.802-1.18-.888l-4.723-.686c-.271-.04-.687-.342-.808-.588l-2.112-4.28c-.266-.538-.707-.846-1.21-.846-.502 0-.943.309-1.208.847l-2.112 4.28c-.122.245-.537.547-.809.587l-4.723.686c-.594.086-1.024.41-1.18.888-.155.478.003.992.433 1.412l3.417 3.33c.197.192.356.68.31.951l-.807 4.704c-.081.472.015.9.272 1.204.383.453 1.048.551 1.684.218l4.224-2.221a1.15 1.15 0 0 1 .5-.097c.233 0 .41.05.5.097l4.224 2.22c.255.135.51.203.758.203z"/><path id="c9tic" d="M821.087 1119.984c-.595.58-.938 1.635-.797 2.453l.686 4.004-3.596-1.89c-.357-.188-.816-.292-1.29-.292-.474 0-.932.104-1.29.292l-3.596 1.89.687-4.004c.14-.819-.202-1.874-.797-2.454l-2.91-2.836 4.021-.584c.822-.12 1.72-.771 2.087-1.517l1.798-3.643 1.798 3.643c.368.746 1.266 1.397 2.088 1.517l4.02.584zm3.856-4.415l-4.723-.687c-.272-.04-.687-.341-.809-.587l-2.112-4.28c-.266-.538-.706-.847-1.209-.847-.502 0-.943.309-1.209.847l-2.112 4.28c-.121.246-.537.548-.808.587l-4.723.687c-.594.086-1.024.41-1.18.887-.155.478.003.993.433 1.412l3.417 3.331c.197.192.355.68.31.951l-.808 4.703c-.08.472.016.9.273 1.204.383.453 1.049.551 1.683.218l4.225-2.221c.088-.047.266-.097.5-.097.232 0 .41.05.499.097l4.224 2.22c.256.135.51.203.759.203.367 0 .696-.15.924-.42.257-.305.354-.732.273-1.204l-.806-4.703c-.047-.27.112-.759.308-.95l3.418-3.332c.43-.42.588-.934.432-1.412-.155-.477-.585-.801-1.179-.887z"/><path id="c9tid" d="M844.47 1119.984c-.594.58-.937 1.634-.796 2.453l.686 4.004-3.596-1.89c-.357-.188-.815-.292-1.29-.292-.474 0-.932.104-1.29.292l-3.596 1.89.687-4.004c.14-.819-.202-1.873-.797-2.454l-2.91-2.835 4.021-.585c.822-.12 1.72-.771 2.087-1.517l1.798-3.643 1.799 3.644c.367.745 1.265 1.396 2.087 1.516l4.02.585zm3.857-4.415l-4.723-.687c-.272-.04-.687-.341-.809-.587l-2.112-4.28c-.265-.538-.706-.847-1.209-.847-.502 0-.943.309-1.209.847l-2.112 4.28c-.121.246-.537.548-.808.587l-4.723.687c-.594.086-1.024.41-1.18.887-.155.478.003.993.433 1.412l3.417 3.331c.197.192.356.68.31.951l-.808 4.703c-.08.472.016.9.273 1.204.383.453 1.048.551 1.683.218l4.225-2.221a1.15 1.15 0 0 1 .5-.097c.233 0 .41.05.499.097l4.224 2.22c.256.135.511.203.759.203.368 0 .696-.15.925-.42.256-.305.353-.732.272-1.204l-.806-4.703c-.047-.27.112-.759.309-.95l3.417-3.332c.43-.419.588-.934.432-1.412-.155-.477-.585-.801-1.18-.887z"/><path id="c9tie" d="M867.855 1119.984c-.595.58-.938 1.634-.797 2.453l.687 4.004-3.597-1.89c-.357-.188-.816-.292-1.29-.292-.474 0-.932.104-1.29.292l-3.595 1.89.686-4.004c.14-.818-.202-1.873-.797-2.454l-2.91-2.836 4.021-.584c.823-.12 1.72-.771 2.087-1.517l1.798-3.643 1.799 3.644c.368.745 1.265 1.396 2.087 1.516l4.02.585zm4.603-2.116c.43-.419.587-.933.432-1.412-.155-.477-.585-.801-1.18-.887l-4.722-.687c-.272-.04-.687-.341-.809-.587l-2.112-4.28c-.266-.538-.706-.847-1.209-.847-.502 0-.943.309-1.209.847l-2.112 4.28c-.121.246-.537.548-.808.587l-4.723.687c-.594.086-1.024.41-1.18.887-.155.478.003.993.433 1.413l3.417 3.33c.196.192.355.68.309.951l-.807 4.703c-.08.472.016.9.273 1.204.229.27.557.42.925.42.248 0 .503-.068.758-.202l4.225-2.22c.089-.048.266-.098.5-.098.232 0 .41.05.499.097l4.224 2.22c.635.334 1.301.237 1.684-.217.256-.305.353-.732.272-1.203l-.806-4.704c-.047-.27.112-.759.309-.95z"/></defs><g><g transform="translate(-806 -1088)"><g><g><use fill="#07b1e8" xlink:href="#c9tia"/></g><g><use fill="#07b1e8" xlink:href="#c9tib"/></g><g><use fill="#07b1e8" xlink:href="#c9tic"/></g><g><use fill="#07b1e8" xlink:href="#c9tid"/></g><g><use fill="#07b1e8" xlink:href="#c9tie"/></g></g></g></g></svg>