<svg xmlns="http://www.w3.org/2000/svg" xmlns:xlink="http://www.w3.org/1999/xlink" width="61" height="62" viewBox="0 0 61 62"><defs><path id="1g1ja" d="M482.823 496.133h-56.795v-2.029h56.795zm-51.724-56.795h46.653v52.738h-46.653zm52.738 52.738h-4.057v-53.752c0-.56-.454-1.014-1.014-1.014h-48.68c-.561 0-1.015.454-1.015 1.014v53.752h-4.057c-.56 0-1.014.454-1.014 1.014v4.057c0 .56.454 1.014 1.014 1.014h58.823c.56 0 1.014-.454 1.014-1.014v-4.057c0-.56-.454-1.014-1.014-1.014z"/><path id="1g1jb" d="M445.298 471.792a2.028 2.028 0 0 1-1.756-1.014h3.511a2.028 2.028 0 0 1-1.755 1.014zm3.042-3.042h-6.085c-.56 0-1.014.454-1.014 1.014a4.057 4.057 0 0 0 8.114 0c0-.56-.454-1.014-1.015-1.014z"/><path id="1g1jc" d="M440.227 482.948a2.028 2.028 0 0 1-1.756-1.014h3.511a2.028 2.028 0 0 1-1.755 1.014zm3.043-3.042h-6.086c-.56 0-1.014.454-1.014 1.014a4.057 4.057 0 0 0 8.114 0c0-.56-.454-1.014-1.014-1.014z"/><path id="1g1jd" d="M465.854 463.679h3.511a2.028 2.028 0 0 1-3.51 0zm5.813-1.014c0-.56-.454-1.015-1.014-1.015h-6.086c-.56 0-1.014.455-1.014 1.015a4.057 4.057 0 0 0 8.114 0z"/><path id="1g1je" d="M442.997 446.438a2.028 2.028 0 0 1-3.511 0zm-1.756 3.042a4.057 4.057 0 0 0 4.057-4.056c0-.56-.454-1.015-1.014-1.015h-6.085c-.56 0-1.015.454-1.015 1.015a4.057 4.057 0 0 0 4.057 4.056z"/><path id="1g1jf" d="M460.51 480.244l-1.014-1.352h2.029zm3.043-3.38h-6.085a1.014 1.014 0 0 0-.811 1.622l3.042 4.057a1.014 1.014 0 0 0 1.623 0l3.042-4.057a1.014 1.014 0 0 0-.81-1.623z"/><path id="1g1jg" d="M452.397 458.608l-1.014 1.352-1.014-1.352zm-1.825 3.651a1.014 1.014 0 0 0 1.622 0l3.043-4.057a1.014 1.014 0 0 0-.811-1.622h-6.086a1.014 1.014 0 0 0-.81 1.622z"/><path id="1g1jh" d="M469.638 446.438l-1.014 1.352-1.014-1.352zm-1.825 3.65a1.014 1.014 0 0 0 1.622 0l3.043-4.056a1.014 1.014 0 0 0-.811-1.623h-6.085a1.014 1.014 0 0 0-.812 1.623z"/><path id="1g1ji" d="M455.44 485.99h-4.057a1.014 1.014 0 0 0 0 2.03h4.057a1.014 1.014 0 0 0 0-2.03z"/><path id="1g1jj" d="M472.68 480.92h-4.056a1.014 1.014 0 0 0 0 2.028h4.057a1.014 1.014 0 0 0 0-2.028z"/><path id="1g1jk" d="M463.553 469.764h-4.057a1.014 1.014 0 0 0 0 2.028h4.057a1.014 1.014 0 0 0 0-2.028z"/><path id="1g1jl" d="M462.539 456.58h4.057a1.014 1.014 0 0 0 0-2.029h-4.057a1.014 1.014 0 0 0 0 2.029z"/><path id="1g1jm" d="M437.184 461.65h4.057a1.014 1.014 0 0 0 0-2.028h-4.057a1.014 1.014 0 0 0 0 2.028z"/><path id="1g1jn" d="M453.411 449.48h4.057a1.014 1.014 0 0 0 0-2.028h-4.057a1.014 1.014 0 0 0 0 2.028z"/></defs><g><g transform="translate(-424 -437)"><g><use fill="#07b1e8" xlink:href="#1g1ja"/></g><g><use fill="#07b1e8" xlink:href="#1g1jb"/></g><g><use fill="#07b1e8" xlink:href="#1g1jc"/></g><g><use fill="#07b1e8" xlink:href="#1g1jd"/></g><g><use fill="#07b1e8" xlink:href="#1g1je"/></g><g><use fill="#07b1e8" xlink:href="#1g1jf"/></g><g><use fill="#07b1e8" xlink:href="#1g1jg"/></g><g><use fill="#07b1e8" xlink:href="#1g1jh"/></g><g><use fill="#07b1e8" xlink:href="#1g1ji"/></g><g><use fill="#07b1e8" xlink:href="#1g1jj"/></g><g><use fill="#07b1e8" xlink:href="#1g1jk"/></g><g><use fill="#07b1e8" xlink:href="#1g1jl"/></g><g><use fill="#07b1e8" xlink:href="#1g1jm"/></g><g><use fill="#07b1e8" xlink:href="#1g1jn"/></g></g></g></svg>