<svg xmlns="http://www.w3.org/2000/svg" xmlns:xlink="http://www.w3.org/1999/xlink" width="69" height="40" viewBox="0 0 69 40"><defs><path id="8zqba" d="M426.672 805.045c-2.46 0-4.537-2.99-4.537-6.528 0-3.539 2.078-6.529 4.538-6.529 2.46 0 4.538 2.99 4.538 6.529 0 3.539-2.078 6.528-4.538 6.528zm-1.077-32.615a.878.878 0 0 1 .254-.656 1.165 1.165 0 0 1 1.647 0 .88.88 0 0 1 .254.656l-.826 16.803c-.084-.003-.167-.008-.252-.008-.084 0-.167.005-.251.008zm4.056 17.59l.858-17.454c.05-1-.316-1.977-1.012-2.697a3.926 3.926 0 0 0-5.65 0 3.626 3.626 0 0 0-1.012 2.697l.858 17.454a7.534 7.534 0 0 0-2.313 2.076c-1.295 1.731-2.009 4.012-2.009 6.42 0 2.41.714 4.69 2.01 6.422 1.385 1.852 3.264 2.87 5.29 2.87 2.028 0 3.909-1.019 5.294-2.87 1.295-1.732 2.009-4.012 2.009-6.422 0-2.409-.714-4.689-2.01-6.42a7.53 7.53 0 0 0-2.313-2.076z"/><path id="8zqbb" d="M481.33 784.919a2.893 2.893 0 0 1-2.137-.003c-1.99-.774-3.55-3.592-3.558-6.42l.015-.45a1.4 1.4 0 0 0 1.268.85h1.912a1.398 1.398 0 0 0 1.38-1.314l.055-.903.055.906a1.394 1.394 0 0 0 1.38 1.31h1.913a1.399 1.399 0 0 0 1.266-.848l.014.457c-.007 2.829-1.567 5.637-3.563 6.415zm-.242 20.004a1.166 1.166 0 0 1-1.647 0 .893.893 0 0 1-.253-.656l.805-16.388a5.783 5.783 0 0 0 .544 0l.805 16.388a.878.878 0 0 1-.254.656zm6.33-34.22a2.388 2.388 0 0 0-4.762-.102 2.398 2.398 0 0 0-2.355-2.177c-.011 0-.023-.029-.035-.029a2.412 2.412 0 0 0-2.39 2.18 2.39 2.39 0 0 0-4.764.13l-.238 7.723v.044c0 3.614 1.802 7.039 4.395 8.567l-.84 17.092c-.05 1 .317 1.976 1.012 2.697a3.93 3.93 0 0 0 5.65 0 3.624 3.624 0 0 0 1.012-2.697l-.84-17.093c2.595-1.532 4.395-4.953 4.395-8.564v-.043z"/><path id="8zqbc" d="M453.373 804.017c-9.183 0-16.628-7.445-16.628-16.627 0-9.183 7.445-16.627 16.628-16.627 9.182 0 16.626 7.444 16.626 16.627-.01 9.178-7.448 16.616-16.626 16.627zm0-36.017c-10.692 0-19.39 8.699-19.39 19.39s8.698 19.39 19.39 19.39c10.691 0 19.39-8.698 19.39-19.39S464.063 768 453.372 768z"/><path id="8zqbd" d="M453.373 797.19c-5.413 0-9.802-4.387-9.802-9.8 0-5.413 4.389-9.8 9.802-9.8 5.412 0 9.8 4.387 9.8 9.8-.006 5.41-4.39 9.794-9.8 9.8zm0-22.364c-6.94 0-12.565 5.626-12.565 12.564 0 6.939 5.626 12.564 12.565 12.564 6.938 0 12.563-5.625 12.563-12.564-.008-6.936-5.628-12.556-12.563-12.564z"/></defs><g><g transform="translate(-419 -768)"><g><use fill="#07b1e8" xlink:href="#8zqba"/></g><g><use fill="#07b1e8" xlink:href="#8zqbb"/></g><g><g><use fill="#07b1e8" xlink:href="#8zqbc"/></g><g><use fill="#07b1e8" xlink:href="#8zqbd"/></g></g></g></g></svg>