<svg xmlns="http://www.w3.org/2000/svg" xmlns:xlink="http://www.w3.org/1999/xlink" width="52" height="40" viewBox="0 0 52 40"><defs><path id="c7via" d="M867.803 1125.253a.859.859 0 0 1-.859.858h-46.368a.859.859 0 0 1-.859-.858v-34.347c0-.474.385-.859.859-.859h46.368c.474 0 .859.385.859.859zm-.859-36.923h-46.368a2.576 2.576 0 0 0-2.576 2.576v34.347a2.576 2.576 0 0 0 2.576 2.576h46.368a2.576 2.576 0 0 0 2.576-2.576v-34.347a2.576 2.576 0 0 0-2.576-2.576z"/><path id="c7vib" d="M865.302 1091.768a.858.858 0 0 0-.627.198l-19.81 16.64a1.717 1.717 0 0 1-2.21 0l-19.81-16.64a.859.859 0 0 0-1.104 1.315l19.81 16.64a3.43 3.43 0 0 0 4.419 0l19.809-16.64a.859.859 0 0 0-.477-1.513z"/><path id="c7vic" d="M834.515 1109.803a.859.859 0 0 0-.828.267l-12.021 12.88a.859.859 0 1 0 1.255 1.17l12.021-12.88a.859.859 0 0 0-.427-1.437z"/><path id="c7vid" d="M853.833 1110.07a.859.859 0 1 0-1.255 1.17l12.021 12.88a.859.859 0 0 0 1.256-1.17z"/></defs><g><g transform="translate(-818 -1088)"><g><g><g><use fill="#07b1e8" xlink:href="#c7via"/></g><g><use fill="#07b1e8" xlink:href="#c7vib"/></g><g><use fill="#07b1e8" xlink:href="#c7vic"/></g><g><use fill="#07b1e8" xlink:href="#c7vid"/></g></g></g></g></g></svg>