<svg xmlns="http://www.w3.org/2000/svg" xmlns:xlink="http://www.w3.org/1999/xlink" width="64" height="55" viewBox="0 0 64 55"><defs><path id="a" d="M482.398 613.255a1.254 1.254 0 0 0-.88-.365c-.328 0-.65.133-.881.365a1.255 1.255 0 0 0-.365.88 1.249 1.249 0 0 0 1.245 1.246c.328 0 .65-.134.88-.365.232-.232.366-.553.366-.88 0-.328-.133-.65-.365-.881z"/><path id="b" d="M459.848 651.532l-17.933-5.905v-41.954l17.933 5.905zm-20.424-5.905l-17.933 5.905v-41.954l17.933-5.905zm42.093-35.705c.688 0 1.246-.557 1.246-1.245v-6.725a1.245 1.245 0 0 0-1.635-1.183l-20.035 6.597-20.034-6.597a1.243 1.243 0 0 0-.763-.003l-.016.003-20.424 6.725c-.51.168-.856.645-.856 1.183v44.576a1.246 1.246 0 0 0 1.635 1.183l20.034-6.597 20.035 6.597a1.247 1.247 0 0 0 .778 0h.001l20.424-6.725c.51-.168.856-.645.856-1.183v-26.886a1.245 1.245 0 0 0-2.49 0v25.985l-17.934 5.905v-41.954l17.933-5.905v5.004c0 .688.558 1.245 1.245 1.245z"/><path id="c" d="M434.443 621.699l-7.97 2.624v-9.287l7.97-2.624zm1.975-12.017a1.245 1.245 0 0 0-1.12-.174l-10.46 3.444a1.246 1.246 0 0 0-.857 1.183v11.91a1.246 1.246 0 0 0 1.635 1.183l10.461-3.445c.511-.168.856-.645.856-1.183v-11.91c0-.399-.191-.774-.515-1.008z"/><path id="d" d="M436.87 628.603a1.245 1.245 0 0 0-1.572-.794l-10.46 3.445a1.245 1.245 0 0 0 .778 2.366l10.461-3.445a1.245 1.245 0 0 0 .794-1.572z"/><path id="e" d="M436.87 634.372a1.246 1.246 0 0 0-1.572-.794l-10.46 3.445a1.245 1.245 0 0 0 .778 2.366l10.461-3.445a1.245 1.245 0 0 0 .794-1.572z"/><path id="f" d="M436.87 640.141a1.246 1.246 0 0 0-1.572-.793l-5.23 1.722a1.245 1.245 0 0 0 .779 2.366l5.23-1.722a1.245 1.245 0 0 0 .794-1.573z"/><path id="g" d="M426.107 643.095a1.254 1.254 0 0 0-.88-.365 1.25 1.25 0 0 0-.88.365 1.253 1.253 0 0 0-.366.88c0 .328.134.65.365.881.232.232.553.365.88.365.328 0 .65-.133.881-.365.232-.232.365-.553.365-.88 0-.33-.133-.65-.365-.881z"/><path id="h" d="M475.29 621.699l-7.97 2.624v-9.287l7.97-2.624zm1.976-12.017a1.245 1.245 0 0 0-1.12-.174l-10.46 3.444a1.245 1.245 0 0 0-.856 1.183v11.91a1.246 1.246 0 0 0 1.634 1.183l10.462-3.445c.51-.168.855-.645.855-1.183v-11.91c0-.399-.191-.774-.515-1.008z"/><path id="i" d="M477.719 628.603a1.245 1.245 0 0 0-1.573-.794l-10.46 3.445a1.245 1.245 0 0 0 .778 2.366l10.462-3.445a1.245 1.245 0 0 0 .793-1.572z"/><path id="j" d="M477.719 634.372a1.245 1.245 0 0 0-1.573-.794l-10.46 3.445a1.245 1.245 0 0 0 .778 2.366l10.462-3.445a1.245 1.245 0 0 0 .793-1.572z"/><path id="k" d="M477.719 640.141a1.245 1.245 0 0 0-1.573-.793l-10.46 3.444a1.245 1.245 0 0 0 .778 2.366l10.462-3.444a1.245 1.245 0 0 0 .793-1.573z"/><path id="l" d="M454.882 642.254l-7.97-2.624v-9.288l7.97 2.625zm1.635-11.371l-10.46-3.445a1.245 1.245 0 0 0-1.636 1.183v11.91c0 .537.345 1.014.856 1.183l10.461 3.444a1.247 1.247 0 0 0 1.635-1.183v-11.91c0-.537-.345-1.014-.856-1.182z"/><path id="m" d="M456.517 624.49l-10.46-3.444a1.245 1.245 0 1 0-.78 2.366l10.461 3.445a1.244 1.244 0 1 0 .78-2.366z"/><path id="n" d="M456.517 618.721l-10.46-3.444a1.245 1.245 0 0 0-.78 2.366l10.461 3.444a1.245 1.245 0 1 0 .78-2.366z"/><path id="o" d="M456.517 612.952l-10.46-3.444a1.245 1.245 0 0 0-.78 2.366l10.461 3.444a1.245 1.245 0 1 0 .78-2.366z"/></defs><use fill="#07b1e8" xlink:href="#a" transform="translate(-419 -600)"/><use fill="#07b1e8" xlink:href="#b" transform="translate(-419 -600)"/><use fill="#07b1e8" xlink:href="#c" transform="translate(-419 -600)"/><use fill="#07b1e8" xlink:href="#d" transform="translate(-419 -600)"/><use fill="#07b1e8" xlink:href="#e" transform="translate(-419 -600)"/><use fill="#07b1e8" xlink:href="#f" transform="translate(-419 -600)"/><use fill="#07b1e8" xlink:href="#g" transform="translate(-419 -600)"/><use fill="#07b1e8" xlink:href="#h" transform="translate(-419 -600)"/><use fill="#07b1e8" xlink:href="#i" transform="translate(-419 -600)"/><use fill="#07b1e8" xlink:href="#j" transform="translate(-419 -600)"/><use fill="#07b1e8" xlink:href="#k" transform="translate(-419 -600)"/><use fill="#07b1e8" xlink:href="#l" transform="translate(-419 -600)"/><use fill="#07b1e8" xlink:href="#m" transform="translate(-419 -600)"/><use fill="#07b1e8" xlink:href="#n" transform="translate(-419 -600)"/><use fill="#07b1e8" xlink:href="#o" transform="translate(-419 -600)"/></svg>