<svg xmlns="http://www.w3.org/2000/svg" xmlns:xlink="http://www.w3.org/1999/xlink" width="60" height="60" viewBox="0 0 60 60"><defs><path id="cl1ga" d="M838.058 785.474a1.01 1.01 0 0 0 1.355.44c.06-.03 5.986-3.04 8.91-3.964a1.007 1.007 0 0 0-.609-1.921c-3.079.973-8.965 3.964-9.215 4.09a1.008 1.008 0 0 0-.441 1.355z"/><path id="cl1gb" d="M838.957 774.033c.153 0 .31-.035.456-.11.06-.03 5.986-3.04 8.91-3.964a1.007 1.007 0 0 0-.609-1.92c-3.079.973-8.965 3.964-9.215 4.09a1.008 1.008 0 0 0 .458 1.904z"/><path id="cl1gc" d="M863.002 772a1 1 0 0 0-1 1v39c0 1.654-1.346 3-3 3h-24v-2.301c1.458-.51 5.256-1.7 9-1.7 8.711 0 14.626 1.93 14.685 1.95a1 1 0 0 0 1.315-.95V768a.998.998 0 0 0-.783-.976s-.784-.175-2.124-.42a1 1 0 0 0-.362 1.967c.51.093.939.176 1.269.242v41.858c-2.266-.594-7.298-1.671-14-1.671-4.357 0-8.637 1.43-9.961 1.916-1.177-.52-4.735-1.916-9.04-1.916-6.887 0-12.561 1.136-15 1.713v-41.939c1.998-.49 7.896-1.774 15-1.774 3.647 0 6.774 1.135 8 1.648V808a1 1 0 0 0 1.516.857c.099-.06 10.007-5.977 18.8-8.908a1 1 0 0 0 .685-.949v-41a1 1 0 0 0-1.352-.937c-8.001 3.001-16.097 8.04-16.178 8.09a1 1 0 0 0 1.06 1.695c.074-.047 7.117-4.429 14.47-7.386v38.822c-6.826 2.372-13.953 6.245-17 7.979V768a1 1 0 0 0-.553-.895c-.172-.085-4.27-2.105-9.447-2.105-9.036 0-15.983 1.955-16.275 2.04a1 1 0 0 0-.725.96v44a1.004 1.004 0 0 0 1 1 .986.986 0 0 0 .274-.039c.069-.019 6.984-1.961 15.726-1.961 3.656 0 6.78 1.138 8 1.649v2.35h-24c-1.654 0-3-1.345-3-2.999v-39a1 1 0 0 0-2 0v39c0 2.757 2.243 5 5 5h50c2.757 0 5-2.243 5-5v-39a1 1 0 0 0-1-1z"/><path id="cl1gd" d="M838.058 779.479a1.01 1.01 0 0 0 1.355.44c.06-.03 5.986-3.041 8.91-3.964a1.007 1.007 0 0 0-.609-1.922c-3.079.974-8.965 3.965-9.215 4.092a1.008 1.008 0 0 0-.441 1.354z"/><path id="cl1ge" d="M838.058 791.47a1.01 1.01 0 0 0 1.355.44c.06-.03 5.986-3.041 8.91-3.965a1.007 1.007 0 0 0-.609-1.92c-3.079.973-8.965 3.963-9.215 4.09a1.008 1.008 0 0 0-.441 1.354z"/><path id="cl1gf" d="M828.305 775.556c-6.217-1.46-13.283.4-13.58.479a1.007 1.007 0 0 0 .522 1.945c.067-.019 6.87-1.808 12.6-.464a1.007 1.007 0 0 0 .459-1.96z"/><path id="cl1gg" d="M828.305 781.553c-6.217-1.458-13.283.4-13.58.48a1.007 1.007 0 0 0 .522 1.945c.067-.02 6.87-1.809 12.6-.464a1.007 1.007 0 1 0 .459-1.96z"/><path id="cl1gh" d="M838.058 797.465a1.01 1.01 0 0 0 1.355.44c.06-.03 5.986-3.041 8.91-3.964a1.007 1.007 0 0 0-.609-1.922c-3.079.974-8.965 3.965-9.215 4.092a1.008 1.008 0 0 0-.441 1.354z"/><path id="cl1gi" d="M828.305 787.551c-6.217-1.458-13.283.399-13.58.48a1.007 1.007 0 0 0 .522 1.945c.067-.02 6.87-1.809 12.6-.465a1.007 1.007 0 0 0 .459-1.96z"/><path id="cl1gj" d="M828.305 799.547c-6.217-1.46-13.283.4-13.58.479a1.007 1.007 0 0 0 .522 1.945c.067-.019 6.87-1.808 12.6-.464a1.007 1.007 0 0 0 .459-1.96z"/><path id="cl1gk" d="M828.305 793.549c-6.217-1.46-13.283.399-13.58.48a1.007 1.007 0 0 0 .522 1.944c.067-.019 6.87-1.808 12.6-.464a1.007 1.007 0 0 0 .459-1.96z"/></defs><g><g transform="translate(-804 -757)"><g><g><g><use fill="#07b1e8" xlink:href="#cl1ga"/></g><g><use fill="#07b1e8" xlink:href="#cl1gb"/></g><g><use fill="#07b1e8" xlink:href="#cl1gc"/></g><g><use fill="#07b1e8" xlink:href="#cl1gd"/></g><g><use fill="#07b1e8" xlink:href="#cl1ge"/></g><g><use fill="#07b1e8" xlink:href="#cl1gf"/></g><g><use fill="#07b1e8" xlink:href="#cl1gg"/></g><g><use fill="#07b1e8" xlink:href="#cl1gh"/></g><g><use fill="#07b1e8" xlink:href="#cl1gi"/></g><g><use fill="#07b1e8" xlink:href="#cl1gj"/></g><g><use fill="#07b1e8" xlink:href="#cl1gk"/></g></g></g></g></g></svg>