<svg xmlns="http://www.w3.org/2000/svg" xmlns:xlink="http://www.w3.org/1999/xlink" width="55" height="63" viewBox="0 0 55 63"><defs><path id="ig9pa" d="M439.353 473.376a1.042 1.042 0 0 0 .3-2.042c-2.154-.646-4.493-3.01-6.419-6.485a1.043 1.043 0 1 0-1.824 1.01c2.19 3.947 4.973 6.674 7.643 7.472.097.03.198.045.3.045z"/><path id="ig9pb" d="M450.121 450.203c.646 1.453.982 3.023.99 4.613a1.043 1.043 0 0 0 2.085 0 13.582 13.582 0 0 0-1.161-5.443 14.118 14.118 0 0 0-4.47-5.714 1.043 1.043 0 0 0-1.25 1.668 12.02 12.02 0 0 1 3.806 4.876z"/><path id="ig9pc" d="M440.683 443.346c.951.004 1.895.164 2.793.475a1.043 1.043 0 0 0 .672-1.975 10.74 10.74 0 0 0-3.465-.585 1.043 1.043 0 0 0 0 2.085z"/><path id="ig9pd" d="M460.508 479.68c-2.154-.647-4.493-3.012-6.42-6.486a1.043 1.043 0 1 0-1.824 1.01c2.19 3.947 4.974 6.674 7.643 7.472a1.042 1.042 0 1 0 .6-1.996z"/><path id="ig9pe" d="M468.42 452a1.043 1.043 0 0 0-1.252 1.669 12.027 12.027 0 0 1 3.806 4.87 11.5 11.5 0 0 1 .991 4.619 1.043 1.043 0 0 0 2.085 0 13.582 13.582 0 0 0-1.16-5.444 14.118 14.118 0 0 0-4.47-5.714z"/><path id="ig9pf" d="M465.002 450.187a10.74 10.74 0 0 0-3.464-.585 1.043 1.043 0 0 0 0 2.086c.95.003 1.894.164 2.793.474a1.043 1.043 0 0 0 .671-1.975z"/><path id="ig9pg" d="M471.742 476.765c-2.353 3.668-5.189 6.087-8.022 6.92a7.72 7.72 0 0 1-1 .227l-.14.02c-.694.098-1.4.098-2.095 0-.088-.013-.172-.033-.259-.05a7.874 7.874 0 0 1-.845-.191c-4.233-1.212-7.734-5.75-9.85-10.219.062-.062.122-.133.183-.197a27.591 27.591 0 0 0 .84-.93c.126-.15.25-.301.374-.456a21.341 21.341 0 0 0 .795-1.036c.14-.19.275-.382.406-.576a27.57 27.57 0 0 0 1.063-1.667c.122-.21.24-.418.358-.627l.312-.566c.114-.209.224-.427.332-.642.098-.194.195-.387.29-.582.103-.22.207-.441.306-.662.088-.197.178-.393.263-.591.096-.224.187-.45.279-.677.079-.199.16-.397.236-.597.087-.229.167-.458.249-.689.07-.199.142-.398.208-.598.077-.234.147-.466.218-.7.06-.198.122-.395.178-.592.067-.237.126-.473.186-.711.05-.193.104-.386.146-.58.056-.242.104-.482.152-.723.038-.185.08-.372.113-.557.044-.252.08-.5.116-.75.025-.17.056-.342.077-.512.034-.275.056-.547.079-.817.012-.14.03-.282.04-.418a17.238 17.238 0 0 0-.048-2.898c-.02-.185-.053-.37-.076-.554-.05-.378-.105-.754-.179-1.128-.042-.216-.097-.43-.148-.646a18.726 18.726 0 0 0-.273-1.027c-.067-.22-.139-.438-.214-.656-.053-.155-.094-.313-.151-.466a12.89 12.89 0 0 1 5.267-1.127h.015c7.766 0 14.598 7.292 14.613 15.612a27.026 27.026 0 0 1-4.394 13.636zm-8.306 10.375h-3.796l.198-1.196c.118.021.236.031.353.048.098.014.195.028.293.04.35.04.701.063 1.054.066h.028a9.643 9.643 0 0 0 1.668-.15zm-24.65-8.341l.198-1.196c.061.01.122.014.183.024.062.011.152.02.229.03.42.062.845.095 1.271.099h.033c.425-.004.85-.036 1.27-.097.076-.01.154-.018.23-.03.076-.013.122-.014.183-.025l.198 1.195zm-12.7-23.983c0-8.333 6.82-15.64 14.597-15.64 5.599 0 10.805 3.677 13.267 9.372a15.644 15.644 0 0 1 1.331 6.268 18.197 18.197 0 0 1-.15 2.294c-.121.91-.296 1.813-.522 2.704a27.291 27.291 0 0 1-7.053 12.672 11.79 11.79 0 0 1-4.634 2.846 7.547 7.547 0 0 1-4.484 0c-6.842-2.06-12.353-12.904-12.353-20.516zm35.438-9.385h-.017c-2.103.01-4.18.463-6.097 1.329a16.752 16.752 0 0 0-14.727-9.67c-8.887 0-16.683 8.283-16.683 17.726 0 8.168 5.606 19.27 12.97 22.18l-.443 2.674a1.042 1.042 0 0 0 1.028 1.214h1.682l-.66 1.981a7.254 7.254 0 0 0 .856 6.36l.774 1.162a5.185 5.185 0 0 1 .609 4.542l-1.118 3.355a1.044 1.044 0 1 0 1.981.659l1.112-3.357a7.252 7.252 0 0 0-.856-6.36l-.775-1.162a5.18 5.18 0 0 1-.61-4.541l.884-2.639h2.378a1.042 1.042 0 0 0 1.028-1.214l-.443-2.671a13.539 13.539 0 0 0 3.52-2.079c2.19 4.396 5.645 8.744 9.906 10.433l-.441 2.659a1.042 1.042 0 0 0 1.028 1.214h1.68l-.66 1.98a7.254 7.254 0 0 0 .857 6.362l.773 1.159c.084.125.161.254.233.385a1.042 1.042 0 1 0 1.83-1 8.445 8.445 0 0 0-.326-.54l-.775-1.162a5.18 5.18 0 0 1-.61-4.54l.877-2.644h2.377a1.042 1.042 0 0 0 1.029-1.214l-.439-2.64c2.987-1.166 5.828-3.72 8.238-7.48a29.208 29.208 0 0 0 4.727-14.766c-.021-9.432-7.82-17.695-16.697-17.695z"/></defs><g><g transform="translate(-424 -437)"><g><use fill="#07b1e8" xlink:href="#ig9pa"/></g><g><use fill="#07b1e8" xlink:href="#ig9pb"/></g><g><use fill="#07b1e8" xlink:href="#ig9pc"/></g><g><use fill="#07b1e8" xlink:href="#ig9pd"/></g><g><use fill="#07b1e8" xlink:href="#ig9pe"/></g><g><use fill="#07b1e8" xlink:href="#ig9pf"/></g><g><use fill="#07b1e8" xlink:href="#ig9pg"/></g></g></g></svg>