<svg xmlns="http://www.w3.org/2000/svg" xmlns:xlink="http://www.w3.org/1999/xlink" width="57" height="57" viewBox="0 0 57 57"><defs><path id="swe4a" d="M434.029 1256.527a6.591 6.591 0 0 1-6.584-6.584 6.591 6.591 0 0 1 6.584-6.584 6.591 6.591 0 0 1 6.584 6.584 6.591 6.591 0 0 1-6.584 6.584zm0-15.05c-4.667 0-8.466 3.799-8.466 8.466 0 4.668 3.799 8.466 8.466 8.466s8.465-3.798 8.465-8.466c0-4.667-3.798-8.465-8.465-8.465z"/><path id="swe4b" d="M440.613 1250.884v32.921a6.592 6.592 0 0 1-6.584 6.584 6.592 6.592 0 0 1-6.584-6.584h-1.882c0 4.668 3.799 8.466 8.466 8.466s8.465-3.798 8.465-8.466v-32.921z"/><path id="swe4c" d="M425.563 1283.805v-33.862h1.882v33.862z"/><path id="swe4d" d="M434.029 1251.825a1.883 1.883 0 0 1-1.881-1.882c0-1.037.843-1.881 1.881-1.881 1.037 0 1.881.844 1.881 1.881a1.883 1.883 0 0 1-1.881 1.882zm0-5.644a3.766 3.766 0 0 0-3.762 3.762 3.766 3.766 0 0 0 3.762 3.763 3.766 3.766 0 0 0 3.762-3.763 3.766 3.766 0 0 0-3.762-3.762z"/><path id="swe4e" d="M441.554 1284.746v-1.881h11.287v1.88z"/><path id="swe4f" d="M481.724 1251.16l-9.406-9.407a.937.937 0 0 0-.665-.275H434.03v1.881h37.235l8.855 8.855v30.65h-5.644v1.882h6.584c.52 0 .941-.42.941-.94v-31.981c0-.25-.099-.49-.276-.665z"/><path id="swe4g" d="M473.535 1296.033H452.84v-15.05h20.694zm.94-16.93H451.9a.94.94 0 0 0-.94.94v16.93c0 .52.421.941.94.941h22.575c.52 0 .94-.42.94-.94v-16.931a.94.94 0 0 0-.94-.94z"/><path id="swe4h" d="M476.356 1279.102H450.02v-3.762h26.337zm.94-5.644H449.08a.94.94 0 0 0-.94.941v5.644c0 .52.42.94.94.94h28.218c.52 0 .94-.42.94-.94v-5.644a.94.94 0 0 0-.94-.94z"/><path id="swe4i" d="M455.193 1273.458a2.354 2.354 0 0 1-2.352-2.351c0-1.31 1.078-2.391 2.4-2.352.619 0 1.202.237 1.638.665l4.038 4.039h-5.724zm8.66.276l-5.65-5.65a4.26 4.26 0 0 0-2.953-1.21h-.057a4.238 4.238 0 0 0-4.233 4.233c0 2.334 1.899 4.233 4.233 4.233h7.995a.942.942 0 0 0 .666-1.606z"/><path id="swe4j" d="M462.464 1273.796l-4.703 5.644a.947.947 0 0 0-.217.603v10.347a1.883 1.883 0 0 1-1.881 1.88v1.882a3.766 3.766 0 0 0 3.762-3.762v-10.007l4.485-5.382z"/><path id="swe4k" d="M471.183 1273.458h-5.725l4.032-4.031c.45-.441.999-.68 1.693-.672a2.354 2.354 0 0 1 2.352 2.352 2.354 2.354 0 0 1-2.352 2.351zm.013-6.584a4.3 4.3 0 0 0-3.03 1.216l-5.643 5.644a.94.94 0 0 0 .665 1.606h7.995c2.334 0 4.233-1.9 4.233-4.233 0-2.334-1.9-4.233-4.22-4.233z"/><path id="swe4l" d="M472.594 1250.884v-8.466h-1.881v9.406c0 .52.42.941.94.941h9.406v-1.881z"/><path id="swe4m" d="M462.247 1296.974v-22.575h1.881v22.575z"/><path id="swe4n" d="M470.713 1292.27a1.883 1.883 0 0 1-1.882-1.88v-10.347a.942.942 0 0 0-.218-.603l-4.703-5.644-1.446 1.205 4.486 5.382v10.006a3.766 3.766 0 0 0 3.763 3.763h.94v-1.881z"/></defs><g><g transform="translate(-425 -1241)"><g><g><g><use fill="#07b1e8" xlink:href="#swe4a"/></g></g></g><g><g><g><use fill="#07b1e8" xlink:href="#swe4b"/></g></g></g><g><g><g><use fill="#07b1e8" xlink:href="#swe4c"/></g></g></g><g><g><g><use fill="#07b1e8" xlink:href="#swe4d"/></g></g></g><g><g><g><use fill="#07b1e8" xlink:href="#swe4e"/></g></g></g><g><g><g><use fill="#07b1e8" xlink:href="#swe4f"/></g></g></g><g><g><g><use fill="#07b1e8" xlink:href="#swe4g"/></g></g></g><g><g><g><use fill="#07b1e8" xlink:href="#swe4h"/></g></g></g><g><g><g><use fill="#07b1e8" xlink:href="#swe4i"/></g></g></g><g><g><g><use fill="#07b1e8" xlink:href="#swe4j"/></g></g></g><g><g><g><use fill="#07b1e8" xlink:href="#swe4k"/></g></g></g><g><g><g><use fill="#07b1e8" xlink:href="#swe4l"/></g></g></g><g><g><g><use fill="#07b1e8" xlink:href="#swe4m"/></g></g></g><g><g><g><use fill="#07b1e8" xlink:href="#swe4n"/></g></g></g></g></g></svg>