<svg xmlns="http://www.w3.org/2000/svg" xmlns:xlink="http://www.w3.org/1999/xlink" width="43" height="61" viewBox="0 0 43 61"><defs><path id="a" d="M839.387 447.34v-2.02h2.02v2.02z"/><path id="b" d="M844.76 447.34v-2.02h2.02v2.02z"/><path id="c" d="M822.818 483.45v-6.933h2.02v6.934z"/><path id="d" d="M822.818 487.014v-2.02h2.02v2.02z"/><path id="e" d="M853.54 490.986v.925h-36.138v-.925zm0 3.699h-36.138v-.925h36.137zm-3.526 2.466h-2.644v-.617h2.644zm-26.442 0h-2.644v-.617h2.644zm-2.644-53.63h29.086v45.616h-29.086zm0-3.083h29.086v1.233h-29.086zm35.256 3.884v-3.699h-2.644v1.048h-.882v-3.082h-34.375v3.082h-.88v-1.048h-2.645v3.699h2.644v-.801h.881v45.616h-3.525v7.397h3.525V499h7.933v-2.466h18.51V499h7.932v-2.466h3.525v-7.397h-3.525v-45.616h.881v.801z"/></defs><use fill="#07b1e8" xlink:href="#a" transform="translate(-814 -438)"/><use fill="#07b1e8" xlink:href="#b" transform="translate(-814 -438)"/><use fill="#07b1e8" xlink:href="#c" transform="translate(-814 -438)"/><use fill="#07b1e8" xlink:href="#d" transform="translate(-814 -438)"/><use fill="#07b1e8" xlink:href="#e" transform="translate(-814 -438)"/></svg>