<svg xmlns="http://www.w3.org/2000/svg" xmlns:xlink="http://www.w3.org/1999/xlink" width="51" height="52" viewBox="0 0 51 52"><defs><path id="a" d="M1247.426 942.252h-8.468a52.67 52.67 0 0 0-3.872-7.075l6.607-1.82c.09-.025.179-.053.266-.084h5.467zm-10.074 9.409a.786.786 0 0 0-1.122.285 43.054 43.054 0 0 1-2.333 3.827 43.825 43.825 0 0 0-7.405-17.252 3.019 3.019 0 0 0 1.9-1.5l5.099-1.404a51.507 51.507 0 0 1 7.696 18.845 45.672 45.672 0 0 0-3.835-2.801zm-17 19.264v-27.098h6.297v27.098zm-17.183-27.098h4.193a52.87 52.87 0 0 0-3.461 12.522.788.788 0 0 0 1.302.702 44.827 44.827 0 0 1 4.601-3.6 43.903 43.903 0 0 0 3.134 4.789.787.787 0 0 0 1.407-.36 42.22 42.22 0 0 1 4.433-13.569v26.614h-15.61zm15.44-6.806a3.02 3.02 0 0 0 1.9 1.5 43.837 43.837 0 0 0-7.405 17.252 43.109 43.109 0 0 1-2.333-3.827.786.786 0 0 0-1.122-.285 45.602 45.602 0 0 0-3.834 2.801 51.48 51.48 0 0 1 7.696-18.845zm-14.593-6.575a2.712 2.712 0 0 1-.13-2.203l1.259-3.384c.27-.729.814-1.29 1.533-1.583a2.707 2.707 0 0 1 2.205.063l9.617 4.571a2.992 2.992 0 0 0-.245 1.188v.626c-1.045-.602-2.7-1.494-4.5-2.221-4.256-1.723-7.098-1.63-8.447.275a.788.788 0 0 0 1.284.91c1.764-2.492 8.9 1.158 11.663 2.865v3.737l-12.529-3.451a2.708 2.708 0 0 1-1.71-1.393zm15.923 11.806a42.01 42.01 0 0 1 2.454-3.635h2.215a41.837 41.837 0 0 1 2.454 3.635zm1.323-14.588h4.477c.79 0 1.433.644 1.433 1.434v6.51c0 .79-.643 1.433-1.433 1.433h-4.477c-.79 0-1.433-.642-1.433-1.433v-6.51c0-.79.643-1.434 1.433-1.434zm16.855-4.325a2.708 2.708 0 0 1 2.206-.063 2.708 2.708 0 0 1 1.534 1.583l1.258 3.384c.27.729.224 1.511-.13 2.203a2.706 2.706 0 0 1-1.71 1.392l-12.529 3.452v-3.785c2.816-1.726 9.837-5.285 11.585-2.817a.786.786 0 1 0 1.284-.91c-1.348-1.906-4.19-1.998-8.448-.275-1.753.71-3.372 1.575-4.42 2.176v-.581c0-.422-.088-.824-.246-1.189zm5.944 8.36a4.33 4.33 0 0 0 .53-4.004l-1.259-3.385a4.321 4.321 0 0 0-2.417-2.493 4.32 4.32 0 0 0-3.473.1l-9.959 4.732a2.988 2.988 0 0 0-1.744-.56h-4.477a2.99 2.99 0 0 0-1.745.56l-9.958-4.733a4.321 4.321 0 0 0-3.473-.1 4.321 4.321 0 0 0-2.417 2.494l-1.259 3.385a4.328 4.328 0 0 0 .53 4.003h-4.153a.787.787 0 0 0-.787.788v5.67a.788.788 0 1 0 1.575 0v-4.883h5.467c.087.03.176.06.266.084l6.608 1.82a52.628 52.628 0 0 0-3.873 7.075h-8.468v-.945a.787.787 0 1 0-1.575 0v1.733c0 .435.353.787.787.787h2.807v27.886c0 .435.353.787.788.787h42.237a.787.787 0 0 0 .788-.787v-4.574a.788.788 0 1 0-1.575 0v3.786h-15.61v-26.613a42.199 42.199 0 0 1 4.434 13.568.787.787 0 0 0 1.407.36 43.919 43.919 0 0 0 3.134-4.79 44.865 44.865 0 0 1 4.6 3.601.787.787 0 0 0 1.303-.702 52.856 52.856 0 0 0-3.46-12.522h4.192v20.161a.787.787 0 1 0 1.574 0v-20.16h2.808a.787.787 0 0 0 .786-.788v-10.554a.786.786 0 0 0-.786-.788z"/></defs><use fill="#07b1e8" xlink:href="#a" transform="translate(-1198 -921)"/></svg>