<svg xmlns="http://www.w3.org/2000/svg" xmlns:xlink="http://www.w3.org/1999/xlink" width="51" height="54" viewBox="0 0 51 54"><defs><path id="a" d="M816.945 488.298h.892a.892.892 0 0 0 0-1.785h-.892v-1.785h.892a.892.892 0 0 0 0-1.785h-.892v-1.784h.892a.892.892 0 0 0 0-1.785h-.892v-1.785h.892a.892.892 0 0 0 0-1.785h-.892v-1.785h.892a.893.893 0 0 0 0-1.785h-.892v-1.784h.892a.892.892 0 0 0 0-1.785h-.892v-1.785h.892a.893.893 0 0 0 0-1.785h-.892v-1.785h.892a.892.892 0 0 0 0-1.785h-.892v-1.784h.892a.892.892 0 0 0 0-1.785h-.892v-1.785h.892a.892.892 0 0 0 0-1.785h-.892v-1.785h.892a.892.892 0 0 0 0-1.784h-.892v-1.785h.892a.892.892 0 0 0 0-1.785h-.892v-1.785h.892a.892.892 0 0 0 0-1.785h-.892v-.892h23.203v49.975h-23.203v-.893h.892a.892.892 0 0 0 0-1.784h-.892zm27.665-45.513v49.975h-2.678v-49.975zm8.032 47.298a2.678 2.678 0 0 1-2.678 2.677h-3.57v-49.975h3.57a2.678 2.678 0 0 1 2.678 2.677zm-38.374 0a.892.892 0 1 0 0 1.785h.892v1.784c0 .493.4.893.892.893h33.912a4.467 4.467 0 0 0 4.462-4.462v-44.62a4.467 4.467 0 0 0-4.462-4.463h-33.912c-.493 0-.892.4-.892.893v1.784h-.892a.892.892 0 1 0 0 1.785h.892v1.785h-.892a.892.892 0 1 0 0 1.785h.892v1.785h-.892a.892.892 0 1 0 0 1.784h.892v1.785h-.892a.892.892 0 1 0 0 1.785h.892v1.785h-.892a.892.892 0 1 0 0 1.785h.892v1.784h-.892a.892.892 0 1 0 0 1.785h.892v1.785h-.892a.892.892 0 1 0 0 1.785h.892v1.785h-.892a.893.893 0 0 0 0 1.785h.892v1.785h-.892a.892.892 0 1 0 0 1.785h.892v1.784h-.892a.892.892 0 1 0 0 1.785h.892v1.785h-.892a.892.892 0 1 0 0 1.785h.892v1.785h-.892a.892.892 0 1 0 0 1.784h.892v1.785h-.892a.892.892 0 1 0 0 1.785h.892v1.785z"/><path id="b" d="M860.673 449.924h-1.784v-1.785h1.784zm-.892 40.57l-1.324-3.088h2.647zm1.785-38.785v33.912h-3.57v-33.912zm-3.57-8.924h3.57v3.57h-3.57zm5.354 4.462v-5.354c0-.493-.4-.893-.892-.893h-5.355c-.492 0-.892.4-.892.893v5.354c0 .493.4.892.892.892v1.785c-.492 0-.892.4-.892.893v35.696c0 .014.007.024.007.038a.866.866 0 0 0 .06.296l.005.017 2.605 6.075v.714a.892.892 0 0 0 1.785 0v-.714l2.605-6.078.005-.017a.91.91 0 0 0 .06-.296c0-.013.007-.024.007-.037v-35.694c0-.494-.4-.893-.892-.893v-1.785c.493 0 .892-.4.892-.892z"/></defs><use fill="#07b1e8" xlink:href="#a" transform="translate(-813 -441)"/><use fill="#07b1e8" xlink:href="#b" transform="translate(-813 -441)"/></svg>