<svg xmlns="http://www.w3.org/2000/svg" xmlns:xlink="http://www.w3.org/1999/xlink" width="49" height="61" viewBox="0 0 49 61"><defs><path id="a" d="M846.236 763.914a1.186 1.186 0 0 0-.925-.45h-24.527a1.186 1.186 0 0 0-1.186.925l-4.472 19.83a1.186 1.186 0 0 0 1.187 1.448h24.527a1.186 1.186 0 0 0 1.186-.926l4.471-19.878a1.186 1.186 0 0 0-.26-.949z"/><path id="b" d="M850.637 787.386a1.172 1.172 0 0 0 0 .202v29.106h-4.14v-28.466l5.67-26.567 2.751 1.696zm-6.488.712v28.596h-32.77v-28.311l5.776-27.434h32.64l-5.646 26.9a1.186 1.186 0 0 0 0 .249zm12.655-26.342l-4.874-3h-.06l-.178-.072a1.186 1.186 0 0 0-.296-.071h-35.202a1.186 1.186 0 0 0-1.186.937l-6.002 28.465a1.185 1.185 0 0 0 0 .249v29.651c0 .655.532 1.186 1.187 1.186h41.618c.655 0 1.186-.53 1.186-1.186v-30.173l4.353-24.776a1.186 1.186 0 0 0-.546-1.21z"/></defs><use fill="#fff" fill-opacity="0" stroke="#07b1e8" stroke-miterlimit="50" xlink:href="#a" transform="translate(-809 -758)"/><use fill="#07b1e8" xlink:href="#b" transform="translate(-809 -758)"/></svg>