<svg xmlns="http://www.w3.org/2000/svg" xmlns:xlink="http://www.w3.org/1999/xlink" width="61" height="61" viewBox="0 0 61 61"><defs><path id="a" d="M1016 477a1 1 0 1 1 2 0 1 1 0 0 1-2 0z"/><path id="b" d="M1032 477a1 1 0 1 1 2 0 1 1 0 0 1-2 0z"/><path id="c" d="M1020 477a1 1 0 1 1 2 0 1 1 0 0 1-2 0z"/><path id="d" d="M1036 477a1 1 0 1 1 2 0 1 1 0 0 1-2 0z"/><path id="e" d="M1024 477a1 1 0 1 1 2 0 1 1 0 0 1-2 0z"/><path id="f" d="M1040 477a1 1 0 1 1 2 0 1 1 0 0 1-2 0z"/><path id="g" d="M1048 477a1 1 0 1 1 2 0 1 1 0 0 1-2 0z"/><path id="h" d="M1028 477a1 1 0 1 1 2 0 1 1 0 0 1-2 0z"/><path id="i" d="M1044 477a1 1 0 1 1 2 0 1 1 0 0 1-2 0z"/><path id="j" d="M1052 477a1 1 0 1 1 2 0 1 1 0 0 1-2 0z"/><path id="k" d="M1016 493a1 1 0 1 1 2 0 1 1 0 0 1-2 0z"/><path id="l" d="M1032 493a1 1 0 1 1 2 0 1 1 0 0 1-2 0z"/><path id="m" d="M1020 493a1 1 0 1 1 2 0 1 1 0 0 1-2 0z"/><path id="n" d="M1036 493a1 1 0 1 1 2 0 1 1 0 0 1-2 0z"/><path id="o" d="M1024 493a1 1 0 1 1 2 0 1 1 0 0 1-2 0z"/><path id="p" d="M1040 493a1 1 0 1 1 2 0 1 1 0 0 1-2 0z"/><path id="q" d="M1048 493a1 1 0 1 1 2 0 1 1 0 0 1-2 0z"/><path id="r" d="M1028 493a1 1 0 1 1 2 0 1 1 0 0 1-2 0z"/><path id="s" d="M1044 493a1 1 0 1 1 2 0 1 1 0 0 1-2 0z"/><path id="t" d="M1052 493a1 1 0 1 1 2 0 1 1 0 0 1-2 0z"/><path id="u" d="M1052 489a1 1 0 1 1 2 0 1 1 0 0 1-2 0z"/><path id="v" d="M1052 485a1 1 0 1 1 2 0 1 1 0 0 1-2 0z"/><path id="w" d="M1052 481a1 1 0 1 1 2 0 1 1 0 0 1-2 0z"/><path id="x" d="M1016 489a1 1 0 1 1 2 0 1 1 0 0 1-2 0z"/><path id="y" d="M1016 485a1 1 0 1 1 2 0 1 1 0 0 1-2 0z"/><path id="z" d="M1016 481a1 1 0 1 1 2 0 1 1 0 0 1-2 0z"/><path id="A" d="M1048.198 470.283h-26.754v-8.71h26.754zm8.71 26.012h-44.175v-22.279h44.175zm8.71-47.537v9.081H1009v3.733h8.71v8.711H1009v29.745h51.641v-29.745h-8.71v-8.71h13.688v47.537h3.733v-60.352z"/><clipPath id="B"><use fill="#fff" xlink:href="#a"/></clipPath><clipPath id="C"><use fill="#fff" xlink:href="#b"/></clipPath><clipPath id="D"><use fill="#fff" xlink:href="#c"/></clipPath><clipPath id="E"><use fill="#fff" xlink:href="#d"/></clipPath><clipPath id="F"><use fill="#fff" xlink:href="#e"/></clipPath><clipPath id="G"><use fill="#fff" xlink:href="#f"/></clipPath><clipPath id="H"><use fill="#fff" xlink:href="#g"/></clipPath><clipPath id="I"><use fill="#fff" xlink:href="#h"/></clipPath><clipPath id="J"><use fill="#fff" xlink:href="#i"/></clipPath><clipPath id="K"><use fill="#fff" xlink:href="#j"/></clipPath><clipPath id="L"><use fill="#fff" xlink:href="#k"/></clipPath><clipPath id="M"><use fill="#fff" xlink:href="#l"/></clipPath><clipPath id="N"><use fill="#fff" xlink:href="#m"/></clipPath><clipPath id="O"><use fill="#fff" xlink:href="#n"/></clipPath><clipPath id="P"><use fill="#fff" xlink:href="#o"/></clipPath><clipPath id="Q"><use fill="#fff" xlink:href="#p"/></clipPath><clipPath id="R"><use fill="#fff" xlink:href="#q"/></clipPath><clipPath id="S"><use fill="#fff" xlink:href="#r"/></clipPath><clipPath id="T"><use fill="#fff" xlink:href="#s"/></clipPath><clipPath id="U"><use fill="#fff" xlink:href="#t"/></clipPath><clipPath id="V"><use fill="#fff" xlink:href="#u"/></clipPath><clipPath id="W"><use fill="#fff" xlink:href="#v"/></clipPath><clipPath id="X"><use fill="#fff" xlink:href="#w"/></clipPath><clipPath id="Y"><use fill="#fff" xlink:href="#x"/></clipPath><clipPath id="Z"><use fill="#fff" xlink:href="#y"/></clipPath><clipPath id="aa"><use fill="#fff" xlink:href="#z"/></clipPath></defs><use fill="#07b1e8" xlink:href="#A" transform="translate(-1009 -448)"/><g fill="#fff"><g transform="translate(-1009 -448)"><use xlink:href="#a"/><use fill-opacity="0" stroke="#07b1e8" stroke-miterlimit="50" stroke-width="2" clip-path="url(&quot;#B&quot;)" xlink:href="#a"/></g><g transform="translate(-1009 -448)"><use xlink:href="#b"/><use fill-opacity="0" stroke="#07b1e8" stroke-miterlimit="50" stroke-width="2" clip-path="url(&quot;#C&quot;)" xlink:href="#b"/></g><g transform="translate(-1009 -448)"><use xlink:href="#c"/><use fill-opacity="0" stroke="#07b1e8" stroke-miterlimit="50" stroke-width="2" clip-path="url(&quot;#D&quot;)" xlink:href="#c"/></g><g transform="translate(-1009 -448)"><use xlink:href="#d"/><use fill-opacity="0" stroke="#07b1e8" stroke-miterlimit="50" stroke-width="2" clip-path="url(&quot;#E&quot;)" xlink:href="#d"/></g><g transform="translate(-1009 -448)"><use xlink:href="#e"/><use fill-opacity="0" stroke="#07b1e8" stroke-miterlimit="50" stroke-width="2" clip-path="url(&quot;#F&quot;)" xlink:href="#e"/></g><g transform="translate(-1009 -448)"><use xlink:href="#f"/><use fill-opacity="0" stroke="#07b1e8" stroke-miterlimit="50" stroke-width="2" clip-path="url(&quot;#G&quot;)" xlink:href="#f"/></g><g transform="translate(-1009 -448)"><use xlink:href="#g"/><use fill-opacity="0" stroke="#07b1e8" stroke-miterlimit="50" stroke-width="2" clip-path="url(&quot;#H&quot;)" xlink:href="#g"/></g><g transform="translate(-1009 -448)"><use xlink:href="#h"/><use fill-opacity="0" stroke="#07b1e8" stroke-miterlimit="50" stroke-width="2" clip-path="url(&quot;#I&quot;)" xlink:href="#h"/></g><g transform="translate(-1009 -448)"><use xlink:href="#i"/><use fill-opacity="0" stroke="#07b1e8" stroke-miterlimit="50" stroke-width="2" clip-path="url(&quot;#J&quot;)" xlink:href="#i"/></g><g transform="translate(-1009 -448)"><use xlink:href="#j"/><use fill-opacity="0" stroke="#07b1e8" stroke-miterlimit="50" stroke-width="2" clip-path="url(&quot;#K&quot;)" xlink:href="#j"/></g></g><g fill="#fff"><g transform="translate(-1009 -448)"><use xlink:href="#k"/><use fill-opacity="0" stroke="#07b1e8" stroke-miterlimit="50" stroke-width="2" clip-path="url(&quot;#L&quot;)" xlink:href="#k"/></g><g transform="translate(-1009 -448)"><use xlink:href="#l"/><use fill-opacity="0" stroke="#07b1e8" stroke-miterlimit="50" stroke-width="2" clip-path="url(&quot;#M&quot;)" xlink:href="#l"/></g><g transform="translate(-1009 -448)"><use xlink:href="#m"/><use fill-opacity="0" stroke="#07b1e8" stroke-miterlimit="50" stroke-width="2" clip-path="url(&quot;#N&quot;)" xlink:href="#m"/></g><g transform="translate(-1009 -448)"><use xlink:href="#n"/><use fill-opacity="0" stroke="#07b1e8" stroke-miterlimit="50" stroke-width="2" clip-path="url(&quot;#O&quot;)" xlink:href="#n"/></g><g transform="translate(-1009 -448)"><use xlink:href="#o"/><use fill-opacity="0" stroke="#07b1e8" stroke-miterlimit="50" stroke-width="2" clip-path="url(&quot;#P&quot;)" xlink:href="#o"/></g><g transform="translate(-1009 -448)"><use xlink:href="#p"/><use fill-opacity="0" stroke="#07b1e8" stroke-miterlimit="50" stroke-width="2" clip-path="url(&quot;#Q&quot;)" xlink:href="#p"/></g><g transform="translate(-1009 -448)"><use xlink:href="#q"/><use fill-opacity="0" stroke="#07b1e8" stroke-miterlimit="50" stroke-width="2" clip-path="url(&quot;#R&quot;)" xlink:href="#q"/></g><g transform="translate(-1009 -448)"><use xlink:href="#r"/><use fill-opacity="0" stroke="#07b1e8" stroke-miterlimit="50" stroke-width="2" clip-path="url(&quot;#S&quot;)" xlink:href="#r"/></g><g transform="translate(-1009 -448)"><use xlink:href="#s"/><use fill-opacity="0" stroke="#07b1e8" stroke-miterlimit="50" stroke-width="2" clip-path="url(&quot;#T&quot;)" xlink:href="#s"/></g><g transform="translate(-1009 -448)"><use xlink:href="#t"/><use fill-opacity="0" stroke="#07b1e8" stroke-miterlimit="50" stroke-width="2" clip-path="url(&quot;#U&quot;)" xlink:href="#t"/></g><g transform="translate(-1009 -448)"><use xlink:href="#u"/><use fill-opacity="0" stroke="#07b1e8" stroke-miterlimit="50" stroke-width="2" clip-path="url(&quot;#V&quot;)" xlink:href="#u"/></g><g transform="translate(-1009 -448)"><use xlink:href="#v"/><use fill-opacity="0" stroke="#07b1e8" stroke-miterlimit="50" stroke-width="2" clip-path="url(&quot;#W&quot;)" xlink:href="#v"/></g><g transform="translate(-1009 -448)"><use xlink:href="#w"/><use fill-opacity="0" stroke="#07b1e8" stroke-miterlimit="50" stroke-width="2" clip-path="url(&quot;#X&quot;)" xlink:href="#w"/></g><g transform="translate(-1009 -448)"><use xlink:href="#x"/><use fill-opacity="0" stroke="#07b1e8" stroke-miterlimit="50" stroke-width="2" clip-path="url(&quot;#Y&quot;)" xlink:href="#x"/></g><g transform="translate(-1009 -448)"><use xlink:href="#y"/><use fill-opacity="0" stroke="#07b1e8" stroke-miterlimit="50" stroke-width="2" clip-path="url(&quot;#Z&quot;)" xlink:href="#y"/></g><g transform="translate(-1009 -448)"><use xlink:href="#z"/><use fill-opacity="0" stroke="#07b1e8" stroke-miterlimit="50" stroke-width="2" clip-path="url(&quot;#aa&quot;)" xlink:href="#z"/></g></g></svg>