<svg xmlns="http://www.w3.org/2000/svg" xmlns:xlink="http://www.w3.org/1999/xlink" width="31" height="28" viewBox="0 0 31 28"><defs><path id="a" d="M736.974 510.989l-4.679-.47a26.6 26.6 0 0 1-.178-3.03c0-1.845.082-3.376.215-4.113l5.996 2.574zM715.242 526.6v-15.789c.08-.623.21-1.868.21-3.323 0-.783-.02-3.232-.248-4.331l5.189-1.754c.298 1.06 1.553 2.11 3.099 2.11 1.539 0 2.794-1.05 3.091-2.11l5.19 1.754c-.23 1.1-.248 3.548-.248 4.331 0 1.456.13 2.698.209 3.32V526.6zm-5.24-15.612l-1.354-5.039 5.996-2.575c.133.737.216 2.27.216 4.114 0 1.269-.102 2.375-.179 3.03zm28.796-5.482l-6.554-2.814a.336.336 0 0 0-.02-.007v-.001h-.002l-5.775-1.952a.296.296 0 0 0-.39.263c-.048.785-1.071 1.926-2.572 1.926-1.495 0-2.518-1.14-2.565-1.926a.296.296 0 0 0-.39-.263l-5.776 1.952h-.002a.27.27 0 0 0-.02.008l-6.553 2.814a.296.296 0 0 0-.17.35l1.487 5.528c.038.14.17.233.315.218l4.84-.485v15.779c0 .163.132.296.295.296h17.084a.296.296 0 0 0 .296-.296v-15.779l4.839.485a.296.296 0 0 0 .316-.218l1.486-5.529a.296.296 0 0 0-.17-.349z"/><path id="b" d="M721.934 507.35a.296.296 0 0 0-.296-.296h-.888a.296.296 0 0 0 0 .592h.888a.296.296 0 0 0 .296-.296zm1.777 0a.296.296 0 0 0-.297-.296h-.888a.296.296 0 0 0 0 .592h.888a.296.296 0 0 0 .297-.296zm1.776 0a.296.296 0 0 0-.296-.296h-.888a.296.296 0 0 0 0 .592h.888a.296.296 0 0 0 .296-.296zm1.777 0a.296.296 0 0 0-.296-.296h-.889a.296.296 0 0 0 0 .592h.889a.296.296 0 0 0 .296-.296zm-8.286.351a.318.318 0 0 0 .074-.009 1.5 1.5 0 0 1 .367-.046h.442a.296.296 0 1 0 0-.592h-.443a2.07 2.07 0 0 0-.514.065.296.296 0 0 0 .074.582zm9.677.332a.295.295 0 0 0 .185-.527 2.063 2.063 0 0 0-.935-.422.296.296 0 1 0-.101.584c.242.041.473.145.666.3.055.044.12.065.185.065zm-10.917.835c.125 0 .24-.08.281-.205.076-.234.212-.448.392-.618a.296.296 0 1 0-.405-.431 2.069 2.069 0 0 0-.55.866.296.296 0 0 0 .282.388zm11.58.738a.296.296 0 0 0 .296-.296v-.193c0-.274-.053-.54-.157-.791a.296.296 0 0 0-.547.227c.074.179.112.368.112.564v.193c0 .163.133.296.296.296zm-11.37.733v-.888a.296.296 0 0 0-.592 0v.888a.296.296 0 0 0 .592 0zm11.666.747v-.888a.296.296 0 0 0-.592 0v.888a.296.296 0 0 0 .592 0zm-11.666 1.03v-.889a.296.296 0 0 0-.592 0v.889a.296.296 0 0 0 .592 0zm11.666.747v-.889a.296.296 0 0 0-.592 0v.889a.296.296 0 1 0 .592 0zm-11.666 1.03v-.89a.296.296 0 0 0-.592 0v.89a.296.296 0 0 0 .592 0zm11.666.746v-.888a.296.296 0 1 0-.592 0v.888a.296.296 0 0 0 .592 0zm-11.903 1.322a.296.296 0 0 0 .251-.334 1.494 1.494 0 0 1-.014-.208v-.638a.296.296 0 1 0-.592 0v.638c0 .097.007.195.02.29a.296.296 0 0 0 .335.252zm11.334.698a.295.295 0 0 0 .25-.137c.185-.293.294-.63.315-.977a.296.296 0 1 0-.59-.036 1.469 1.469 0 0 1-.225.696.296.296 0 0 0 .25.454zm-10.084.493a.296.296 0 0 0-.148-.392 1.48 1.48 0 0 1-.57-.458.296.296 0 1 0-.474.355c.208.278.485.5.8.642a.295.295 0 0 0 .392-.147zm1.78.034a.296.296 0 0 0-.296-.296h-.888a.296.296 0 0 0 0 .592h.888a.296.296 0 0 0 .296-.296zm1.777 0a.296.296 0 0 0-.297-.296h-.888a.296.296 0 1 0 0 .592h.889a.296.296 0 0 0 .296-.296zm1.776 0a.296.296 0 0 0-.296-.296h-.888a.296.296 0 0 0 0 .592h.888a.296.296 0 0 0 .296-.296zm1.777 0a.296.296 0 0 0-.296-.296h-.889a.296.296 0 0 0 0 .592h.889a.296.296 0 0 0 .296-.296zm1.484.296c.348 0 .691-.09.994-.257a.296.296 0 0 0-.287-.518 1.47 1.47 0 0 1-.708.183h-.891a.296.296 0 0 0 0 .592h.892z"/></defs><use fill="#fff" xlink:href="#a" transform="translate(-708 -500)"/><use fill="#fff" xlink:href="#b" transform="translate(-708 -500)"/></svg>