<svg xmlns="http://www.w3.org/2000/svg" xmlns:xlink="http://www.w3.org/1999/xlink" width="36" height="38" viewBox="0 0 36 38"><defs><path id="a" d="M1051.573 693.72l7.2-4.835.3-.36 7.38-16.226 5.974-.853-8.294 22.32-5.913 3.682-11.406-3.682-2.486-1.632 6.557 1.706zm-2.006-13.083l7.35-12.514 1.169 1.182-6.199 11.392zm20.045-15.283l2.41 4.445-4.745.674zm-16.481 16.6l8.712-16.032 6.421-1.676-10.628 23.367-6.691 4.491-10.448-2.725.179-3.503 11.167-17.35 3.398-.882-7.859 13.382.704 1.272 4.281.09zm7.934-17.574l-.525.42-1.617 2.963-2.125-2.275-5.703 1.482-.494.374-11.467 17.8-.135.418-.105 5.21 7.096 4.46.194.105 11.902 3.847.703-.09 6.482-4.041.344-.434 8.892-23.907-4.327-8.712z"/></defs><use fill="#13599f" xlink:href="#a" transform="translate(-1039 -662)"/></svg>