<svg xmlns="http://www.w3.org/2000/svg" xmlns:xlink="http://www.w3.org/1999/xlink" width="46" height="48" viewBox="0 0 46 48"><defs><path id="9c6ka" d="M857.974 650.333H840.4v-7.19a8.787 8.787 0 1 1 17.574 0zm-8.787-17.575c-5.733.007-10.378 4.653-10.385 10.385v8.788h20.77v-8.788c-.006-5.732-4.652-10.378-10.385-10.385z"/><path id="9c6kb" d="M849.187 635.954v1.597a5.598 5.598 0 0 1 5.592 5.592v2.397h1.598v-2.397a7.197 7.197 0 0 0-7.19-7.19z"/><path id="9c6kc" d="M834.01 619.977v30.356h-17.575v-30.356zm-15.179-14.38h12.782v12.782H818.83zm14.38-1.597h-15.978v14.38h-2.396v33.55h20.77v-33.55h-2.397z"/><path id="9c6kd" d="M821.228 608.793h1.597v1.598h-1.597zm-1.598 3.195h4.793v-4.793h-4.793z"/><path id="9c6ke" d="M827.618 608.793h1.598v1.598h-1.598zm-1.597 3.195h4.793v-4.793h-4.793z"/><path id="9c6kf" d="M820.429 635.954a.799.799 0 1 1 0 1.598.799.799 0 0 1 0-1.598zm8.787-3.196h1.598v.8h-1.598zm-9.586 10.813l4.793 3.195v1.97h1.598v-6.763l4.793-3.195v-3.623h1.597v-3.994h-4.793v3.994h1.598v2.768l-3.195 2.13v-13.005l1.773 2.215 1.247-.998-3.82-4.773-3.818 4.774 1.247.998 1.773-2.217v17.8l-3.195-2.131v-3.714a2.396 2.396 0 1 0-1.598 0z"/><path id="9c6kg" d="M854.78 647.138h1.597v1.597h-1.598z"/></defs><g><g transform="translate(-814 -604)"><g><use fill="#07b1e8" xlink:href="#9c6ka"/></g><g><use fill="#07b1e8" xlink:href="#9c6kb"/></g><g><use fill="#07b1e8" xlink:href="#9c6kc"/></g><g><use fill="#07b1e8" xlink:href="#9c6kd"/></g><g><use fill="#07b1e8" xlink:href="#9c6ke"/></g><g><use fill="#07b1e8" xlink:href="#9c6kf"/></g><g><use fill="#07b1e8" xlink:href="#9c6kg"/></g></g></g></svg>