<svg xmlns="http://www.w3.org/2000/svg" xmlns:xlink="http://www.w3.org/1999/xlink" width="21" height="20" viewBox="0 0 21 20"><defs><path id="a" d="M745.991 1261.338a.77.77 0 0 1-.563.238.77.77 0 0 1-.563-.238.77.77 0 0 1-.238-.564.77.77 0 0 1 .238-.563.77.77 0 0 1 .563-.238.77.77 0 0 1 .563.238.77.77 0 0 1 .238.563.77.77 0 0 1-.238.564zm-14.184-1.365v-8.012h8.013v2.003c0 .334.117.618.35.851.234.234.517.35.851.35h2.003v4.808zm11.217 8.012h-11.217v-3.204h11.217zm4.1-8.907a2.314 2.314 0 0 0-1.696-.707h-.801v-3.205c0-.334-.084-.701-.25-1.102-.168-.4-.368-.718-.601-.951l-1.904-1.903c-.233-.234-.55-.434-.95-.601-.401-.167-.768-.25-1.102-.25h-8.413a1.16 1.16 0 0 0-.852.35 1.16 1.16 0 0 0-.35.851v6.81h-.801c-.66 0-1.225.236-1.697.708a2.313 2.313 0 0 0-.707 1.696v5.208c0 .109.04.202.119.282.08.08.173.119.282.119h2.804v2.003c0 .334.117.618.35.851.234.234.518.35.852.35h12.018c.334 0 .618-.116.851-.35a1.16 1.16 0 0 0 .35-.851v-2.003h2.805c.108 0 .202-.04.282-.119a.386.386 0 0 0 .118-.282v-5.208c0-.66-.235-1.225-.706-1.696z"/></defs><use fill="#fff" xlink:href="#a" transform="translate(-727 -1250)"/></svg>