<svg xmlns="http://www.w3.org/2000/svg" xmlns:xlink="http://www.w3.org/1999/xlink" width="61" height="61" viewBox="0 0 61 61"><defs><path id="qvcua" d="M481.297 975.668H462.25v-30.662c0-4.39 2.13-8.542 5.697-11.103a4.746 4.746 0 0 0 1.731-2.36h4.192a4.75 4.75 0 0 0 1.732 2.36 13.699 13.699 0 0 1 5.696 11.103zm-22.488 0h-14.4a1.068 1.068 0 0 1-1.068-1.067v-16.39c0-4.206.963-8.433 2.789-12.23l.004-.008a30.597 30.597 0 0 0 2.186-6.193h6.57a30.608 30.608 0 0 0 2.194 6.201 28.378 28.378 0 0 1 2.793 12.24v16.38c0 .589-.479 1.067-1.067 1.067zm-17.84 0h-15.657v-7.139h15.657zm-10.336-41.82c.433-.187.713-.614.713-1.087v-3.047h3.588v3.047c0 .472.28.9.714 1.088a8.84 8.84 0 0 1 5.32 8.112v4.528h-8.54a1.186 1.186 0 1 0 0 2.372h8.54v17.296h-15.656v-24.196a8.84 8.84 0 0 1 5.32-8.112zm4.301-14.166v7.66h-3.588v-7.66zm14.22.08a.08.08 0 0 1 .078-.08h4.744a.08.08 0 0 1 .079.08v3.251h-4.902zm0 12.96v-7.336h4.9v7.326c0 1.57.128 3.141.37 4.696h-5.639c.242-1.552.368-3.12.368-4.686zm24.472-13.04v2.16h-3.705v-2.16zm-3.705 9.49v-4.957h3.705v4.956zm7.063 2.804a2.373 2.373 0 0 1-.986-1.922v-11.558c0-.655-.531-1.186-1.186-1.186h-6.077c-.655 0-1.186.531-1.186 1.186v11.558c0 .76-.369 1.48-.987 1.922a16.076 16.076 0 0 0-6.685 13.03v1.41a30.018 30.018 0 0 0-.656-1.464 28.382 28.382 0 0 1-2.794-12.24v-12.95c0-1.352-1.1-2.452-2.451-2.452h-4.744a2.454 2.454 0 0 0-2.451 2.452v12.96c0 4.206-.963 8.433-2.789 12.23l-.004.008c-.229.476-.443.959-.647 1.447v-4.446c0-4.204-2.344-8.027-6.034-9.948v-13.517c0-.655-.532-1.186-1.187-1.186h-5.96c-.655 0-1.186.531-1.186 1.186v13.517a11.212 11.212 0 0 0-6.035 9.948v34.893c0 .655.531 1.186 1.187 1.186h18.029c.313 0 .596-.121.808-.32.44.206.93.32 1.446.32h14.4c.701 0 1.354-.21 1.898-.573a2.36 2.36 0 0 0 1.542.573h19.048a2.375 2.375 0 0 0 2.373-2.372v-30.662c0-5.153-2.5-10.024-6.686-13.03z"/><path id="qvcub" d="M428.09 948.861c.313 0 .619-.127.84-.347.22-.22.347-.527.347-.839 0-.312-.127-.618-.348-.838a1.196 1.196 0 0 0-.838-.348c-.312 0-.618.127-.839.348-.22.22-.347.526-.347.838 0 .312.127.618.347.839.22.22.527.347.839.347z"/><path id="qvcuc" d="M433.14 955.418c1.154 0 2.092.938 2.092 2.092a2.094 2.094 0 0 1-2.092 2.091 2.094 2.094 0 0 1-2.092-2.091c0-1.154.939-2.092 2.092-2.092zm0 6.556a4.47 4.47 0 0 0 4.464-4.464 4.47 4.47 0 0 0-4.464-4.465 4.47 4.47 0 0 0-4.464 4.465 4.47 4.47 0 0 0 4.464 4.464z"/><path id="qvcud" d="M477.504 955.978c-.312 0-.618.127-.839.348-.22.22-.347.525-.347.838 0 .312.127.618.347.839.221.22.527.347.84.347.31 0 .617-.127.838-.347.22-.22.347-.527.347-.839 0-.312-.127-.618-.347-.838a1.196 1.196 0 0 0-.839-.348z"/><path id="qvcue" d="M464.856 948.861v16.606c0 .655.531 1.186 1.187 1.186h11.461c.655 0 1.186-.53 1.186-1.186v-3.914a1.186 1.186 0 0 0-2.372 0v2.728h-9.09v-14.234h9.09v2.147a1.186 1.186 0 1 0 2.372 0v-3.333c0-.655-.531-1.186-1.186-1.186h-11.461c-.656 0-1.187.531-1.187 1.186z"/><path id="qvcuf" d="M455.127 969.263h-7.036v-9.964h7.036zm1.186-12.336h-9.409c-.655 0-1.186.531-1.186 1.186v12.336c0 .655.531 1.186 1.186 1.186h9.41c.655 0 1.186-.53 1.186-1.186v-12.336c0-.655-.531-1.186-1.187-1.186z"/></defs><g><g transform="translate(-423 -917)"><g><use fill="#07b1e8" xlink:href="#qvcua"/></g><g><use fill="#07b1e8" xlink:href="#qvcub"/></g><g><use fill="#07b1e8" xlink:href="#qvcuc"/></g><g><use fill="#07b1e8" xlink:href="#qvcud"/></g><g><use fill="#07b1e8" xlink:href="#qvcue"/></g><g><use fill="#07b1e8" xlink:href="#qvcuf"/></g></g></g></svg>