<svg xmlns="http://www.w3.org/2000/svg" xmlns:xlink="http://www.w3.org/1999/xlink" width="50" height="70" viewBox="0 0 50 70"><defs><path id="a" d="M1048.05 669.43v-4.528h3.531a4.073 4.073 0 0 0 4.069-4.068v-1.39l5.548-.005v9.991zm0-7.209v-2.774h4.919v1.387a1.39 1.39 0 0 1-1.388 1.387zm-2.68 22.991h-23.038V631h7.93a1.34 1.34 0 0 0 0-2.68h-12.658a.935.935 0 0 1-.923-.924c0-.5.423-.923.923-.923h32.494c.5 0 .923.422.923.923 0 .5-.423.923-.923.923h-8.942a1.34 1.34 0 0 0 0 2.68h4.214zm15.828-32.39zm0 3.936l-6.89.008h-6.257v-3.944h13.147zm1.34-12.657c-.74 0-1.34.6-1.34 1.34v4.7h-13.147V631h2.047a3.608 3.608 0 0 0 3.604-3.604 3.608 3.608 0 0 0-3.604-3.604h-32.494a3.608 3.608 0 0 0-3.604 3.604 3.608 3.608 0 0 0 3.604 3.604h2.047v54.212h-2.047a3.608 3.608 0 0 0-3.604 3.604 3.608 3.608 0 0 0 3.604 3.604h5.554a1.34 1.34 0 1 0 0-2.68h-5.554a.924.924 0 0 1-.923-.924c0-.5.423-.923.923-.923h32.494c.5 0 .923.423.923.923a.924.924 0 0 1-.923.923h-16.046a1.34 1.34 0 0 0 0 2.681h16.046a3.608 3.608 0 0 0 3.604-3.604 3.608 3.608 0 0 0-3.604-3.604h-2.047v-13.1h13.147v3.92a1.34 1.34 0 0 0 2.68 0v-30.59c0-.74-.6-1.34-1.34-1.34z"/><path id="b" d="M1037.258 628.32h-.064a1.34 1.34 0 0 0 0 2.68h.064a1.34 1.34 0 0 0 0-2.68z"/><path id="c" d="M1027.12 689.74h-.063a1.34 1.34 0 0 0 0 2.68h.063a1.34 1.34 0 1 0 0-2.68z"/></defs><use fill="#07b1e8" xlink:href="#a" transform="translate(-1014 -623)"/><use fill="#07b1e8" xlink:href="#b" transform="translate(-1014 -623)"/><use fill="#07b1e8" xlink:href="#c" transform="translate(-1014 -623)"/><text fill="#07b1e8" style="line-height:18px;font-kerning:normal" dominant-baseline="text-before-edge" font-family="'Roboto','Roboto-Medium'" font-size="16" transform="translate(15 17)"><tspan>A</tspan><tspan>a</tspan></text></svg>