<svg xmlns="http://www.w3.org/2000/svg" xmlns:xlink="http://www.w3.org/1999/xlink" width="57" height="58" viewBox="0 0 57 58"><defs><path id="a" d="M1220.375 598.927c-.188-.463.089-1.114.552-1.302.464-.187 1.115.09 1.302.553l22.102 54.704c.187.463-.09 1.114-.553 1.302-.463.187-1.114-.09-1.302-.553z"/><path id="b" d="M1217.375 599.927c-.188-.463.089-1.114.552-1.302.464-.187 1.115.09 1.302.553l8.99 22.252c.188.464-.088 1.115-.552 1.302-.464.187-1.115-.089-1.302-.552z"/><path id="c" d="M1206 653.3c0-.5.5-1 1-1h36c.5 0 1 .5 1 1s-.5 1-1 1h-36c-.5 0-1-.5-1-1z"/><path id="d" d="M1218.109 599.651c-.163-.473.147-1.108.62-1.271l1.891-.651c.473-.163 1.108.147 1.271.62.163.473-.147 1.108-.62 1.27l-1.891.652c-.473.163-1.108-.147-1.271-.62z"/><clipPath id="e"><use fill="#fff" xlink:href="#a"/></clipPath><clipPath id="f"><use fill="#fff" xlink:href="#b"/></clipPath><clipPath id="g"><use fill="#fff" xlink:href="#c"/></clipPath><clipPath id="h"><use fill="#fff" xlink:href="#d"/></clipPath></defs><g fill="#fff" transform="translate(-1206 -597)"><use xlink:href="#a"/><use fill-opacity="0" stroke="#07b1e8" stroke-miterlimit="50" stroke-width="6" clip-path="url(&quot;#e&quot;)" xlink:href="#a"/></g><g fill="#fff" transform="translate(-1206 -597)"><use xlink:href="#b"/><use fill-opacity="0" stroke="#07b1e8" stroke-miterlimit="50" stroke-width="6" clip-path="url(&quot;#f&quot;)" xlink:href="#b"/></g><g fill="#fff" transform="translate(-1206 -597)"><use xlink:href="#c"/><use fill-opacity="0" stroke="#07b1e8" stroke-miterlimit="50" stroke-width="6" clip-path="url(&quot;#g&quot;)" xlink:href="#c"/></g><g fill="#fff" transform="translate(-1206 -597)"><use xlink:href="#d"/><use fill-opacity="0" stroke="#07b1e8" stroke-miterlimit="50" stroke-width="6" clip-path="url(&quot;#h&quot;)" xlink:href="#d"/></g><text fill="#07b1e8" style="line-height:30px;font-kerning:normal" dominant-baseline="text-before-edge" font-family="'Roboto','Roboto-Medium'" font-size="40" transform="translate(31 -8)"><tspan>₽</tspan></text></svg>