<svg xmlns="http://www.w3.org/2000/svg" xmlns:xlink="http://www.w3.org/1999/xlink" width="46" height="61" viewBox="0 0 46 61"><defs><path id="a" d="M436.059 604.472v-2.529h35.41v2.53zm2.529 2.53h30.352v32.88h-30.352zm-2.53 37.94v-2.53h35.411v2.53zm37.94-42.999v-1.265c0-.699-.566-1.264-1.265-1.264h-17.705v-1.265a1.264 1.264 0 1 0-2.529 0v1.265h-17.705c-.7 0-1.265.566-1.265 1.265v1.264h-1.264a1.264 1.264 0 1 0 0 2.53h1.264v1.264c0 .7.566 1.265 1.265 1.265h1.265v32.88h-1.265c-.7 0-1.265.566-1.265 1.265v5.059c0 .699.566 1.265 1.265 1.265h17.705v3.06l-8.215 4.694a1.264 1.264 0 1 0 1.255 2.196l6.96-3.978v2.88a1.264 1.264 0 1 0 2.53 0v-2.88l6.96 3.978a1.267 1.267 0 0 0 1.727-.47 1.264 1.264 0 0 0-.472-1.726l-8.216-4.694v-3.06h17.706c.699 0 1.264-.566 1.264-1.265v-5.059c0-.699-.565-1.264-1.264-1.264h-1.265v-32.881h1.265c.699 0 1.264-.566 1.264-1.265v-1.265h1.265a1.264 1.264 0 1 0 0-2.529z"/></defs><use fill="#07b1e8" xlink:href="#a" transform="translate(-431 -597)"/></svg>