<svg xmlns="http://www.w3.org/2000/svg" xmlns:xlink="http://www.w3.org/1999/xlink" width="58" height="47" viewBox="0 0 58 47"><defs><path id="a" d="M1251.347 808.076a.593.593 0 0 1-.593.593h-51.912a.593.593 0 0 1-.592-.593v-31.974c0-.326.266-.592.592-.592h3.375v1.967a3.56 3.56 0 0 0 3.556 3.557 3.56 3.56 0 0 0 3.557-3.557v-1.967h29.964v1.967a3.56 3.56 0 0 0 3.557 3.557 3.56 3.56 0 0 0 3.556-3.557v-1.967h4.347c.327 0 .593.266.593.592zm-46.88-40.52a1.308 1.308 0 0 1 2.613.001v9.92c0 .72-.587 1.307-1.307 1.307s-1.307-.586-1.307-1.307zm37.077 0c0-.72.586-1.306 1.307-1.306.72 0 1.306.586 1.306 1.307v9.92c0 .72-.586 1.307-1.306 1.307-.72 0-1.307-.586-1.307-1.307zm4.863 5.704v-5.703a3.56 3.56 0 0 0-3.556-3.557 3.56 3.56 0 0 0-3.557 3.557v5.703h-29.964v-5.703a3.56 3.56 0 0 0-3.557-3.557 3.56 3.56 0 0 0-3.556 3.557v5.703h-3.375a2.846 2.846 0 0 0-2.842 2.842v31.974a2.846 2.846 0 0 0 2.842 2.843h51.912a2.846 2.846 0 0 0 2.843-2.843v-31.974a2.846 2.846 0 0 0-2.843-2.842z"/><path id="b" d="M1247.598 797.688l-8.112-5.27a1.523 1.523 0 0 0-2.355 1.278v1.553h-34.704a1.98 1.98 0 0 0-1.977 1.977v3.728a1.98 1.98 0 0 0 1.977 1.977h3.529a1.125 1.125 0 0 0 0-2.25h-3.256v-3.182h35.556c.622 0 1.125-.504 1.125-1.125v-1.341l6.245 4.057-6.245 4.057v-1.341c0-.621-.503-1.125-1.125-1.125h-32.3c-.622 0 .032 2.323 0 2.25-.033-.074 8.378 0 9 0h22.175v1.552a1.523 1.523 0 0 0 2.355 1.279l8.112-5.27c.476-.31.761-.834.761-1.402 0-.569-.285-1.093-.761-1.402z"/><path id="c" d="M1211.495 801.376a1.112 1.112 0 0 0-.609-.609 1.106 1.106 0 0 0-.86 0 1.109 1.109 0 0 0-.61.609 1.108 1.108 0 0 0 .103 1.054 1.078 1.078 0 0 0 .312.312 1.111 1.111 0 0 0 .624.188 1.115 1.115 0 0 0 .935-.5 1.139 1.139 0 0 0 .19-.624 1.108 1.108 0 0 0-.085-.43z"/></defs><use fill="#07b1e8" xlink:href="#a" transform="translate(-1196 -764)"/><use fill="#07b1e8" xlink:href="#b" transform="translate(-1196 -764)"/><use fill="#07b1e8" xlink:href="#c" transform="translate(-1196 -764)"/><text fill="#07b1e8" style="line-height:18px;font-kerning:normal" dominant-baseline="text-before-edge" font-family="'Roboto','Roboto-Medium'" font-size="9" transform="translate(13 17)"><tspan>ВЫХОД</tspan></text></svg>