<svg xmlns="http://www.w3.org/2000/svg" xmlns:xlink="http://www.w3.org/1999/xlink" width="42" height="59" viewBox="0 0 42 59"><defs><path id="a" d="M1221.382 471.898l5.601-9.802 5.6 9.802zm-2.832 0h-3.21l3.033-5.06 1.571 2.618zm8.433-14.76l-5.639 9.87-2.97-4.95-7.38 12.299h25.828z"/><path id="b" d="M1242.357 491.575h-36.898V447.3h2.461v2.46h7.38v-2.46h17.218v2.46h7.38v-2.46h2.459zm-31.978-46.736h2.46v2.46h-2.46zm24.598 0h2.461v2.46h-2.46zm4.92 0v-2.46h-2.459V435h-2.46v7.38h-2.46v2.459H1215.3v-2.46h-2.461V435h-2.46v7.38h-2.459v2.459H1203v49.197h41.818V444.84z"/><path id="c" d="M1228.828 484.196h-9.838a1.231 1.231 0 0 0 0 2.46h9.838a1.231 1.231 0 0 0 0-2.46z"/><path id="d" d="M1233.749 479.277h-19.68a1.23 1.23 0 0 0 0 2.46h19.68a1.229 1.229 0 1 0 0-2.46z"/></defs><use fill="#07b1e8" xlink:href="#a" transform="translate(-1203 -435)"/><use fill="#07b1e8" xlink:href="#b" transform="translate(-1203 -435)"/><use fill="#07b1e8" xlink:href="#c" transform="translate(-1203 -435)"/><use fill="#07b1e8" xlink:href="#d" transform="translate(-1203 -435)"/></svg>