<svg xmlns="http://www.w3.org/2000/svg" xmlns:xlink="http://www.w3.org/1999/xlink" width="60" height="60" viewBox="0 0 60 60"><defs><path id="a" d="M855.256 968.482a27.31 27.31 0 0 1-19.37 8.023 27.301 27.301 0 0 1-19.371-8.023 27.216 27.216 0 0 1-6.019-9.06 27.284 27.284 0 0 1-2.006-10.31c0-3.56.674-7.028 2.006-10.31a27.215 27.215 0 0 1 6.019-9.061 27.255 27.255 0 0 1 16.755-7.898l.966.965a29.783 29.783 0 0 0 5.303 15.22l-7.388 12.93-4.294-7.16-10.673 17.789h37.355l-10.607-18.562a29.762 29.762 0 0 0 18.255 7.735l.968.968a27.236 27.236 0 0 1-2.182 8.407 27.301 27.301 0 0 1-5.717 8.348zm-27.755-9.386h-5.918l6.274-10.457 2.88 4.797zm12.808-17.394l9.94 17.394h-19.88zm19.045 6.225a27.274 27.274 0 0 1-14.664-7.62 27.167 27.167 0 0 1-6.299-9.78 27.45 27.45 0 0 1-1.323-4.886zm-25.133-28.653a29.78 29.78 0 0 0-19.469 8.706c-11.67 11.671-11.67 30.592 0 42.263 5.836 5.835 13.484 8.753 21.133 8.753 7.648 0 15.297-2.918 21.131-8.753a29.776 29.776 0 0 0 8.707-19.469z"/></defs><use fill="#07b1e8" xlink:href="#a" transform="translate(-806 -919)"/></svg>