<svg xmlns="http://www.w3.org/2000/svg" xmlns:xlink="http://www.w3.org/1999/xlink" width="56" height="50" viewBox="0 0 56 50"><defs><path id="59ola" d="M447.673 802.29h-12.801a1.267 1.267 0 1 0 0 2.535h12.801a1.267 1.267 0 1 0 0-2.535z"/><path id="59olb" d="M466.811 802.29h-12.8a1.267 1.267 0 1 0 0 2.535h12.8a1.268 1.268 0 0 0 0-2.535z"/><path id="59olc" d="M466.811 770.605h-31.939a1.267 1.267 0 1 0 0 2.534h31.94a1.267 1.267 0 0 0 0-2.534z"/><path id="59old" d="M466.811 776.942h-12.8a1.267 1.267 0 1 0 0 2.535h12.8a1.268 1.268 0 0 0 0-2.535z"/><path id="59ole" d="M466.811 783.279h-12.8a1.267 1.267 0 1 0 0 2.535h12.8a1.267 1.267 0 0 0 0-2.535z"/><path id="59olf" d="M466.811 789.616h-12.8a1.267 1.267 0 1 0 0 2.535h12.8a1.268 1.268 0 0 0 0-2.535z"/><path id="59olg" d="M466.811 795.953h-12.8a1.267 1.267 0 1 0 0 2.535h12.8a1.267 1.267 0 0 0 0-2.535z"/><path id="59olh" d="M447.673 795.953h-12.801a1.267 1.267 0 1 0 0 2.535h12.801a1.267 1.267 0 1 0 0-2.535z"/><path id="59oli" d="M446.406 789.743h-10.267v-10.266h10.267zm1.267-12.801h-12.801c-.7 0-1.267.567-1.267 1.267v12.801c0 .7.567 1.268 1.267 1.268h12.801c.7 0 1.268-.568 1.268-1.268v-12.8c0-.7-.568-1.268-1.268-1.268z"/><path id="59olj" d="M479.486 806.093a3.807 3.807 0 0 1-3.803 3.802h-43.346a3.807 3.807 0 0 1-3.802-3.802v-40.558h44.613v38.657a3.172 3.172 0 0 0 3.17 3.168 1.267 1.267 0 0 0 0-2.535.634.634 0 0 1-.635-.633v-32.32h3.803zm0-36.756h-3.803v-3.802a2.538 2.538 0 0 0-2.535-2.535h-44.613a2.538 2.538 0 0 0-2.535 2.535v40.558a6.344 6.344 0 0 0 6.337 6.337h43.346a6.344 6.344 0 0 0 6.337-6.337v-34.221a2.538 2.538 0 0 0-2.534-2.535z"/></defs><g><g transform="translate(-426 -763)"><g><use fill="#07b1e8" xlink:href="#59ola"/></g><g><use fill="#07b1e8" xlink:href="#59olb"/></g><g><use fill="#07b1e8" xlink:href="#59olc"/></g><g><use fill="#07b1e8" xlink:href="#59old"/></g><g><use fill="#07b1e8" xlink:href="#59ole"/></g><g><use fill="#07b1e8" xlink:href="#59olf"/></g><g><use fill="#07b1e8" xlink:href="#59olg"/></g><g><use fill="#07b1e8" xlink:href="#59olh"/></g><g><use fill="#07b1e8" xlink:href="#59oli"/></g><g><use fill="#07b1e8" xlink:href="#59olj"/></g></g></g></svg>