<svg xmlns="http://www.w3.org/2000/svg" xmlns:xlink="http://www.w3.org/1999/xlink" width="38" height="24" viewBox="0 0 38 24"><defs><path id="o5e8a" d="M723.862 3223.744h3.994a3.122 3.122 0 0 1 3.118 3.118 3.122 3.122 0 0 1-3.118 3.118h-3.994a3.121 3.121 0 0 1-3.118-3.118 3.121 3.121 0 0 1 3.118-3.118zm0 7.718h3.994c2.537 0 4.6-2.063 4.6-4.6 0-2.537-2.063-4.6-4.6-4.6h-3.994a4.606 4.606 0 0 0-4.6 4.6c0 2.537 2.064 4.6 4.6 4.6z"/><path id="o5e8b" d="M723.862 3220.482h3.994a6.387 6.387 0 0 1 6.38 6.38 6.387 6.387 0 0 1-6.38 6.38h-3.994a6.387 6.387 0 0 1-6.38-6.38 6.387 6.387 0 0 1 6.38-6.38zm10.374 12.76h-1.79a7.931 7.931 0 0 0 1.79-1.79zm18.977 0h-4.586a.741.741 0 1 0 0 1.482h3.845v6.227h-2.511v-3.208a.741.741 0 1 0-1.483 0v3.208h-2.075v-1.141a.741.741 0 0 0-1.483 0v1.141h-2.077v-3.208a.741.741 0 1 0-1.482 0v3.208h-2.076v-1.141a.741.741 0 0 0-1.482 0v1.141h-2.076v-3.208a.741.741 0 1 0-1.482 0v3.208h-2.076v-1.141a.741.741 0 1 0-1.483 0v1.141h-2.075v-3.207a.741.741 0 1 0-1.483 0v3.207h-2.075v-1.141a.741.741 0 1 0-1.483 0v1.134a6.333 6.333 0 0 1-2.075-.449v-2.752a.741.741 0 1 0-1.483 0v1.914a6.369 6.369 0 0 1-2.53-5.081v-3.125a7.858 7.858 0 0 0 6.38 3.273h18.834a.741.741 0 1 0 0-1.482h-6.978v-6.38c0-4.336-3.527-7.862-7.862-7.862h-3.994c-4.335 0-7.862 3.526-7.862 7.862v7.714c0 4.333 3.525 7.858 7.858 7.858h29.355c.41 0 .741-.332.741-.742v-7.71a.741.741 0 0 0-.741-.74z"/><path id="o5e8c" d="M745.661 3234.724a.743.743 0 0 0 .742-.741.746.746 0 0 0-.741-.741.747.747 0 0 0-.525.217.747.747 0 0 0-.217.524.746.746 0 0 0 .741.74z"/><path id="o5e8d" d="M723.586 3227.603h4.547a.741.741 0 0 0 0-1.482h-4.547a.741.741 0 0 0 0 1.482z"/></defs><g><g transform="translate(-716 -3219)"><g><use fill="#fff" xlink:href="#o5e8a"/></g><g><use fill="#fff" xlink:href="#o5e8b"/></g><g><use fill="#fff" xlink:href="#o5e8c"/></g><g><use fill="#fff" xlink:href="#o5e8d"/></g></g></g></svg>