<svg xmlns="http://www.w3.org/2000/svg" xmlns:xlink="http://www.w3.org/1999/xlink" width="34" height="65" viewBox="0 0 34 65"><defs><path id="a" d="M837.98 1295.585c-8.577 0-15.555-6.979-15.555-15.556 0-8.578 6.978-15.556 15.555-15.556 8.578 0 15.556 6.978 15.556 15.556 0 8.577-6.978 15.556-15.556 15.556zm0-32.116c-9.13 0-16.559 7.43-16.559 16.56 0 9.13 7.428 16.559 16.56 16.559 9.13 0 16.559-7.429 16.559-16.56 0-9.13-7.43-16.559-16.56-16.559z"/><path id="b" d="M854.038 1281.534a.501.501 0 0 0-.502.502c0 8.578-6.978 15.556-15.556 15.556-8.577 0-15.556-6.978-15.556-15.556a.502.502 0 1 0-1.003 0c0 9.13 7.428 16.56 16.56 16.56 9.13 0 16.559-7.43 16.559-16.56a.501.501 0 0 0-.502-.502z"/><path id="c" d="M837.98 1259.455a3.517 3.517 0 0 0-3.512 3.513.502.502 0 1 0 1.003 0 2.512 2.512 0 0 1 2.51-2.51 2.511 2.511 0 0 1 2.508 2.51.501.501 0 1 0 1.004 0 3.517 3.517 0 0 0-3.513-3.513z"/><path id="d" d="M839.988 1255.44a.502.502 0 0 0-.502.502v3.011a.501.501 0 1 0 1.003 0v-3.01a.502.502 0 0 0-.501-.502z"/><path id="e" d="M837.98 1260.459c-.83 0-1.505-.676-1.505-1.506v-4.014c0-.83.675-1.506 1.505-1.506a.502.502 0 1 0 0-1.003 2.512 2.512 0 0 0-2.509 2.509v4.014a2.512 2.512 0 0 0 2.51 2.51.502.502 0 1 0 0-1.004z"/><path id="f" d="M837.98 1246.408a2.512 2.512 0 0 0-2.509 2.51v3.01a.502.502 0 1 0 1.004 0v-3.01c0-.831.675-1.506 1.505-1.506a.501.501 0 1 0 0-1.004z"/><path id="g" d="M839.988 1251.426a.502.502 0 0 0-.502.502v1.003c0 .83-.676 1.506-1.506 1.506a.502.502 0 1 0 0 1.003 2.511 2.511 0 0 0 2.51-2.509v-1.003a.502.502 0 0 0-.502-.502z"/><path id="h" d="M837.98 1250.422c-4.15 0-7.527-3.376-7.527-7.526 0-4.151 3.377-7.527 7.527-7.527 4.151 0 7.527 3.376 7.527 7.527 0 4.15-3.376 7.526-7.527 7.526zm0-16.057c-4.703 0-8.53 3.827-8.53 8.53 0 4.704 3.827 8.531 8.53 8.531 4.705 0 8.531-3.827 8.531-8.53 0-4.704-3.826-8.531-8.53-8.531z"/><path id="i" d="M837.98 1248.415a5.526 5.526 0 0 1-5.52-5.52 5.526 5.526 0 0 1 5.52-5.52 5.526 5.526 0 0 1 5.52 5.52 5.526 5.526 0 0 1-5.52 5.52zm0-12.043a6.53 6.53 0 0 0-6.523 6.524 6.53 6.53 0 0 0 6.523 6.523 6.53 6.53 0 0 0 6.524-6.523 6.531 6.531 0 0 0-6.524-6.524z"/><path id="j" d="M837.98 1291.068c-6.087 0-11.04-4.952-11.04-11.04 0-6.087 4.953-11.039 11.04-11.039 6.088 0 11.04 4.952 11.04 11.04 0 6.087-4.952 11.04-11.04 11.04zm0-23.083c-6.64 0-12.043 5.403-12.043 12.044 0 6.64 5.403 12.043 12.043 12.043 6.641 0 12.044-5.402 12.044-12.043 0-6.641-5.403-12.044-12.044-12.044z"/><path id="k" d="M836.763 1281.625a.5.5 0 0 0-.7.123l-3.512 5.018a.501.501 0 1 0 .822.576l3.513-5.018a.501.501 0 0 0-.123-.699z"/><path id="l" d="M837.588 1282.752l-.702-1.003a.502.502 0 0 0-.822.574l.702 1.004a.5.5 0 1 0 .822-.575z"/><path id="m" d="M844.29 1276.607a.502.502 0 0 0-.7.123l-7.024 10.036a.501.501 0 0 0 .822.576l7.025-10.036a.501.501 0 0 0-.123-.699z"/><path id="n" d="M847.926 1281.748l-3.513-5.018a.502.502 0 1 0-.823.576l3.513 5.018a.503.503 0 0 0 .823-.576z"/><path id="o" d="M833.966 1277.52a1.507 1.507 0 0 1 0-3.011 1.507 1.507 0 0 1 0 3.011zm0-4.015a2.512 2.512 0 0 0-2.509 2.51 2.512 2.512 0 0 0 2.509 2.508 2.512 2.512 0 0 0 2.509-2.509 2.512 2.512 0 0 0-2.51-2.509z"/><path id="p" d="M821.923 1279.527a.502.502 0 0 0-.502.502v2.007a.502.502 0 1 0 1.004 0v-2.007a.502.502 0 0 0-.502-.502z"/><path id="q" d="M854.038 1279.527a.501.501 0 0 0-.502.502v2.007a.501.501 0 1 0 1.004 0v-2.007a.501.501 0 0 0-.502-.502z"/></defs><use fill="#07b1e8" xlink:href="#a" transform="translate(-821 -1234)"/><use fill="#07b1e8" xlink:href="#b" transform="translate(-821 -1234)"/><use fill="#07b1e8" xlink:href="#c" transform="translate(-821 -1234)"/><use fill="#07b1e8" xlink:href="#d" transform="translate(-821 -1234)"/><use fill="#07b1e8" xlink:href="#e" transform="translate(-821 -1234)"/><use fill="#07b1e8" xlink:href="#f" transform="translate(-821 -1234)"/><use fill="#07b1e8" xlink:href="#g" transform="translate(-821 -1234)"/><use fill="#07b1e8" xlink:href="#h" transform="translate(-821 -1234)"/><use fill="#07b1e8" xlink:href="#i" transform="translate(-821 -1234)"/><use fill="#07b1e8" xlink:href="#j" transform="translate(-821 -1234)"/><use fill="#07b1e8" xlink:href="#k" transform="translate(-821 -1234)"/><use fill="#07b1e8" xlink:href="#l" transform="translate(-821 -1234)"/><use fill="#07b1e8" xlink:href="#m" transform="translate(-821 -1234)"/><use fill="#07b1e8" xlink:href="#n" transform="translate(-821 -1234)"/><use fill="#07b1e8" xlink:href="#o" transform="translate(-821 -1234)"/><use fill="#07b1e8" xlink:href="#p" transform="translate(-821 -1234)"/><use fill="#07b1e8" xlink:href="#q" transform="translate(-821 -1234)"/></svg>