<svg xmlns="http://www.w3.org/2000/svg" xmlns:xlink="http://www.w3.org/1999/xlink" width="22" height="22" viewBox="0 0 22 22"><defs><path id="a" d="M735.422 1672.597c0 .455-.37.825-.825.825h-5.053a.826.826 0 0 1-.825-.825v-5.053c0-.455.37-.825.825-.825h5.053c.455 0 .825.37.825.825zm-.825-7.597h-5.053a2.547 2.547 0 0 0-2.544 2.544v5.053a2.547 2.547 0 0 0 2.544 2.544h5.053a2.547 2.547 0 0 0 2.544-2.544v-5.053a2.547 2.547 0 0 0-2.544-2.544z"/><path id="b" d="M747.281 1672.563a.86.86 0 0 1-.86.859h-4.983a.86.86 0 0 1-.86-.86v-4.984a.86.86 0 0 1 .86-.86h4.984a.86.86 0 0 1 .86.86zm-.86-7.563h-4.983a2.581 2.581 0 0 0-2.579 2.578v4.985a2.581 2.581 0 0 0 2.579 2.578h4.984a2.581 2.581 0 0 0 2.578-2.578v-4.985a2.581 2.581 0 0 0-2.578-2.578z"/><path id="c" d="M735.422 1684.456c0 .455-.37.825-.825.825h-5.053a.826.826 0 0 1-.825-.825v-5.053c0-.455.37-.825.825-.825h5.053c.455 0 .825.37.825.825zm-.825-7.597h-5.053a2.547 2.547 0 0 0-2.544 2.544v5.053a2.547 2.547 0 0 0 2.544 2.544h5.053a2.547 2.547 0 0 0 2.544-2.544v-5.053a2.547 2.547 0 0 0-2.544-2.544z"/><path id="d" d="M747.281 1684.422a.86.86 0 0 1-.86.86h-4.983a.86.86 0 0 1-.86-.86v-4.984a.86.86 0 0 1 .86-.86h4.984a.86.86 0 0 1 .86.86zm-.86-7.563h-4.983a2.581 2.581 0 0 0-2.579 2.579v4.984a2.581 2.581 0 0 0 2.579 2.578h4.984a2.581 2.581 0 0 0 2.578-2.578v-4.984a2.581 2.581 0 0 0-2.578-2.579z"/></defs><use fill="#fff" xlink:href="#a" transform="translate(-727 -1665)"/><use fill="#fff" xlink:href="#b" transform="translate(-727 -1665)"/><use fill="#fff" xlink:href="#c" transform="translate(-727 -1665)"/><use fill="#fff" xlink:href="#d" transform="translate(-727 -1665)"/></svg>