<svg xmlns="http://www.w3.org/2000/svg" xmlns:xlink="http://www.w3.org/1999/xlink" width="59" height="54" viewBox="0 0 59 54"><defs><path id="a" d="M862.108 792.73a.986.986 0 0 1-.847.977l-.273.037-22.51 3.104v-1.42a2.954 2.954 0 0 0-2.954-2.953h-1.969a2.954 2.954 0 0 0-2.953 2.954v1.42l-22.782-3.142a.985.985 0 0 1-.848-.976v-21.916c0-.544.441-.985.985-.985h53.166c.544 0 .985.441.985.985zm-25.6 8.606c0 .544-.44.985-.984.985h-1.969a.985.985 0 0 1-.984-.985v-5.907c0-.544.44-.985.984-.985h1.97c.543 0 .984.441.984.985zm23.63 7.877c0 .543-.44.984-.984.984h-49.228a.985.985 0 0 1-.985-.984v-13.364l21.66 2.987v2.5a2.954 2.954 0 0 0 2.954 2.954h1.97a2.954 2.954 0 0 0 2.953-2.954v-2.5l21.66-2.987zm-17.722-41.352h-15.753v-2.954h15.753zm-19.691-3.938a2.954 2.954 0 0 1 2.954-2.954H843.4a2.954 2.954 0 0 1 2.954 2.954v3.938h-1.97v-3.938a.985.985 0 0 0-.984-.985h-17.722a.985.985 0 0 0-.985.985v3.938h-1.969zm38.398 3.938h-12.8v-3.938a4.929 4.929 0 0 0-4.922-4.923h-17.722a4.929 4.929 0 0 0-4.923 4.923v3.938h-12.8a2.954 2.954 0 0 0-2.953 2.954v21.916a2.967 2.967 0 0 0 1.969 2.78v13.702a2.954 2.954 0 0 0 2.954 2.953h49.228a2.954 2.954 0 0 0 2.954-2.953v-13.701a2.968 2.968 0 0 0 1.969-2.781v-21.916a2.954 2.954 0 0 0-2.954-2.954z"/></defs><use fill="#07b1e8" xlink:href="#a" transform="translate(-805 -759)"/></svg>