<svg xmlns="http://www.w3.org/2000/svg" xmlns:xlink="http://www.w3.org/1999/xlink" width="61" height="52" viewBox="0 0 61 52"><defs><path id="a" d="M475.716 811.233l-13.047-5.218v-40.9l13.047 6.089zm-27.097-41.01l12.043-5.161v40.97l-12.043 5.16zm-14.05-5.16l12.043 5.161v40.969l-12.043-5.161zm-15.054 5.178l13.047-5.218v40.992l-13.047 5.218zm57.629-.585l-15.054-7.025c-.015-.007-.032-.009-.047-.015a1.005 1.005 0 0 0-.129-.041.883.883 0 0 0-.244-.031c-.037 0-.074 0-.11.004-.044.004-.085.014-.127.024-.04.01-.08.02-.12.034-.014.005-.029.006-.043.012l-13.655 5.852-13.654-5.852c-.01-.004-.018-.004-.027-.008-.04-.016-.082-.025-.123-.035-.038-.01-.076-.021-.115-.027-.042-.005-.083-.004-.126-.004-.039 0-.077-.003-.115.002-.043.005-.085.017-.127.027-.038.009-.075.016-.11.029-.009.003-.018.003-.026.007l-15.053 6.021c-.38.153-.63.521-.63.932v43.153a1.005 1.005 0 0 0 1.376.933l14.668-5.867 13.668 5.857c.014.006.03.003.043.009a1 1 0 0 0 .352.072c.12 0 .24-.03.353-.072.014-.005.029-.003.043-.01l13.668-5.856 14.668 5.867a1.003 1.003 0 0 0 1.375-.933v-42.15c0-.39-.226-.744-.58-.909z"/></defs><use fill="#07b1e8" xlink:href="#a" transform="translate(-417 -762)"/></svg>