<svg xmlns="http://www.w3.org/2000/svg" xmlns:xlink="http://www.w3.org/1999/xlink" width="60" height="40" viewBox="0 0 60 40"><defs><path id="a" d="M1006.59 571h58.442v37.562h-58.442z"/><path id="b" d="M1031.992 599.542l5.367-3.597.223-.267 5.49-12.072 4.444-.635-6.17 16.604-4.399 2.74-8.484-2.74-1.85-1.213 4.877 1.269zm-1.492-9.733l5.467-9.31.869.88-4.611 8.475zm14.91-11.37l1.793 3.307-3.517.502zm-12.26 12.35l6.493-11.927 4.765-1.247-7.894 17.383-4.99 3.341-7.772-2.027.133-2.605 8.306-12.907 2.54-.657-5.858 9.955.535.947 3.174.067zm5.912-13.074l-.4.312-1.203 2.205-1.58-1.693-4.233 1.103-.378.278-8.52 13.24-.1.313-.078 3.875 5.268 3.319.156.078 8.842 2.862.523-.067 4.834-3.007.256-.323 6.604-17.784-3.219-6.482z"/></defs><g fill="#fff" transform="translate(-1006 -570)"><use xlink:href="#a"/><use fill-opacity="0" stroke="#13599f" stroke-miterlimit="50" xlink:href="#a"/></g><use fill="#13599f" xlink:href="#b" transform="translate(-1006 -570)"/></svg>