<svg xmlns="http://www.w3.org/2000/svg" xmlns:xlink="http://www.w3.org/1999/xlink" width="60" height="55" viewBox="0 0 60 55"><defs><path id="a" d="M1245.795 464.131v-5.398a1.163 1.163 0 0 0-2.326 0v34.249h-34.563v-34.249a1.163 1.163 0 0 0-2.327 0v5.41l-7.154-7.248 11.075-9.911 7.282-2.63a8.574 8.574 0 0 0 16.834 0l7.282 2.63 11.04 9.911zm9.756-8.113a1.165 1.165 0 0 0-.042-.042l-12.238-10.877a1.163 1.163 0 0 0-.384-.233l-8.853-3.164a1.163 1.163 0 0 0-1.559 1.035c0 .256-.384 6.154-6.282 6.247-5.933-.093-6.305-5.99-6.317-6.247a1.163 1.163 0 0 0-1.547-1.035l-8.841 3.2c-.142.051-.272.13-.384.232l-12.157 10.842a1.163 1.163 0 0 0 0 1.687l9.679 9.784v26.756c0 .643.52 1.164 1.163 1.164h36.878c.642 0 1.163-.521 1.163-1.164v-26.756l9.68-9.784a1.163 1.163 0 0 0 .041-1.645z"/></defs><use fill="#07b1e8" xlink:href="#a" transform="translate(-1196 -441)"/></svg>