<svg xmlns="http://www.w3.org/2000/svg" xmlns:xlink="http://www.w3.org/1999/xlink" width="57" height="50" viewBox="0 0 57 50"><defs><path id="a" d="M862.022 947.163l-.017.001h-.81v-1.655h.827a.828.828 0 0 1 0 1.654zm.827 12.419a.828.828 0 0 1-.827.827h-11.147l-3.863-5.794 3.863-5.795h11.147l.034-.002c.278-.004.545-.053.793-.141v10.905zm-3.31-22.031a5.222 5.222 0 0 0-3.587-1.425h-42.716a3.591 3.591 0 0 1-3.588-3.587 3.591 3.591 0 0 1 3.588-3.588h2.251l-.69 2.76h-1.561a.828.828 0 0 0 0 1.657h41.611a.828.828 0 0 0 0-1.656h-6.175l-9.661-2.76h16.94a3.591 3.591 0 0 1 3.588 3.587zm-41.293-12.81l14.607 4.173h.003l9.79 2.798h-26.142zm43.776 19.112h-.827v-11.314a5.249 5.249 0 0 0-5.243-5.243h-22.736l-15.338-4.383-.013-.003c-.005 0-.01-.003-.014-.004l-.027-.005-.043-.009-.039-.005a.78.78 0 0 0-.044-.004h-.083l-.034.002a.736.736 0 0 0-.047.005l-.032.006a.764.764 0 0 0-.047.01l-.03.007a.923.923 0 0 0-.122.045l-.024.012a.743.743 0 0 0-.046.025l-.023.014a.76.76 0 0 0-.043.03l-.022.016a.806.806 0 0 0-.04.033l-.022.02a.894.894 0 0 0-.035.034l-.021.024a.82.82 0 0 0-.03.037c-.008.009-.014.018-.021.028a.761.761 0 0 0-.026.037l-.019.033a.76.76 0 0 0-.02.038l-.017.037a.749.749 0 0 0-.016.038l-.014.041-.01.027-.002.013-.004.013-.947 3.788h-2.665a5.249 5.249 0 0 0-5.243 5.225v28.716a.829.829 0 0 0 1.655 0v-24.88a5.223 5.223 0 0 0 3.588 1.425h42.719a3.591 3.591 0 0 1 3.584 3.587v5.795h-9.109a.815.815 0 0 0-.15.015c-.003 0-.007 0-.011.002a.829.829 0 0 0-.064.016l-.014.003a.857.857 0 0 0-.055.02l-.021.008-.045.02-.029.014-.033.02-.037.022-.023.017c-.014.01-.028.02-.042.032l-.017.015-.042.039-.023.025-.032.035a.834.834 0 0 0-.049.066l-4.415 6.623a.814.814 0 0 0-.077.146.645.645 0 0 0-.02.057l-.007.018a.825.825 0 0 0-.015.061l-.004.017a.805.805 0 0 0-.008.055l-.004.024-.002.046-.002.035.002.035c0 .015 0 .031.002.047l.003.023.009.056.004.016.015.062c.002.006.005.011.006.017l.02.058c.022.05.048.1.079.146l4.414 6.622a.854.854 0 0 0 .059.076l.02.023a.824.824 0 0 0 .12.108l.024.017c.025.017.05.033.077.047l.02.01a.797.797 0 0 0 .156.058l.027.007a.51.51 0 0 0 .068.013l.025.004a.835.835 0 0 0 .087.005h9.113v5.796a3.591 3.591 0 0 1-3.587 3.587h-42.716a3.591 3.591 0 0 1-3.587-3.587v-3.313a.829.829 0 0 0-1.657 0v3.313l.002.025a5.249 5.249 0 0 0 5.242 5.218h42.716a5.249 5.249 0 0 0 5.243-5.242v-5.797h.827a2.486 2.486 0 0 0 2.483-2.483v-13.246a2.486 2.486 0 0 0-2.483-2.483z"/><path id="b" d="M853.743 955.995c-.76 0-1.38-.62-1.38-1.38 0-.76.62-1.38 1.38-1.38.761 0 1.38.62 1.38 1.38 0 .76-.619 1.38-1.38 1.38zm0-4.416a3.039 3.039 0 0 0-3.035 3.036 3.039 3.039 0 0 0 3.035 3.035 3.039 3.039 0 0 0 3.036-3.035 3.039 3.039 0 0 0-3.036-3.036z"/></defs><use fill="#07b1e8" xlink:href="#a" transform="translate(-808 -923)"/><use fill="#07b1e8" xlink:href="#b" transform="translate(-808 -923)"/></svg>