<svg xmlns="http://www.w3.org/2000/svg" xmlns:xlink="http://www.w3.org/1999/xlink" width="42" height="50" viewBox="0 0 42 50"><defs><path id="a" d="M1244.734 611.006c-.642 3.948-2.786 7.523-5.9 9.984.793-2.902 1.21-6.075 1.21-9.35v-2.09h3.429c.377 0 .734.165.978.453.242.284.342.64.283 1.003zm-6.96.633c0 5.594-1.285 10.837-3.617 14.762-2.223 3.74-5.114 5.8-8.141 5.8-3.028 0-5.919-2.06-8.142-5.8-2.332-3.925-3.617-9.168-3.617-14.761v-5.433c0-.075.061-.135.136-.135h23.245c.075 0 .136.06.136.135zm-14.917 27.648zm.767-1.003a7.386 7.386 0 0 0 1.171-3.897 9.041 9.041 0 0 0 2.548-.015 7.475 7.475 0 0 0 1.95 4.915h-6.436c.28-.31.537-.644.767-1.003zm8.636 3.274v4.073h-12.381v-4.073zm4.378 6.344c.626 0 1.136.51 1.136 1.136v1.553h-23.408v-1.553c0-.626.509-1.136 1.135-1.136zm-29.341-36.896a1.224 1.224 0 0 1 .282-1.003c.245-.288.602-.453.98-.453h3.427v2.09c0 3.275.418 6.448 1.21 9.35-3.113-2.46-5.257-6.035-5.9-9.984zm38.884-2.474a3.55 3.55 0 0 0-2.708-1.253h-3.428v-1.072a2.41 2.41 0 0 0-2.407-2.406h-23.245a2.409 2.409 0 0 0-2.407 2.406v1.072h-3.428a3.55 3.55 0 0 0-2.708 1.253 3.507 3.507 0 0 0-.795 2.838c.901 5.539 4.387 10.432 9.333 13.116a24.224 24.224 0 0 0 1.534 3.075c1.821 3.064 4.085 5.181 6.576 6.205.253 2.553-1.446 4.972-4.005 5.548l-.014.005c-.5.12-.871.567-.871 1.103v5.21h-2.107a3.41 3.41 0 0 0-3.406 3.406v2.688c0 .627.508 1.136 1.135 1.136h25.68c.626 0 1.135-.509 1.135-1.136v-2.688a3.41 3.41 0 0 0-3.407-3.407h-2.107v-5.209a1.136 1.136 0 0 0-.887-1.108c-2.578-.58-4.28-3.023-4-5.595 2.447-1.04 4.671-3.14 6.465-6.158a24.215 24.215 0 0 0 1.534-3.075c4.947-2.684 8.432-7.577 9.333-13.116a3.507 3.507 0 0 0-.795-2.838z"/><path id="b" d="M1228.13 617.83c-.268.26-.39.636-.327 1.005l.297 1.733-1.556-.818a1.134 1.134 0 0 0-1.057 0l-1.557.818.298-1.733a1.135 1.135 0 0 0-.327-1.005l-1.26-1.228 1.741-.253c.37-.054.69-.286.855-.621l.778-1.577.779 1.577c.165.335.485.567.855.621l1.74.253zm4.779-2.372a1.136 1.136 0 0 0-.917-.772l-3.426-.498-1.532-3.105a1.136 1.136 0 0 0-2.037 0l-1.532 3.105-3.426.498a1.135 1.135 0 0 0-.63 1.936l2.48 2.417-.586 3.413a1.135 1.135 0 0 0 1.648 1.197l3.064-1.611 3.065 1.61a1.135 1.135 0 0 0 1.647-1.196l-.585-3.413 2.48-2.417c.31-.301.42-.753.287-1.164z"/></defs><use fill="#07b1e8" xlink:href="#a" transform="translate(-1205 -603)"/><use fill="#07b1e8" xlink:href="#b" transform="translate(-1205 -603)"/></svg>