<svg xmlns="http://www.w3.org/2000/svg" xmlns:xlink="http://www.w3.org/1999/xlink" width="35" height="35" viewBox="0 0 35 35"><defs><path id="a" d="M1520.988 2961.996a15.856 15.856 0 0 1-11.25 4.655 15.856 15.856 0 0 1-11.25-4.655 15.864 15.864 0 0 1-4.663-11.26c0-4.395 1.778-8.371 4.664-11.248a15.864 15.864 0 0 1 11.25-4.664c4.396 0 8.372 1.787 11.25 4.664a15.823 15.823 0 0 1 4.663 11.249c0 4.397-1.778 8.372-4.664 11.259zm.956-23.464a17.2 17.2 0 0 0-12.205-5.056 17.2 17.2 0 0 0-12.206 5.056 17.217 17.217 0 0 0-5.055 12.205 17.2 17.2 0 0 0 5.055 12.205 17.199 17.199 0 0 0 12.206 5.056c4.77 0 9.08-1.93 12.205-5.056a17.2 17.2 0 0 0 5.056-12.205c0-4.76-1.931-9.08-5.056-12.205z"/><path id="b" d="M1519.287 2945.93c-.258-.191-1.185-.191-2.103-.191-.937.019-1.874.019-2.093.105-.2.076-.65 1.166-1.233 2.284-.67 1.262-1.481 2.485-1.998 2.465-.678 0-.515-2.074-.468-3.612.01-1.004-.153-1.329-.296-1.414-.354-.25-1.328-.487-1.328-.487s-2.926-.22-3.336 1.041c.564.077 1.52-.096 1.147 3.813-.029.192-.45 1.797-1.807-.373-.344-.544-1.643-3.803-2.102-3.822-1.502-.03-2.992-.096-3.508.19-.487.288.65 2.524 2.571 5.525 1.558 2.466 3.211 4.378 6.079 4.855.544.058 1.94.115 2.39-.095.295-.144-.077-2.265.945-2.476.45-.086 2.198 2.218 2.857 2.476.403.162 1.282.229 2.18.19.975-.028 2.083.096 2.188-.572.24-1.463-2.952-3.375-3.038-4.273-.077-.65 1.166-1.844 1.796-2.762.783-1.109 1.644-2.447 1.157-2.867z"/></defs><use xlink:href="#a" transform="translate(-1492 -2933)"/><use xlink:href="#b" transform="translate(-1492 -2933)"/></svg>