<svg xmlns="http://www.w3.org/2000/svg" xmlns:xlink="http://www.w3.org/1999/xlink" width="31" height="26" viewBox="0 0 31 26"><defs><path id="a" d="M712.181 526.07h25.897v-20.88H712.18zm26.415 1.044h-26.932a.52.52 0 0 1-.519-.522v-21.924a.52.52 0 0 1 .519-.522h26.932a.52.52 0 0 1 .518.522v21.924a.52.52 0 0 1-.518.522z"/><path id="b" d="M709.036 522.924h2.072v-18.27a.52.52 0 0 1 .518-.522h23.306v-2.087h-25.896zm2.59 1.044h-3.108a.52.52 0 0 1-.518-.522v-21.923a.52.52 0 0 1 .518-.522h26.932a.52.52 0 0 1 .518.522v3.132a.52.52 0 0 1-.518.521h-23.307v18.27a.52.52 0 0 1-.517.522z"/><path id="c" d="M725.719 526.065h12.346v-2.094l-5.242-5.898zm12.87 1.049h-14.038a.523.523 0 0 1-.391-.872l8.271-9.306a.54.54 0 0 1 .784 0l5.767 6.488c.085.096.132.22.132.348v2.818c0 .29-.235.524-.525.524z"/><path id="d" d="M712.194 526.065h12.463l3.611-4.063-9.783-11.006-6.291 7.077zm12.698 1.049H711.67a.524.524 0 0 1-.525-.524v-8.716c0-.128.048-.252.133-.348l6.815-7.667a.54.54 0 0 1 .784 0l10.485 11.795a.523.523 0 0 1 0 .697l-4.078 4.587a.524.524 0 0 1-.392.176z"/><path id="e" d="M729.249 509.876c-.867 0-1.573.705-1.573 1.572 0 .867.706 1.573 1.573 1.573s1.572-.706 1.572-1.573-.705-1.572-1.572-1.572zm0 4.193a2.624 2.624 0 0 1-2.622-2.62 2.624 2.624 0 0 1 2.622-2.622 2.624 2.624 0 0 1 2.62 2.621 2.624 2.624 0 0 1-2.62 2.621z"/></defs><use fill="#fff" xlink:href="#a" transform="translate(-708 -501)"/><use fill="#fff" xlink:href="#b" transform="translate(-708 -501)"/><use fill="#fff" xlink:href="#c" transform="translate(-708 -501)"/><use fill="#fff" xlink:href="#d" transform="translate(-708 -501)"/><use fill="#fff" xlink:href="#e" transform="translate(-708 -501)"/></svg>