<svg xmlns="http://www.w3.org/2000/svg" xmlns:xlink="http://www.w3.org/1999/xlink" width="46" height="42" viewBox="0 0 46 42"><defs><path id="a" d="M1316.295 609.784v-40.007h44.205v40.007z"/><path id="b" d="M1334.336 600.177l5.715-3.832.238-.284 5.848-12.857 4.732-.676-6.572 17.684-4.684 2.918-9.037-2.918-1.97-1.293 5.195 1.352zm-1.59-10.367l5.822-9.915.926.937-4.898 9.026zm15.88-12.11l1.911 3.523-3.748.534zm-13.058 13.154l6.914-12.703 5.079-1.328-8.41 18.514-5.303 3.559-8.291-2.16.156-2.775 8.834-13.746 2.705-.7-6.238 10.603.568 1.009 3.38.07zm6.3-13.925l-.417.332-1.281 2.349-1.695-1.803-4.508 1.174-.39.297-9.087 14.102-.107.332-.082 4.128 5.61 3.535.165.083 9.418 3.048.57-.071 5.135-3.203.272-.344 7.035-18.941-3.428-6.904z"/></defs><g fill="#fff" transform="translate(-1315 -569)"><use xlink:href="#a"/><use fill-opacity="0" stroke="#13599f" stroke-miterlimit="50" xlink:href="#a"/></g><use fill="#13599f" xlink:href="#b" transform="translate(-1315 -569)"/></svg>