<svg xmlns="http://www.w3.org/2000/svg" xmlns:xlink="http://www.w3.org/1999/xlink" width="72" height="43" viewBox="0 0 72 43"><defs><path id="a" d="M767.038 661.777c19.088 0 34.563 9.156 34.563 20.45 0 11.294-15.475 20.45-34.563 20.45-19.089 0-34.563-9.156-34.563-20.45 0-11.294 15.474-20.45 34.563-20.45z"/><path id="b" d="M763.509 691.248l4.958-3.322.206-.247 5.071-11.15 4.105-.588-5.7 15.338-4.062 2.53-7.839-2.53-1.707-1.12 4.505 1.171zm-1.378-8.99l5.06-8.6.803.813-4.259 7.828zm13.783-10.503l1.656 3.056-3.26.462zm-11.336 11.408l5.998-11.017 4.403-1.152-7.293 16.058-4.598 3.086-7.192-1.873.135-2.408 7.673-11.921 2.335-.607-5.4 9.196.484.874 2.941.062zm5.463-12.076l-.36.287-1.11 2.037-1.471-1.563-3.91 1.018-.34.246-7.88 12.241-.091.29-.072 3.579 4.865 3.065.144.072 8.178 2.644.484-.062 4.454-2.777.236-.299 6.11-16.428-2.983-5.986z"/></defs><g fill="#fff" transform="translate(-731 -661)"><use xlink:href="#a"/><use fill-opacity="0" stroke="#13599f" stroke-miterlimit="50" xlink:href="#a"/></g><use fill="#13599f" xlink:href="#b" transform="translate(-731 -661)"/></svg>