<svg xmlns="http://www.w3.org/2000/svg" xmlns:xlink="http://www.w3.org/1999/xlink" width="55" height="62" viewBox="0 0 55 62"><defs><path id="dmk8a" d="M478.223 975.71a1.014 1.014 0 0 1-.811.406h-32.173l-1.442-34.61-.417-10.002h25.246c.507 9.615 7.548 35.417 9.762 43.332a1 1 0 0 1-.165.874zm-49.628.356a.387.387 0 0 1-.42-.024.34.34 0 0 1-.151-.342l6.528-47.008c.026.032.056.062.081.095.102.129.208.252.318.373.059.064.115.131.177.194.137.141.282.275.431.406.04.035.076.073.117.106.191.16.392.31.6.447.055.038.115.07.172.102.156.101.314.191.477.278.08.042.165.08.248.119.146.069.294.135.445.195.091.036.184.068.277.101.152.053.304.102.463.142.095.026.188.052.283.073.17.038.345.068.52.093.083.014.167.03.25.039.266.031.533.048.8.05h1.14l1.824 43.671c-6.092-3.46-11.95-.458-14.58.89zm11.616-56.728a5.07 5.07 0 1 1 0 10.139 5.07 5.07 0 0 1 0-10.14zm4.963 0h24.44a5.07 5.07 0 0 1 0 10.139h-24.44l.027-.03c.08-.079.153-.165.23-.247.075-.082.16-.168.234-.259.073-.09.14-.181.208-.273.07-.093.14-.18.203-.274.063-.094.125-.203.187-.304.062-.101.12-.188.173-.286.054-.098.108-.217.16-.326.053-.11.102-.196.143-.298.042-.101.089-.234.13-.352.038-.1.08-.202.113-.304.04-.13.07-.262.1-.395.026-.101.055-.19.075-.288.032-.155.052-.315.074-.474.01-.079.027-.155.036-.234.05-.485.05-.974 0-1.46-.009-.079-.026-.155-.036-.234-.022-.158-.042-.318-.074-.474-.02-.1-.05-.191-.074-.287-.033-.133-.063-.267-.101-.396-.033-.101-.075-.203-.112-.304-.042-.118-.082-.237-.13-.352-.05-.114-.096-.202-.143-.297-.048-.094-.102-.221-.161-.326-.059-.106-.116-.191-.173-.285-.058-.095-.12-.203-.187-.304-.066-.102-.137-.184-.203-.275a5.247 5.247 0 0 0-.208-.273c-.073-.088-.156-.172-.235-.259-.078-.086-.149-.168-.229-.247-.01-.002-.018-.013-.027-.022zm25.48 12.081a7.098 7.098 0 0 0-1.04-14.109H440.21a7.097 7.097 0 0 0-7.091 6.984l-7.098 51.13c-.12.883.26 1.76.988 2.274.74.522 1.71.588 2.515.173 2.749-1.408 8.468-4.34 14.124.059a.96.96 0 0 0 .149.08c.038.024.077.045.118.064.111.044.23.068.35.07h33.145a3.042 3.042 0 0 0 2.93-3.853c-2.2-7.874-9.21-33.554-9.687-42.871z"/><path id="dmk8b" d="M448.302 940.63h16.263a1.014 1.014 0 0 0 0-2.028h-16.263a1.014 1.014 0 1 0 0 2.028z"/><path id="dmk8c" d="M464.524 942.657h-12.126a1.014 1.014 0 0 0 0 2.028h12.126a1.014 1.014 0 1 0 0-2.028z"/><path id="dmk8d" d="M451.344 936.574h8.151a1.014 1.014 0 1 0 0-2.028h-8.151a1.014 1.014 0 1 0 0 2.028z"/></defs><g><g transform="translate(-426 -917)"><g><use fill="#07b1e8" xlink:href="#dmk8a"/></g><g><use fill="#07b1e8" xlink:href="#dmk8b"/></g><g><use fill="#07b1e8" xlink:href="#dmk8c"/></g><g><use fill="#07b1e8" xlink:href="#dmk8d"/></g></g></g></svg>