<svg xmlns="http://www.w3.org/2000/svg" xmlns:xlink="http://www.w3.org/1999/xlink" width="57" height="52" viewBox="0 0 57 52"><defs><path id="88yra" d="M1217.645 772.992h-16.05v-2.198h16.05zm1.099-4.397h-18.248a1.1 1.1 0 0 0-1.099 1.1v4.397a1.1 1.1 0 0 0 1.1 1.099h18.247a1.1 1.1 0 0 0 1.1-1.1v-4.396a1.1 1.1 0 0 0-1.1-1.1z"/><path id="88yrb" d="M1218.744 778.269h-18.248a1.1 1.1 0 0 0 0 2.198h18.248a1.1 1.1 0 0 0 0-2.198z"/><path id="88yrc" d="M1218.744 782.666h-18.248a1.1 1.1 0 0 0 0 2.198h18.248a1.1 1.1 0 0 0 0-2.198z"/><path id="88yrd" d="M1217.645 801.573h-14.495l3.997-3.996 2.08 2.08a1.1 1.1 0 0 0 1.555 0l6.863-6.862zm-16.05-10.992h15.154l-6.744 6.744-2.081-2.08a1.1 1.1 0 0 0-1.555 0l-4.774 4.773zm-1.099-2.199a1.1 1.1 0 0 0-1.099 1.1v13.19a1.1 1.1 0 0 0 1.1 1.1h18.247a1.1 1.1 0 0 0 1.1-1.1v-13.19a1.1 1.1 0 0 0-1.1-1.1z"/><path id="88yre" d="M1249.097 807.282h-21.552a5.475 5.475 0 0 0-3.291 1.096v-40.875c0-.074-.003-.148-.006-.222a3.309 3.309 0 0 1 3.297-3.082h21.552zm-.014 4.404h-24.654a3.31 3.31 0 0 1 3.116-2.205h21.538zm-27.041-44.183v40.874a5.476 5.476 0 0 0-3.291-1.095h-21.553V764.2h21.553a3.308 3.308 0 0 1 3.296 3.082 5.522 5.522 0 0 0-.005.222zm28.154-5.503h-22.651a5.498 5.498 0 0 0-4.397 2.198 5.498 5.498 0 0 0-4.397-2.198h-22.652a1.1 1.1 0 0 0-1.099 1.1v49.686a1.1 1.1 0 0 0 1.1 1.099h5.056a1.1 1.1 0 0 0 0-2.199h-3.958v-2.205h21.553a3.31 3.31 0 0 1 3.116 2.205h-9.829a1.1 1.1 0 0 0 0 2.199h38.144a1.1 1.1 0 0 0 1.1-1.1l.014-49.686a1.1 1.1 0 0 0-1.1-1.099z"/><path id="88yrf" d="M1245.8 788.382h-18.248a1.1 1.1 0 0 0 0 2.199h18.247a1.1 1.1 0 0 0 0-2.199z"/><path id="88yrg" d="M1245.8 792.78h-18.248a1.1 1.1 0 0 0 0 2.197h18.247a1.1 1.1 0 0 0 0-2.198z"/><path id="88yrh" d="M1245.8 797.176h-18.248a1.1 1.1 0 0 0 0 2.199h18.247a1.1 1.1 0 0 0 0-2.199z"/><path id="88yri" d="M1245.8 801.573h-18.248a1.1 1.1 0 0 0 0 2.198h18.247a1.1 1.1 0 0 0 0-2.198z"/><path id="88yrj" d="M1237.445 768.918a1.105 1.105 0 0 0-.777-.323c-.289 0-.573.118-.777.323a1.108 1.108 0 0 0-.322.777c0 .289.118.572.322.777.206.204.488.322.777.322a1.102 1.102 0 0 0 .777-1.876z"/><path id="88yrk" d="M1245.8 768.595h-4.082a1.1 1.1 0 0 0 0 2.199h2.982v10.992h-16.049v-10.992h2.954a1.1 1.1 0 0 0 0-2.199h-4.053a1.1 1.1 0 0 0-1.1 1.1v13.19a1.1 1.1 0 0 0 1.1 1.1h18.247a1.1 1.1 0 0 0 1.1-1.1v-13.19a1.1 1.1 0 0 0-1.1-1.1z"/><path id="88yrl" d="M1207.465 812.008a1.107 1.107 0 0 0-.777-.322c-.289 0-.572.118-.777.322a1.108 1.108 0 0 0-.322.777c0 .29.118.573.322.777.205.205.488.323.777.323a1.102 1.102 0 0 0 .777-1.876z"/></defs><g><g transform="translate(-1195 -762)"><g><g><g><use fill="#07b1e8" xlink:href="#88yra"/></g></g></g><g><g><g><use fill="#07b1e8" xlink:href="#88yrb"/></g></g></g><g><g><g><use fill="#07b1e8" xlink:href="#88yrc"/></g></g></g><g><g><g><use fill="#07b1e8" xlink:href="#88yrd"/></g></g></g><g><g><g><use fill="#07b1e8" xlink:href="#88yre"/></g></g></g><g><g><g><use fill="#07b1e8" xlink:href="#88yrf"/></g></g></g><g><g><g><use fill="#07b1e8" xlink:href="#88yrg"/></g></g></g><g><g><g><use fill="#07b1e8" xlink:href="#88yrh"/></g></g></g><g><g><g><use fill="#07b1e8" xlink:href="#88yri"/></g></g></g><g><g><g><use fill="#07b1e8" xlink:href="#88yrj"/></g></g></g><g><g><g><use fill="#07b1e8" xlink:href="#88yrk"/></g></g></g><g><g><g><use fill="#07b1e8" xlink:href="#88yrl"/></g></g></g></g></g></svg>