<svg xmlns="http://www.w3.org/2000/svg" xmlns:xlink="http://www.w3.org/1999/xlink" width="52" height="49" viewBox="0 0 52 49"><defs><path id="hmiza" d="M1212.289 1258.22c-7.46 0-13.53 6.07-13.53 13.53 0 7.46 6.07 13.53 13.53 13.53 7.46 0 13.53-6.07 13.53-13.53 0-7.46-6.07-13.53-13.53-13.53zm0 28.75c-8.392 0-15.22-6.827-15.22-15.22s6.828-15.22 15.22-15.22 15.22 6.827 15.22 15.22-6.828 15.22-15.22 15.22z"/><path id="hmizb" d="M1211.443 1253.147h1.692v-.845a.847.847 0 0 0-1.692 0zm2.537 1.691h-3.382a.846.846 0 0 1-.846-.845v-1.691a2.54 2.54 0 0 1 2.537-2.537 2.54 2.54 0 0 1 2.537 2.537v1.69a.846.846 0 0 1-.846.846z"/><path id="hmizc" d="M1212.289 1256.53c.83 0 1.68.075 2.537.224v-1.916h-5.074v1.916a14.852 14.852 0 0 1 2.537-.224zm3.382 2.107a.837.837 0 0 1-.198-.023 13.145 13.145 0 0 0-6.368 0 .847.847 0 0 1-1.044-.822v-3.8c0-.466.379-.845.846-.845h6.764c.467 0 .846.379.846.846v3.8a.845.845 0 0 1-.846.844z"/><path id="hmizd" d="M1212.289 1251.456a.846.846 0 0 1-.846-.846v-6.764a.846.846 0 0 1 1.692 0v6.764a.846.846 0 0 1-.846.846z"/><path id="hmize" d="M1232.583 1258.22h1.691v-.845a.847.847 0 0 0-1.691 0zm2.537 1.692h-3.382a.846.846 0 0 1-.846-.846v-1.691a2.54 2.54 0 0 1 2.537-2.537 2.54 2.54 0 0 1 2.536 2.537v1.691a.846.846 0 0 1-.845.846z"/><path id="hmizf" d="M1233.429 1261.603c.83 0 1.679.075 2.536.224v-1.915h-5.073v1.915a14.844 14.844 0 0 1 2.537-.224zm-3.383 2.108a.847.847 0 0 1-.846-.846v-3.799c0-.466.38-.845.846-.845h6.765c.467 0 .846.379.846.845v3.8a.847.847 0 0 1-1.045.822 13.145 13.145 0 0 0-6.367 0 .895.895 0 0 1-.199.023z"/><path id="hmizg" d="M1233.429 1256.53a.846.846 0 0 1-.846-.846v-11.838a.846.846 0 0 1 1.691 0v11.838a.846.846 0 0 1-.845.846z"/><path id="hmizh" d="M1205.524 1270.059c-1.375 0-2.537.774-2.537 1.691s1.162 1.691 2.537 1.691 2.537-.774 2.537-1.69c0-.918-1.162-1.692-2.537-1.692zm0 5.073c-2.331 0-4.228-1.516-4.228-3.382s1.897-3.382 4.228-3.382c2.331 0 4.228 1.516 4.228 3.382s-1.897 3.382-4.228 3.382z"/><path id="hmizi" d="M1212.289 1270.059c-1.375 0-2.537.774-2.537 1.691s1.162 1.691 2.537 1.691 2.537-.774 2.537-1.69c0-.918-1.162-1.692-2.537-1.692zm0 5.073c-2.331 0-4.228-1.516-4.228-3.382s1.897-3.382 4.228-3.382c2.331 0 4.228 1.516 4.228 3.382s-1.897 3.382-4.228 3.382z"/><path id="hmizj" d="M1219.054 1270.059c-1.375 0-2.537.774-2.537 1.691s1.162 1.691 2.537 1.691 2.536-.774 2.536-1.69c0-.918-1.161-1.692-2.536-1.692zm0 5.073c-2.332 0-4.228-1.516-4.228-3.382s1.896-3.382 4.228-3.382c2.331 0 4.227 1.516 4.227 3.382s-1.896 3.382-4.227 3.382z"/><path id="hmizk" d="M1198.875 1270.06a12.798 12.798 0 0 0-.116 1.69c0 .544.039 1.102.116 1.69 1.325-.043 2.421-.8 2.421-1.69 0-.89-1.096-1.647-2.42-1.69zm-.116 5.072c-.25 0-.492-.021-.73-.054l-.612-.084-.106-.608a15.167 15.167 0 0 1-.243-2.636c0-.841.08-1.703.243-2.636l.106-.607.611-.084a5.36 5.36 0 0 1 .731-.055c2.332 0 4.228 1.516 4.228 3.382 0 1.865-1.896 3.382-4.228 3.382z"/><path id="hmizl" d="M1225.702 1270.06c-1.324.043-2.42.8-2.42 1.69 0 .89 1.096 1.647 2.42 1.69.078-.59.117-1.146.117-1.69s-.039-1.1-.117-1.69zm.117 5.072c-2.332 0-4.229-1.516-4.229-3.382s1.897-3.382 4.229-3.382c.25 0 .492.022.73.054l.612.084.106.608c.163.934.243 1.796.243 2.636 0 .84-.08 1.702-.243 2.636l-.106.607-.611.084c-.239.034-.481.055-.731.055z"/><path id="hmizm" d="M1221.758 1283.65a13.48 13.48 0 0 0 11.67 6.703c7.46 0 13.53-6.07 13.53-13.53 0-7.46-6.07-13.529-13.53-13.529-2.6 0-5.109.741-7.294 2.15a15.011 15.011 0 0 1 1.376 6.306c0 4.625-2.137 9.02-5.752 11.9zm11.67 8.394c-5.706 0-10.884-3.156-13.514-8.238l-.336-.649.593-.426c3.536-2.544 5.648-6.648 5.648-10.98 0-2.175-.51-4.263-1.517-6.206l-.335-.649.592-.426a15.105 15.105 0 0 1 8.87-2.867c8.392 0 15.22 6.828 15.22 15.22 0 8.393-6.828 15.221-15.22 15.221z"/><path id="hmizn" d="M1238.502 1280.206c1.382 0 2.61.666 3.383 1.694a4.225 4.225 0 0 1 3.382-1.694c.405 0 .811.062 1.203.182.324-1.174.488-2.369.488-3.564 0-1.196-.164-2.391-.488-3.565-.392.12-.798.182-1.203.182a4.225 4.225 0 0 1-3.382-1.694 4.225 4.225 0 0 1-6.765 0 4.224 4.224 0 0 1-6.77-.008c-.248.326-.543.62-.88.867a15.274 15.274 0 0 1-2.546 7.6h.049c1.382 0 2.61.666 3.382 1.694a4.224 4.224 0 0 1 6.765 0 4.225 4.225 0 0 1 3.382-1.694zm3.383 5.073a.846.846 0 0 1-.846-.845 2.54 2.54 0 0 0-2.537-2.537 2.54 2.54 0 0 0-2.537 2.537.846.846 0 0 1-1.69 0 2.54 2.54 0 0 0-2.537-2.537 2.54 2.54 0 0 0-2.537 2.537.846.846 0 0 1-1.691 0 2.54 2.54 0 0 0-2.537-2.537 2.54 2.54 0 0 0-2.537 2.537.846.846 0 0 1-1.592.397c-.085-.071-.301-.234-.815-.553a.847.847 0 0 1-.037-1.413 13.578 13.578 0 0 0 5.807-10.75.846.846 0 0 1 .425-.711 2.507 2.507 0 0 0 1.286-2.19.846.846 0 0 1 1.69 0 2.54 2.54 0 0 0 2.538 2.536 2.54 2.54 0 0 0 2.536-2.537.845.845 0 0 1 1.691 0 2.54 2.54 0 0 0 2.537 2.537 2.54 2.54 0 0 0 2.537-2.537.845.845 0 0 1 1.691 0 2.54 2.54 0 0 0 2.537 2.537c.45 0 .885-.124 1.294-.37a.845.845 0 0 1 1.232.448c.569 1.63.856 3.312.856 4.996 0 1.683-.287 3.364-.856 4.994a.842.842 0 0 1-1.232.448 2.497 2.497 0 0 0-1.294-.369 2.54 2.54 0 0 0-2.537 2.537.846.846 0 0 1-.846.845z"/><path id="hmizo" d="M1206.37 1264.985h1.69v-1.691h-1.69zm2.537 1.691h-3.383a.846.846 0 0 1-.845-.845v-3.382c0-.467.378-.846.845-.846h3.383c.466 0 .845.379.845.846v3.382a.846.846 0 0 1-.845.845z"/><path id="hmizp" d="M1214.826 1280.206h1.691v-1.691h-1.691zm2.536 1.691h-3.382a.846.846 0 0 1-.845-.846v-3.382c0-.467.378-.845.845-.845h3.382c.467 0 .846.378.846.845v3.382a.846.846 0 0 1-.846.846z"/></defs><g><g transform="translate(-1197 -1243)"><g><use fill="#07b1e8" xlink:href="#hmiza"/></g><g><use fill="#07b1e8" xlink:href="#hmizb"/></g><g><use fill="#07b1e8" xlink:href="#hmizc"/></g><g><use fill="#07b1e8" xlink:href="#hmizd"/></g><g><use fill="#07b1e8" xlink:href="#hmize"/></g><g><use fill="#07b1e8" xlink:href="#hmizf"/></g><g><use fill="#07b1e8" xlink:href="#hmizg"/></g><g><use fill="#07b1e8" xlink:href="#hmizh"/></g><g><use fill="#07b1e8" xlink:href="#hmizi"/></g><g><use fill="#07b1e8" xlink:href="#hmizj"/></g><g><use fill="#07b1e8" xlink:href="#hmizk"/></g><g><use fill="#07b1e8" xlink:href="#hmizl"/></g><g><use fill="#07b1e8" xlink:href="#hmizm"/></g><g><use fill="#07b1e8" xlink:href="#hmizn"/></g><g><use fill="#07b1e8" xlink:href="#hmizo"/></g><g><use fill="#07b1e8" xlink:href="#hmizp"/></g></g></g></svg>