<svg xmlns="http://www.w3.org/2000/svg" xmlns:xlink="http://www.w3.org/1999/xlink" width="51" height="45" viewBox="0 0 51 45"><defs><path id="wb4ba" d="M1247.804 1093.759l.637-1.863c.892-2.607-2.066-4.986-4.422-3.552-.406.247-.909.286-1.347.105-2.251-.93-7.735-2.492-19.172-2.492-2.991 0-5.788.11-8.314.326a.747.747 0 1 0 .128 1.489c2.483-.213 5.237-.32 8.186-.32 3.863 0 13.409.231 18.601 2.377a2.998 2.998 0 0 0 2.695-.209c1.182-.72 2.68.477 2.231 1.793l-.637 1.862a2.996 2.996 0 0 0-.108 1.53c.287 1.505 1.224 6.918 1.224 13.325 0 6.406-.937 11.819-1.224 13.325-.097.51-.06 1.039.108 1.529l.637 1.863c.45 1.315-1.042 2.515-2.23 1.792a2.999 2.999 0 0 0-2.696-.21c-.819.339-2.29.837-4.646 1.29a.746.746 0 1 0 .282 1.468c2.48-.477 4.052-1.012 4.935-1.377a1.5 1.5 0 0 1 1.347.105c2.317 1.41 5.3-.986 4.422-3.552l-.637-1.863a1.501 1.501 0 0 1-.054-.766c.376-1.972 1.25-7.245 1.25-13.604 0-6.36-.874-11.633-1.25-13.605-.05-.256-.03-.521.054-.766z"/><path id="wb4bb" d="M1198 1108.13c0 6.358.874 11.632 1.25 13.604.05.256.03.52-.053.766l-.637 1.863c-.891 2.604 2.064 4.986 4.42 3.552.407-.247.91-.286 1.349-.105 2.25.93 7.735 2.492 19.171 2.492 4.189 0 7.958-.214 11.204-.634a.747.747 0 0 0-.192-1.481c-3.183.411-6.887.62-11.012.62-3.863 0-13.408-.231-18.6-2.377a2.998 2.998 0 0 0-2.696.209c-1.187.722-2.68-.48-2.23-1.793l.636-1.862c.168-.49.206-1.02.108-1.529-.287-1.506-1.224-6.92-1.224-13.325 0-6.407.937-11.82 1.224-13.326.098-.51.06-1.039-.108-1.529l-.637-1.863c-.45-1.313 1.042-2.515 2.23-1.792.812.494 1.82.572 2.696.21 1.005-.416 3.31-1.194 7.46-1.74a.747.747 0 0 0-.194-1.482c-4.104.54-6.526 1.3-7.837 1.84a1.5 1.5 0 0 1-1.347-.104c-2.36-1.437-5.313.948-4.421 3.552l.637 1.863c.084.245.102.51.054.766-.377 1.972-1.251 7.245-1.251 13.605z"/><path id="wb4bc" d="M1212.287 1105.826a.747.747 0 0 0-.747.747v2.03a.747.747 0 1 0 1.494 0v-2.03a.747.747 0 0 0-.747-.747z"/><path id="wb4bd" d="M1235.46 1108.602v-2.029a.747.747 0 1 0-1.494 0v2.03a.747.747 0 0 0 1.494 0z"/><path id="wb4be" d="M1223.5 1110.433c1.294 0 2.508-.54 3.33-1.48a.747.747 0 1 0-1.125-.983c-.538.616-1.342.969-2.205.969s-1.667-.353-2.205-.97a.747.747 0 1 0-1.125.984c.822.94 2.036 1.48 3.33 1.48z"/></defs><g><g transform="translate(-1198 -1086)"><g><use fill="#07b1e8" xlink:href="#wb4ba"/></g><g><use fill="#07b1e8" xlink:href="#wb4bb"/></g><g><use fill="#07b1e8" xlink:href="#wb4bc"/></g><g><use fill="#07b1e8" xlink:href="#wb4bd"/></g><g><use fill="#07b1e8" xlink:href="#wb4be"/></g></g></g></svg>