<svg xmlns="http://www.w3.org/2000/svg" xmlns:xlink="http://www.w3.org/1999/xlink" width="81" height="92" viewBox="0 0 81 92"><defs><path id="a" d="M562.717 637H606v42.151h-41.116l8.922-27.03z"/><path id="b" d="M560.643 647.169a1.95 1.95 0 0 0-1.961 1.96v17.581a1.95 1.95 0 0 0 1.961 1.961 1.95 1.95 0 0 0 1.961-1.961v-17.58c0-1.203-.98-2.073-1.96-1.961zm-15.831 0a1.95 1.95 0 0 0-1.961 1.96v17.581a1.95 1.95 0 0 0 1.96 1.961 1.95 1.95 0 0 0 1.962-1.961v-17.58c0-1.203-.87-1.961-1.961-1.961zm58.735 29.367h-70.31a1.213 1.213 0 0 1-1.203-1.203v-34.826c0-.658.545-1.203 1.203-1.203h70.421c.658 0 1.203.545 1.203 1.203v34.837h-.11v-.008a1.213 1.213 0 0 1-1.204 1.2zm5.237-28.832v-7.208c0-2.84-2.295-5.236-5.237-5.236h-70.31c-2.841 0-5.237 2.295-5.237 5.236v34.827c0 2.84 2.295 5.237 5.237 5.237h70.421c2.841 0 5.237-2.295 5.237-5.237v-8.512z"/><path id="d" d="M569.414 611.69v13.81"/><path id="e" d="M583.223 617.214l-8.285 8.286"/><path id="f" d="M554.5 617.214l8.286 8.286"/><path id="g" d="M569.414 702.5v-13.81"/><path id="h" d="M583.224 696.976l-8.286-8.285"/><path id="i" d="M554.5 696.976l8.286-8.285"/><clipPath id="c"><use fill="#fff" xlink:href="#a"/></clipPath></defs><use fill="#07b1e8" xlink:href="#b" transform="translate(-528 -611)"/><g fill="#fff" transform="translate(-528 -611)"><use xlink:href="#a"/><use fill-opacity="0" stroke="#07b1e8" stroke-miterlimit="50" stroke-width="2" clip-path="url(&quot;#c&quot;)" xlink:href="#a"/></g><text fill="#07b1e8" style="line-height:30px;font-kerning:normal" dominant-baseline="text-before-edge" font-family="'Roboto','Roboto-Medium'" font-size="16" transform="translate(50 37)"><tspan>Aa</tspan></text><use fill="#fff" fill-opacity="0" stroke="#07b1e8" stroke-miterlimit="50" stroke-width="2" xlink:href="#d" transform="translate(-528 -611)"/><use fill="#fff" fill-opacity="0" stroke="#07b1e8" stroke-miterlimit="50" stroke-width="2" xlink:href="#e" transform="translate(-528 -611)"/><use fill="#fff" fill-opacity="0" stroke="#07b1e8" stroke-miterlimit="50" stroke-width="2" xlink:href="#f" transform="translate(-528 -611)"/><g fill="#fff" fill-opacity="0" stroke="#07b1e8" stroke-miterlimit="50" stroke-width="2" transform="translate(-528 -611)"><use xlink:href="#g"/><use xlink:href="#h"/><use xlink:href="#i"/></g></svg>