<svg xmlns="http://www.w3.org/2000/svg" xmlns:xlink="http://www.w3.org/1999/xlink" width="56" height="56" viewBox="0 0 56 56"><defs><path id="8cb1a" d="M468.653 1107.721a7.391 7.391 0 1 1-7.391 7.391 7.4 7.4 0 0 1 7.391-7.391zm-9.24 7.391a9.24 9.24 0 1 0 9.24-9.239 9.25 9.25 0 0 0-9.24 9.24z"/><path id="8cb1b" d="M463.374 1133.59h10.56v1.848h-10.56z"/><path id="8cb1c" d="M459.414 1129.895h18.478v1.848h-18.478z"/><path id="8cb1d" d="M439.088 1129.895h1.848v1.848h-1.848z"/><path id="8cb1e" d="M433.545 1131.743h1.847v1.848h-1.847z"/><path id="8cb1f" d="M434.141 1103.588a7.174 7.174 0 0 1 1.827-7.058l.882-.883a7.062 7.062 0 0 1 5.01-2.062c.693 0 1.382.1 2.047.294zm2.473-14.664h1.247a7.167 7.167 0 0 1 5.846 3.012 9.014 9.014 0 0 0-5.72.684h-7.652a7.174 7.174 0 0 1 6.282-3.696zm5.953-4.969l.882.883c.411.42.768.89 1.062 1.4a8.79 8.79 0 0 0-.706 3.07 9.013 9.013 0 0 0-2.817-1.67l-5.478-5.51a7.176 7.176 0 0 1 7.06 1.827zm5.09.883l.882-.883a7.179 7.179 0 0 1 7.062-1.826l-5.477 5.509a9.011 9.011 0 0 0-4.362 3.423 6.993 6.993 0 0 1 1.897-6.223zm13.119 7.782zm-7.65 0a9.01 9.01 0 0 0-5.723-.683 7.165 7.165 0 0 1 5.84-3.013h1.248a7.174 7.174 0 0 1 6.285 3.696zm3.843 10.968zm-9.762-9.705a7.127 7.127 0 0 1 7.054 1.764l.882.883a7.173 7.173 0 0 1 1.826 7.058zm-8.027 30.813a69.974 69.974 0 0 0 8.89-27.348l8.592 8.542a.922.922 0 0 0 1.473-.242 9.02 9.02 0 0 0-1.692-10.425l-.756-.755h6.499a.923.923 0 0 0 .877-1.217 9.02 9.02 0 0 0-8.57-6.175h-1.2l4.614-4.64a.924.924 0 0 0-.242-1.479 9.023 9.023 0 0 0-10.43 1.692l-.882.882c-.288.29-.555.599-.801.924a8.876 8.876 0 0 0-.794-.924l-.883-.882a9.018 9.018 0 0 0-10.423-1.692.924.924 0 0 0-.242 1.478l4.62 4.641h-1.213a9.02 9.02 0 0 0-8.57 6.175.924.924 0 0 0 .878 1.217h6.492l-.755.756a9.02 9.02 0 0 0-1.693 10.424.924.924 0 0 0 1.478.242l8.001-7.954a50.077 50.077 0 0 1-9.66 24.417 34.473 34.473 0 0 0-3.77-.768l-.578-.059-.185 1.84.539.052c.924.133 1.842.32 2.755.53-.185.233-.37.468-.56.697l1.416 1.185a52.016 52.016 0 0 0 12.087-29.927l1.063-1.056.797.791a67.552 67.552 0 0 1-11.716 32.8l1.513 1.058a62.353 62.353 0 0 0 2.09-3.21 32.77 32.77 0 0 1 11.18 8.759l1.43-1.17a34.51 34.51 0 0 0-6.136-5.828h38.723v-1.848h-41.46a34.06 34.06 0 0 0-2.796-1.503z"/></defs><g><g transform="translate(-428 -1080)"><g><use fill="#07b1e8" xlink:href="#8cb1a"/></g><g><use fill="#07b1e8" xlink:href="#8cb1b"/></g><g><use fill="#07b1e8" xlink:href="#8cb1c"/></g><g><use fill="#07b1e8" xlink:href="#8cb1d"/></g><g><use fill="#07b1e8" xlink:href="#8cb1e"/></g><g><use fill="#07b1e8" xlink:href="#8cb1f"/></g></g></g></svg>