<svg xmlns="http://www.w3.org/2000/svg" xmlns:xlink="http://www.w3.org/1999/xlink" width="50" height="60" viewBox="0 0 50 60"><defs><path id="a" d="M1246 784c-2.218 0-4.312.895-6 2.534-1.688-1.639-3.782-2.534-6-2.534s-4.312.895-6 2.534c-1.688-1.639-3.782-2.534-6-2.534s-4.312.895-6 2.534c-1.688-1.639-3.782-2.534-6-2.534-1.75 0-3.418.566-4.875 1.605C1206.327 774.044 1216.127 765 1228 765s21.673 9.044 22.875 20.605c-1.457-1.039-3.125-1.605-4.875-1.605zm6.949 4.251c.018-.069.039-.135.042-.207.001-.015.009-.028.009-.044 0-13.45-10.677-24.447-24-24.975V761a1 1 0 1 0-2 0v2.025c-13.323.528-24 11.525-24 24.975 0 .016.008.029.009.045.003.071.023.137.042.207.016.059.025.118.05.172.025.053.064.097.098.145.042.059.081.118.135.167.011.01.016.025.028.035.036.03.08.04.118.064.059.037.115.074.182.098.07.026.141.034.213.043.043.004.081.024.125.024.015 0 .027-.008.042-.008.076-.003.147-.024.22-.044.054-.015.109-.023.158-.047.057-.026.104-.068.156-.105.055-.04.111-.077.157-.127.011-.012.026-.017.037-.03 1.41-1.702 3.268-2.639 5.23-2.639 1.962 0 3.82.937 5.23 2.639.019.023.048.032.069.053.024.024.036.056.063.078.04.033.088.045.13.071.051.031.098.062.152.082a.94.94 0 0 0 .249.054c.037.004.071.023.107.023.016 0 .031-.007.046-.008.051-.002.098-.015.148-.025a.937.937 0 0 0 .2-.059.902.902 0 0 0 .141-.081c.033-.021.07-.032.101-.058.024-.02.035-.048.057-.07.023-.023.054-.035.075-.061 1.412-1.701 3.27-2.638 5.232-2.638 1.86 0 3.62.85 5 2.386V815c0 1.654-1.346 3-3 3s-3-1.346-3-3a1 1 0 1 0-2 0c0 2.757 2.243 5 5 5s5-2.243 5-5v-26.614c1.38-1.536 3.14-2.386 5-2.386 1.962 0 3.82.937 5.23 2.639.019.023.048.032.069.053.024.024.036.056.063.078.04.033.088.044.13.07.051.031.098.062.153.083a.963.963 0 0 0 .249.054c.036.004.07.023.106.023.016 0 .031-.007.046-.008.051-.002.099-.015.149-.026.068-.014.134-.03.199-.058a.947.947 0 0 0 .142-.081c.033-.021.07-.032.101-.057.024-.02.035-.048.056-.07.023-.023.054-.035.076-.061 1.411-1.702 3.269-2.639 5.231-2.639 1.962 0 3.82.937 5.23 2.639.01.012.024.015.035.027.07.077.154.135.245.188.031.018.055.045.088.059a.996.996 0 0 0 .402.087.982.982 0 0 0 .361-.073c.045-.018.082-.047.124-.071.051-.029.106-.048.152-.087.012-.01.017-.024.028-.035.054-.049.092-.107.135-.167.034-.048.073-.093.098-.145.026-.053.036-.112.051-.171z"/></defs><use fill="#07b1e8" xlink:href="#a" transform="translate(-1203 -760)"/></svg>