<svg xmlns="http://www.w3.org/2000/svg" xmlns:xlink="http://www.w3.org/1999/xlink" width="35" height="33" viewBox="0 0 35 33"><defs><path id="ym5qa" d="M743.91 1269.726c-.267.266-.583.4-.947.4-.365 0-.68-.134-.947-.4a1.293 1.293 0 0 1-.399-.947c0-.364.133-.68.4-.946.266-.267.581-.4.946-.4.364 0 .68.133.946.4.266.266.4.582.4.946 0 .365-.133.68-.4.947zm-4.986-2.293h-18.847v-13.462h13.462v3.366c0 .56.197 1.037.59 1.43.392.393.868.589 1.43.589h3.365zm0 13.462h-18.847v-5.384h18.847zm6.89-14.966c-.793-.792-1.743-1.188-2.851-1.188h-1.346v-5.385c0-.56-.14-1.178-.421-1.85-.28-.674-.617-1.207-1.01-1.6l-3.197-3.197c-.393-.392-.926-.729-1.598-1.01-.674-.28-1.29-.42-1.852-.42h-14.135c-.56 0-1.038.196-1.43.589-.393.392-.59.87-.59 1.43v11.443h-1.345c-1.108 0-2.058.396-2.85 1.188-.793.792-1.189 1.743-1.189 2.85v8.75c0 .183.067.34.2.474.133.133.29.2.473.2h4.712v3.365c0 .561.196 1.038.589 1.43.392.393.87.59 1.43.59h20.193c.56 0 1.038-.197 1.43-.59.393-.392.59-.869.59-1.43v-3.365h4.711c.182 0 .34-.067.473-.2.133-.133.2-.29.2-.473v-8.75c0-1.108-.396-2.059-1.188-2.85z"/></defs><g><g transform="translate(-712 -1251)"><use fill="#fff" xlink:href="#ym5qa"/></g></g></svg>