<svg xmlns="http://www.w3.org/2000/svg" xmlns:xlink="http://www.w3.org/1999/xlink" width="35" height="36" viewBox="0 0 35 36"><defs><path id="a" d="M1461.738 2966.448c-8.578 0-15.558-6.98-15.558-15.559 0-8.579 6.98-15.558 15.558-15.558 8.58 0 15.56 6.98 15.56 15.558 0 8.58-6.98 15.56-15.56 15.56zm0-32.82c-9.517 0-17.26 7.744-17.26 17.261 0 9.519 7.743 17.262 17.26 17.262 9.518 0 17.262-7.743 17.262-17.262 0-9.517-7.744-17.26-17.262-17.26z"/><path id="b" d="M1467.059 2940.76h-3.744l-.026.002c-3.78.012-4.274 2.652-4.276 4.959a.288.288 0 0 0-.008.066v1.62h-2.587a.284.284 0 0 0-.284.284v3.994c0 .157.127.284.284.284h2.587v8.765c0 .157.127.284.284.284h3.776a.283.283 0 0 0 .283-.284v-8.765h3.71a.283.283 0 0 0 .284-.284v-3.994a.284.284 0 0 0-.283-.284h-3.994v-2.147h3.994a.284.284 0 0 0 .283-.284v-3.931a.283.283 0 0 0-.283-.284z"/></defs><use xlink:href="#a" transform="translate(-1444 -2933)"/><use xlink:href="#b" transform="translate(-1444 -2933)"/></svg>