<svg xmlns="http://www.w3.org/2000/svg" xmlns:xlink="http://www.w3.org/1999/xlink" width="51" height="38" viewBox="0 0 51 38"><defs><path id="a" d="M1201.174 961.208a2.931 2.931 0 0 1 2.928-2.928 2.931 2.931 0 0 1 2.928 2.928 2.931 2.931 0 0 1-2.928 2.928 2.931 2.931 0 0 1-2.928-2.928zm2.928-29.28a2.931 2.931 0 0 1 2.928 2.928v21.284a5.82 5.82 0 0 0-2.928-.788 5.82 5.82 0 0 0-2.928.788v-21.284a2.931 2.931 0 0 1 2.928-2.928zm8.784 5.856v26.352h-3.715a5.82 5.82 0 0 0 .787-2.928v-23.424zm20.496 23.276v3.076h-4.216zm-17.568 0l4.217 3.076h-4.217zm0-20.2v-3.076h4.217zm17.568 0l-4.216-3.076h4.216zm-17.568 12.952l7.922 5.778a1.462 1.462 0 0 0 1.725 0l7.921-5.778v3.624l-8.784 6.408-8.784-6.408zm16.51-2.852l-7.726 5.635-7.725-5.635 7.725-5.635zm1.058-2.852l-7.92-5.778a1.463 1.463 0 0 0-1.726 0l-7.922 5.778v-3.624l8.784-6.408 8.784 6.408zm5.856 16.028h-2.928v-26.352h2.928zm7.516-26.352a1.464 1.464 0 1 0 0-2.927h-36.796a5.863 5.863 0 0 0-5.856-5.857 5.862 5.862 0 0 0-5.856 5.856v26.352a5.862 5.862 0 0 0 5.856 5.856h42.652a1.464 1.464 0 1 0 0-2.928h-4.587v-2.928h4.587a1.464 1.464 0 1 0 0-2.928h-4.587v-2.928h4.587a1.464 1.464 0 1 0 0-2.928h-4.587v-2.928h4.587a1.464 1.464 0 1 0 0-2.928h-4.587v-2.928h4.587a1.464 1.464 0 1 0 0-2.928h-4.587v-2.928z"/><path id="b" d="M1226.062 950.96a1.464 1.464 0 1 1-2.927 0 1.464 1.464 0 0 1 2.927 0z"/></defs><use fill="#07b1e8" xlink:href="#a" transform="translate(-1198 -929)"/><use fill="#07b1e8" xlink:href="#b" transform="translate(-1198 -929)"/></svg>