<svg xmlns="http://www.w3.org/2000/svg" xmlns:xlink="http://www.w3.org/1999/xlink" width="50" height="50" viewBox="0 0 50 50"><defs><path id="a" d="M468.1 648.29a10.79 10.79 0 0 1-2.078-.894l4.65-4.649c.37.66.669 1.356.893 2.078l1.558 5.023zm-16.78-15.021l5.224-5.224 12.344 12.345c.125.125.246.253.364.384l-5.203 5.203c-.13-.118-.26-.24-.383-.364zm-4.239-4.24l5.223-5.223 2.544 2.544-5.224 5.223zm-14.422-14.422l5.223-5.223 12.727 12.726-5.224 5.224zm-3.21-6.957l1.476-1.497a1.199 1.199 0 0 1 1.707 0l2.528 2.56-3.165 3.167-2.541-2.54a1.202 1.202 0 0 1-.006-1.69zm44.407 36.464a13.243 13.243 0 0 0-3.272-5.42L438.73 606.84a1.2 1.2 0 0 0-1.696 0l-.178.178-2.517-2.55a3.598 3.598 0 0 0-5.121 0l-1.477 1.497a3.607 3.607 0 0 0 .017 5.07l2.531 2.532-.93.921a5.995 5.995 0 0 0-.025 8.503l9.597 9.597a1.2 1.2 0 1 0 1.696-1.696l-9.597-9.597a3.596 3.596 0 0 1-.08-5.004l14.356 14.356 2.622 2.622 1.696 1.696 12.345 12.344a13.241 13.241 0 0 0 5.42 3.272l7.198 2.232a1.2 1.2 0 0 0 1.5-1.5z"/></defs><use fill="#07b1e8" xlink:href="#a" transform="translate(-426 -603)"/></svg>