<svg xmlns="http://www.w3.org/2000/svg" xmlns:xlink="http://www.w3.org/1999/xlink" width="40" height="40" viewBox="0 0 40 40"><defs><path id="a" d="M778.937 571c10.92 0 19.772 8.852 19.772 19.772 0 10.92-8.852 19.772-19.772 19.772-10.92 0-19.772-8.852-19.772-19.772 0-10.92 8.852-19.772 19.772-19.772z"/><path id="b" d="M775.526 599.495l4.783-3.213.2-.238 4.903-10.782 3.968-.566-5.51 14.829-3.92 2.446-7.587-2.446-1.652-1.084 4.357 1.133zm-1.333-8.693l4.883-8.314.776.785-4.117 7.569zm13.317-10.154l1.6 2.953-3.151.448zm-10.95 11.03l5.788-10.652 4.267-1.114-7.062 15.525-4.446 2.984-6.941-1.81.119-2.328 7.42-11.527 2.257-.587-5.221 8.892.467.845 2.844.06zM781.83 580l-.347.279-1.074 1.969-1.412-1.512-3.79.985-.329.248-7.618 11.826-.089.278-.07 3.461 4.715 2.964.129.07 7.907 2.556.468-.06 4.305-2.685.229-.288 5.908-15.884-2.874-5.788z"/></defs><use fill="#fff" xlink:href="#a" transform="translate(-759 -571)"/><use fill="#13599f" xlink:href="#b" transform="translate(-759 -571)"/></svg>