<svg xmlns="http://www.w3.org/2000/svg" xmlns:xlink="http://www.w3.org/1999/xlink" width="65" height="46" viewBox="0 0 65 46"><defs><path id="4jiia" d="M812.025 613.436c0-.558.454-1.013 1.013-1.013h58.73c.56 0 1.013.455 1.013 1.013v32.403c0 .559-.454 1.013-1.012 1.013h-58.731a1.014 1.014 0 0 1-1.013-1.013zm12.151-8.1h4.05v1.012h-4.05zm32.404 0h4.05v1.012h-4.05zm18.227 40.503v-32.403c0-1.32-.847-2.446-2.026-2.864v-1.186a1.013 1.013 0 0 0-2.025 0v1.012h-11.138v-2.025h2.025c.559 0 1.012-.453 1.012-1.013v-2.658c0-.767-.624-1.392-1.392-1.392h-5.316c-.768 0-1.392.625-1.392 1.392v2.658c0 .56.453 1.013 1.012 1.013h2.025v2.025h-30.378v-2.025h2.025c.56 0 1.013-.453 1.013-1.013v-2.658c0-.767-.625-1.392-1.392-1.392h-5.316c-.768 0-1.393.625-1.393 1.392v2.658c0 .56.454 1.013 1.013 1.013h2.025v2.025H814.05v-1.012a1.013 1.013 0 0 0-2.025 0v1.186a3.043 3.043 0 0 0-2.025 2.864v32.403c0 1.32.847 2.446 2.025 2.864.069-.052 1.006.439 2.025.174h56.706c1.097.055 1.967-.177 2.025-.174a3.043 3.043 0 0 0 2.026-2.864z"/><path id="4jiib" d="M833.29 629.638c0-5.025 4.088-9.114 9.113-9.114 5.025 0 9.114 4.089 9.114 9.114s-4.089 9.113-9.114 9.113-9.113-4.088-9.113-9.113zm20.252 0c0-6.142-4.997-11.139-11.139-11.139-6.142 0-11.138 4.997-11.138 11.139 0 6.142 4.997 11.138 11.138 11.138 6.142 0 11.139-4.996 11.139-11.138z"/><path id="4jiic" d="M843.416 635.713a1.013 1.013 0 0 0 0-2.025v-6.075a1.013 1.013 0 0 0 0-2.026h-2.025a1.013 1.013 0 0 0 0 2.026v6.075a1.013 1.013 0 0 0 0 2.025z"/><path id="4jiid" d="M842.403 624.575c.267 0 .528-.108.717-.296.188-.19.296-.45.296-.717 0-.266-.108-.528-.296-.716a1.019 1.019 0 0 0-.717-.296c-.267 0-.528.107-.716.296-.189.188-.296.45-.296.716 0 .267.107.528.296.717.188.188.45.296.716.296z"/><path id="4jiie" d="M858.605 616.474h2.025a1.013 1.013 0 0 0 0-2.025h-2.025a1.013 1.013 0 0 0 0 2.025z"/><path id="4jiif" d="M815.063 644.827h5.063a1.013 1.013 0 0 0 0-2.025h-4.05v-26.328h38.478a1.013 1.013 0 0 0 0-2.025h-39.491c-.56 0-1.013.453-1.013 1.012v28.353c0 .56.454 1.013 1.013 1.013z"/><path id="4jiig" d="M864.68 616.474h4.051v26.328h-44.554a1.013 1.013 0 0 0 0 2.025h45.567c.559 0 1.012-.454 1.012-1.013v-28.353c0-.559-.453-1.012-1.012-1.012h-5.063a1.013 1.013 0 0 0 0 2.025z"/></defs><g><g transform="translate(-810 -603)"><g><use fill="#07b1e8" xlink:href="#4jiia"/></g><g><use fill="#07b1e8" xlink:href="#4jiib"/></g><g><use fill="#07b1e8" xlink:href="#4jiic"/></g><g><use fill="#07b1e8" xlink:href="#4jiid"/></g><g><use fill="#07b1e8" xlink:href="#4jiie"/></g><g><use fill="#07b1e8" xlink:href="#4jiif"/></g><g><use fill="#07b1e8" xlink:href="#4jiig"/></g></g></g></svg>