<svg xmlns="http://www.w3.org/2000/svg" xmlns:xlink="http://www.w3.org/1999/xlink" width="60" height="51" viewBox="0 0 60 51"><defs><path id="onkda" d="M1247.75 635.05v-15c0-.69-.56-1.25-1.25-1.25h-7.5v-7.5c0-.69-.56-1.25-1.25-1.25h-26.25v-3.75h40v28.75zm-2.5 16.25h-40v-30h40zm-42.5-31.25v22.5h-6.25v-30h40v6.25h-2.5v-2.5c0-.69-.56-1.25-1.25-1.25H1229v2.5h2.5v1.25H1204c-.69 0-1.25.56-1.25 1.25zm7.5-16.25c-.69 0-1.25.56-1.25 1.25v5h-13.75c-.69 0-1.25.56-1.25 1.25v32.5c0 .691.56 1.25 1.25 1.25h7.5v7.5c0 .691.56 1.25 1.25 1.25h42.5c.69 0 1.25-.559 1.25-1.25v-15h5c.69 0 1.25-.559 1.25-1.25v-31.25c0-.69-.56-1.25-1.25-1.25z"/><path id="onkdb" d="M1209 648.8h28.75v-2.5h-18.404l.862-3.445-2.424-.607-1.014 4.053h-3.247l2.845-5.691-2.236-1.118-3.404 6.809h-.478v-7.038l6.412-7.48 5.094 4.085 3.625 7.25a1.25 1.25 0 0 0 1.514.625l7.009-2.336 6.346 3.173v4.22h2.5v-23.75c0-.69-.56-1.25-1.25-1.25h-28.75v2.5h27.5v15.48l-5.691-2.846a1.26 1.26 0 0 0-.954-.067l-6.471 2.157-3.265-6.53a1.275 1.275 0 0 0-.338-.417l-6.25-5a1.25 1.25 0 0 0-1.73.162l-5.3 6.185v-11.623h-2.5v23.75c-.001.69.559 1.25 1.249 1.25z"/><path id="onkdc" d="M1232.75 632.55a1.25 1.25 0 1 1 2.5 0 1.25 1.25 0 0 1-2.5 0zm5 0a3.75 3.75 0 1 0-7.5 0 3.75 3.75 0 0 0 7.5 0z"/><path id="onkdd" d="M1246.5 615.05h2.5v-5c0-.69-.56-1.25-1.25-1.25h-5v2.5h3.75z"/><path id="onkde" d="M1199 616.3v3.75h2.5v-2.5h2.5v-2.5h-3.75c-.69 0-1.25.56-1.25 1.25z"/><path id="onkdf" d="M1206.5 617.55v-2.5h2.5v2.5z"/><path id="onkdg" d="M1199 625.05v-2.5h2.5v2.5z"/><path id="onkdh" d="M1224 617.55v-2.5h2.5v2.5z"/></defs><g><g transform="translate(-1194 -603)"><g><g><g><use fill="#07b1e8" xlink:href="#onkda"/></g><g><use fill="#07b1e8" xlink:href="#onkdb"/></g><g><use fill="#07b1e8" xlink:href="#onkdc"/></g><g><use fill="#07b1e8" xlink:href="#onkdd"/></g><g><use fill="#07b1e8" xlink:href="#onkde"/></g><g><use fill="#07b1e8" xlink:href="#onkdf"/></g><g><use fill="#07b1e8" xlink:href="#onkdg"/></g><g><use fill="#07b1e8" xlink:href="#onkdh"/></g></g></g></g></g></svg>