<svg xmlns="http://www.w3.org/2000/svg" xmlns:xlink="http://www.w3.org/1999/xlink" width="60" height="60" viewBox="0 0 60 60"><defs><path id="a" d="M849.579 1443.37l-2.275.24a4.662 4.662 0 0 0-.686-1.27c1.9-2.25 4.99-5.872 6.643-7.622.477-.505 1.096-.576 1.53-.546.684.046 1.386.369 1.913.857-2.619 2.956-6.184 7.215-7.125 8.342zm15.353-9.247c-.833-1.165-2.22-1.947-3.622-2.042-1.144-.078-2.18.309-2.918 1.09-.162.17-.336.359-.52.56-.817-.747-1.885-1.228-2.963-1.301-1.144-.078-2.18.309-2.918 1.09-1.605 1.698-4.446 5.017-6.678 7.659a4.619 4.619 0 0 0-.932-.42c-1.067-.46-15.771-6.74-22.29-6.74-10.529 0-15.366 5.659-15.567 5.9a.872.872 0 0 0 1.34 1.12c.011-.013 1.141-1.337 3.45-2.64 2.127-1.202 5.724-2.634 10.778-2.634 6.262 0 21.484 6.547 21.637 6.613a.869.869 0 0 0 .086.032 2.833 2.833 0 0 1 1.676 1.398 2.83 2.83 0 0 1 .197 2.173 2.874 2.874 0 0 1-1.315 1.63c-.697.396-1.52.444-2.285.235l-9.524-2.623a.873.873 0 0 0-.463 1.683l9.51 2.619c1.875.578 3.974-.13 5.107-1.733a4.624 4.624 0 0 0 .841-2.453l2.554-.27a.874.874 0 0 0 .58-.309c.063-.075 6.326-7.594 8.968-10.391 1.098-1.163 3.059-.338 3.852.77 1.22 1.703-.296 3.563-.79 4.092-2.424 2.602-6.87 7.962-7.67 8.928l-18.096 9.048-17.32-7.292a.873.873 0 0 0-.338-.069h-12.104a.873.873 0 0 0 0 1.746h11.927l17.527 7.38a.871.871 0 0 0 .73-.024l18.62-9.31a.873.873 0 0 0 .283-.226c.05-.061 5.14-6.225 7.718-8.99 1.899-2.037 2.256-4.45.932-6.3z"/><path id="b" d="M855.608 1417.26h-7.506v-9.892a.873.873 0 1 0-1.746 0v10.765c0 .482.391.873.873.873h6.02l-17.192 14.736-17.192-14.736h6.02c.482 0 .872-.39.872-.873v-16.816h20.6v2.036a.873.873 0 1 0 1.745 0v-2.91a.873.873 0 0 0-.873-.872h-22.344a.873.873 0 0 0-.873.873v16.816h-7.507c-.791 0-1.17 1.02-.568 1.536l19.552 16.758a.881.881 0 0 0 1.136 0l19.552-16.758c.602-.517.223-1.536-.569-1.536z"/><path id="c" d="M842.26 1405.413a.873.873 0 0 0-1.234 0l-11.172 11.172c-.538.538-.146 1.49.617 1.49a.87.87 0 0 0 .617-.256l11.172-11.172a.873.873 0 0 0 0-1.234z"/><path id="d" d="M840.712 1416.33a.99.99 0 0 1 0-1.98.99.99 0 0 1 0 1.98zm0-3.725a2.738 2.738 0 0 0-2.735 2.735 2.738 2.738 0 0 0 2.735 2.735 2.738 2.738 0 0 0 2.735-2.735 2.738 2.738 0 0 0-2.735-2.735z"/><path id="e" d="M831.402 1408.881a.99.99 0 0 1 0-1.978.99.99 0 0 1 0 1.978zm0-3.724a2.738 2.738 0 0 0-2.735 2.735 2.738 2.738 0 0 0 2.735 2.735 2.738 2.738 0 0 0 2.735-2.735 2.738 2.738 0 0 0-2.735-2.735z"/></defs><use fill="#07b1e8" xlink:href="#a" transform="translate(-806 -1399)"/><use fill="#07b1e8" xlink:href="#b" transform="translate(-806 -1399)"/><use fill="#07b1e8" xlink:href="#c" transform="translate(-806 -1399)"/><use fill="#07b1e8" xlink:href="#d" transform="translate(-806 -1399)"/><use fill="#07b1e8" xlink:href="#e" transform="translate(-806 -1399)"/></svg>