<svg xmlns="http://www.w3.org/2000/svg" xmlns:xlink="http://www.w3.org/1999/xlink" width="42" height="61" viewBox="0 0 42 61"><defs><path id="q1qta" d="M840.573 452.095h4.24a.813.813 0 1 0 0-1.626h-4.24a.814.814 0 0 0 0 1.626z"/><path id="q1qtb" d="M835.373 452.095h2.44a.813.813 0 0 0 0-1.626h-2.44a.814.814 0 0 0 0 1.626z"/><path id="q1qtc" d="M835.373 455.614h9.412a.814.814 0 0 0 0-1.626h-9.412a.814.814 0 0 0 0 1.626z"/><path id="q1qtd" d="M835.373 459.133h4.928a.814.814 0 0 0 0-1.627h-4.928a.814.814 0 0 0 0 1.627z"/><path id="q1qte" d="M827.289 466.47h-1.139a.814.814 0 0 0 0 1.626h4.24a.814.814 0 0 0 0-1.627z"/><path id="q1qtf" d="M820.972 468.096h2.44a.814.814 0 0 0 0-1.627h-2.44a.814.814 0 0 0 0 1.627z"/><path id="q1qtg" d="M820.972 471.615h9.413a.814.814 0 0 0 0-1.627h-9.413a.814.814 0 0 0 0 1.627z"/><path id="q1qth" d="M820.972 475.128h4.929a.814.814 0 0 0 0-1.626h-4.929a.814.814 0 0 0 0 1.626z"/><path id="q1qti" d="M855.933 490.69h-6.17v-45.004a.813.813 0 0 0-.813-.813H825.39v-4.657h30.537zm-7.797 6.262h-30.51v-50.463h30.51zm-23.531-58.363a.813.813 0 0 0-.813.814v5.46h-6.979a.814.814 0 0 0-.813.813v52.1c0 .449.364.813.813.813h32.137a.814.814 0 0 0 .813-.813v-5.46h6.983a.814.814 0 0 0 .814-.813v-52.1a.814.814 0 0 0-.814-.814z"/><path id="q1qtj" d="M821.785 452.095h9.64v9.64h-9.64zm-.813 11.268h11.267a.814.814 0 0 0 .813-.814v-11.267a.814.814 0 0 0-.813-.813h-11.267a.814.814 0 0 0-.813.813v11.267c0 .45.364.814.813.814z"/><path id="q1qtk" d="M834.332 468.096h9.64v9.64h-9.64zm-1.627-.814v11.267c0 .45.365.814.814.814h11.266a.814.814 0 0 0 .814-.814v-11.267a.814.814 0 0 0-.814-.813h-11.261a.813.813 0 0 0-.819.808z"/><path id="q1qtl" d="M820.972 484.14h23.813a.814.814 0 0 0 0-1.627h-23.813a.814.814 0 0 0 0 1.627z"/><path id="q1qtm" d="M820.972 487.566h23.813a.814.814 0 0 0 0-1.626h-23.813a.814.814 0 0 0 0 1.626z"/><path id="q1qtn" d="M820.972 491.08h12.552a.814.814 0 0 0 0-1.627h-12.552a.814.814 0 0 0 0 1.627z"/></defs><g><g transform="translate(-816 -438)"><g><g><use fill="#07b1e8" xlink:href="#q1qta"/></g><g><use fill="#07b1e8" xlink:href="#q1qtb"/></g><g><use fill="#07b1e8" xlink:href="#q1qtc"/></g><g><use fill="#07b1e8" xlink:href="#q1qtd"/></g><g><use fill="#07b1e8" xlink:href="#q1qte"/></g><g><use fill="#07b1e8" xlink:href="#q1qtf"/></g><g><use fill="#07b1e8" xlink:href="#q1qtg"/></g><g><use fill="#07b1e8" xlink:href="#q1qth"/></g><g><use fill="#07b1e8" xlink:href="#q1qti"/></g><g><use fill="#07b1e8" xlink:href="#q1qtj"/></g><g><use fill="#07b1e8" xlink:href="#q1qtk"/></g><g><use fill="#07b1e8" xlink:href="#q1qtl"/></g><g><use fill="#07b1e8" xlink:href="#q1qtm"/></g><g><use fill="#07b1e8" xlink:href="#q1qtn"/></g></g></g></g></svg>