<svg xmlns="http://www.w3.org/2000/svg" xmlns:xlink="http://www.w3.org/1999/xlink" width="46" height="36" viewBox="0 0 46 36"><defs><path id="a" d="M937.532 556.028c-.355-.355-.532-.887-.532-1.242s.177-.888.532-1.243l2.485-2.484c.71-.71 1.775-.71 2.484 0l.178.177 9.76 10.47a.858.858 0 0 0 1.243 0l23.78-24.667h.178c.71-.71 1.775-.71 2.484 0l2.485 2.485c.71.71.71 1.774 0 2.484l-28.395 29.46c-.355.355-.71.532-1.242.532s-.887-.177-1.242-.532l-13.843-14.908-.355-.532z"/></defs><use fill="#fff" xlink:href="#a" transform="translate(-937 -536)"/></svg>