<?xml version="1.0" encoding="UTF-8"?>
<!DOCTYPE svg PUBLIC "-//W3C//DTD SVG 1.1//EN" "http://www.w3.org/Graphics/SVG/1.1/DTD/svg11.dtd">
<!-- Creator: CorelDRAW 2017 -->
<svg xmlns="http://www.w3.org/2000/svg" xml:space="preserve" width="auto" height="auto" version="1.1" style="shape-rendering:geometricPrecision; text-rendering:geometricPrecision; image-rendering:optimizeQuality; fill-rule:evenodd; clip-rule:evenodd"
viewBox="0 0 11224.59 3985.66"
 xmlns:xlink="http://www.w3.org/1999/xlink">
 <defs>
  <style type="text/css">
   <![CDATA[
    .fil0 {fill:#FEFEFE;fill-rule:nonzero}
   ]]>
  </style>
 </defs>
 <g id="Слой_x0020_1">
  <metadata id="CorelCorpID_0Corel-Layer"/>
  <g id="_1494435923360">
   <path class="fil0" d="M2706.35 3405.43l-633.62 395.25 -1223.46 -395.22 -266.62 -175.78 702.89 183.17 73.18 -12.4 773.18 -518.7 31.92 -37.67 791.1 -1741.08 640.64 -90.47 -889.21 2392.91zm-2515.63 -846.49l1197.17 -1860.03 364.96 -95.06 -843.2 1435.18 75.94 136.18 458.45 10.31 81.48 -47.15 935.14 -1718.89 687.63 -179.13 -1138.47 2505.59 -718.05 481.68 -1120.91 -292.08 19.85 -376.58zm1866.3 -1775.86l-663.97 1220.44 -249.56 -5.61 788.31 -1341.79 125.22 126.96zm1494.28 53.09l-507.75 71.7 249.39 -548.85 258.36 477.15zm-197.55 -836.18l-976.53 254.41 -56.64 44.23 -173.25 318.5 -228.66 -243.32 -610.48 159.05 -53.22 38.56 -1229.23 1909.88 -14.31 44.16 -11.42 557.95 760.02 479.75 21.95 10.53 1275.17 411.96 75.64 -9.39 695.44 -433.78 36.88 -45.18 952.74 -2564 -464.1 -933.31z"/>
   <path class="fil0" d="M5685.9 1961.97c-22.84,45.06 -53.85,82.26 -93.09,111.63 -39.22,29.4 -85.91,51.2 -140.02,65.4 -54.04,14.15 -111.86,21.3 -173.39,21.3 -61.49,0 -119.05,-7.15 -172.57,-21.3 -53.59,-14.2 -100.25,-36 -140.02,-65.4 -39.77,-29.37 -71.08,-66.57 -93.85,-111.63 -22.84,-45.02 -34.19,-98.41 -34.19,-160.14l0 -662.43 198.83 0 0 651.4c0,73.74 21.23,127.82 63.66,162.17 42.4,34.39 101.79,51.59 178.15,51.59 76.4,0 135.76,-17.2 178.22,-51.59 42.39,-34.35 63.59,-88.43 63.59,-162.17l0 -651.4 198.89 0 0 662.43c0,61.73 -11.41,115.12 -34.19,160.14z"/>
   <path class="fil0" d="M6442.34 1425.02c0,-27.56 -5.02,-50.93 -15.1,-70.09 -10.14,-19.2 -24.18,-34.19 -42.2,-45.02 -18.01,-10.8 -39.47,-18.64 -64.44,-23.6 -24.94,-4.88 -51.68,-7.35 -80.3,-7.35 -32.91,0 -65.26,2.96 -97.06,8.83l0 306.95c15.89,1.93 31.53,3.41 46.93,4.43 15.39,0.99 30.48,1.51 45.35,1.51 59.43,0 108.72,-14.83 147.96,-44.33 39.22,-29.5 58.87,-73.27 58.87,-131.32zm206.8 6.7c0,53.88 -11.12,101.13 -33.37,141.72 -22.31,40.66 -52.01,74.42 -89.12,101.37 -37.15,26.94 -80.33,47.25 -129.65,60.96 -49.33,13.75 -101.59,20.58 -156.7,20.58 -16.99,0 -33.17,-0.75 -48.56,-2.23 -15.32,-1.47 -31.56,-3.18 -48.5,-5.12l0 395.12 -198.85 0 0 -993c48.8,-10.73 98.05,-18.08 147.96,-22.02 49.84,-3.91 100.25,-5.88 151.11,-5.88 53.07,0 103.93,5.88 152.75,17.65 48.76,11.72 91.98,30.13 129.65,55.09 37.64,24.91 67.6,57.07 89.91,96.18 22.25,39.22 33.37,85.72 33.37,139.56z"/>
   <path class="fil0" d="M7322.08 1425.02c0,-27.56 -5.57,-50.93 -16.7,-70.09 -11.12,-19.2 -26.26,-34.19 -45.36,-45.02 -19.1,-10.8 -41.31,-18.64 -66.81,-23.6 -25.4,-4.88 -52.44,-7.35 -81.12,-7.35 -30.78,0 -62.05,2.96 -93.88,8.83l0 303.99c15.92,2.01 31.08,3.45 45.35,4.44 14.34,0.98 28.88,1.47 43.75,1.47 29.7,0 57.52,-3.7 83.55,-11.06 25.95,-7.38 48.76,-18.2 68.41,-32.42 19.59,-14.31 34.98,-32.29 46.11,-53.89 11.12,-21.65 16.7,-46.72 16.7,-75.31zm76.4 719.1l-221.14 -336.38c-8.49,-11.72 -16.73,-23.24 -24.68,-34.53 -7.93,-11.22 -17.75,-21.78 -29.43,-31.6 -5.32,0 -10.89,0.3 -16.71,0.75 -5.84,0.53 -11.41,0.73 -16.67,0.73 -11.68,0 -23.37,-0.46 -35.01,-1.48 -11.68,-0.92 -23.89,-1.9 -36.62,-2.88l0 405.39 -198.83 0 0 -990.01c47.72,-9.81 94.64,-17.39 140.81,-22.77 46.14,-5.35 93.56,-8.11 142.38,-8.11 52.99,0 105.2,4.66 156.69,13.98 51.39,9.32 97.3,25.47 137.56,48.47 40.32,23 72.65,54.3 97.06,93.98 24.38,39.67 36.62,89.88 36.62,150.59 0,33.31 -6.1,65.17 -18.28,95.45 -12.24,30.39 -28.95,57.56 -50.15,81.58 -21.23,23.96 -46.16,44.27 -74.79,60.91 -28.61,16.67 -58.86,27.47 -90.63,32.35l0 2.89c8.4,0 17.19,3.22 26.18,9.58 9.02,6.4 17.52,13.72 25.5,22.02 7.97,8.33 15.12,16.9 21.5,25.69 6.3,8.83 11.65,16.21 15.88,22.02l248.18 361.39 -235.45 0z"/>
   <path class="fil0" d="M8501 1643.25c0,-45.45 -5.35,-89.85 -15.95,-133.29 -10.63,-43.44 -27.82,-82.2 -51.68,-116.23 -23.86,-34.09 -55.16,-61.69 -93.85,-82.95 -38.75,-21.2 -85.68,-31.83 -140.8,-31.83 -55.2,0 -101.79,10.63 -140.02,31.83 -38.2,21.26 -69.18,48.86 -93.06,82.95 -23.89,34.03 -41.11,72.79 -51.68,116.23 -10.67,43.45 -15.92,87.85 -15.92,133.29 0,44.43 5.54,88.38 16.67,131.79 11.15,43.45 28.68,82.2 52.5,116.26 23.9,34.06 54.87,61.46 93.06,82.16 38.19,20.77 84.37,31.11 138.45,31.11 54.11,0 100.48,-10.34 139.16,-31.11 38.75,-20.71 70.02,-48.1 93.88,-82.16 23.86,-34.06 41.35,-72.81 52.51,-116.26 11.15,-43.41 16.73,-87.35 16.73,-131.79zm213.13 0c0,72.46 -11.42,140.25 -34.19,203.42 -22.81,63.13 -55.92,118 -99.44,164.5 -43.48,46.56 -97.29,82.99 -161.48,109.46 -64.18,26.42 -137.59,39.68 -220.31,39.68 -82.69,0 -155.91,-13.26 -219.57,-39.68 -63.62,-26.47 -117.43,-62.9 -161.48,-109.46 -44.01,-46.5 -77.15,-101.07 -99.43,-163.75 -22.25,-62.68 -33.4,-130.76 -33.4,-204.17 0,-73.47 11.15,-141.98 33.4,-205.64 22.28,-63.66 54.87,-118.76 97.85,-165.26 42.96,-46.5 96.48,-83.02 160.66,-109.47 64.15,-26.38 138.15,-39.67 221.96,-39.67 83.74,0 158.04,13.29 222.71,39.67 64.71,26.45 118.52,62.97 161.48,109.47 42.96,46.5 75.57,101.59 97.85,165.26 22.21,63.66 33.37,132.18 33.37,205.64z"/>
   <path class="fil0" d="M9830.95 2144.12l0 -831.39 -3.15 0c-2.16,6.83 -4,13.49 -5.57,19.85 -1.61,6.37 -4.01,12.44 -7.15,18.34l-310.23 578.76c-19.1,0 -36.32,-1.71 -51.72,-5.15 -15.39,-3.44 -29.4,-9.55 -42.16,-18.34 -12.73,-8.83 -24.98,-21.1 -36.58,-36.75 -11.68,-15.65 -23.86,-35.74 -36.56,-60.22l-243.42 -459.76c-3.22,-4.89 -5.58,-10.5 -7.16,-16.87 -1.64,-6.36 -3.47,-12.5 -5.57,-18.41l-3.22 0 0 829.95 -194.1 0 0 -1003.24 294.35 0 278.37 534.68 3.21 0c2.14,-9.81 5.28,-19.59 9.58,-29.4 4.2,-9.81 8.99,-19.1 14.28,-27.9l248.18 -477.39 292.74 0 0 1003.24 -194.1 0z"/>
   <path class="fil0" d="M11011.41 1643.25c0,-45.45 -5.31,-89.85 -15.92,-133.29 -10.63,-43.44 -27.82,-82.2 -51.71,-116.23 -23.83,-34.09 -55.13,-61.69 -93.82,-82.95 -38.76,-21.2 -85.68,-31.83 -140.85,-31.83 -55.16,0 -101.79,10.63 -139.98,31.83 -38.19,21.26 -69.18,48.86 -93.06,82.95 -23.89,34.03 -41.11,72.79 -51.72,116.23 -10.63,43.45 -15.88,87.85 -15.88,133.29 0,44.43 5.52,88.38 16.67,131.79 11.15,43.45 28.68,82.2 52.5,116.26 23.9,34.06 54.87,61.46 93.06,82.16 38.17,20.77 84.34,31.11 138.41,31.11 54.15,0 100.48,-10.34 139.2,-31.11 38.76,-20.71 70,-48.1 93.88,-82.16 23.82,-34.06 41.35,-72.81 52.51,-116.26 11.15,-43.41 16.7,-87.35 16.7,-131.79zm213.17 0c0,72.46 -11.42,140.25 -34.19,203.42 -22.81,63.13 -55.95,118 -99.43,164.5 -43.49,46.56 -97.33,82.99 -161.49,109.46 -64.18,26.42 -137.59,39.68 -220.35,39.68 -82.69,0 -155.9,-13.26 -219.52,-39.68 -63.66,-26.47 -117.44,-62.9 -161.49,-109.46 -44,-46.5 -77.18,-101.07 -99.45,-163.75 -22.22,-62.68 -33.37,-130.76 -33.37,-204.17 0,-73.47 11.15,-141.98 33.37,-205.64 22.28,-63.66 54.9,-118.76 97.88,-165.26 42.96,-46.5 96.48,-83.02 160.62,-109.47 64.15,-26.38 138.19,-39.67 221.96,-39.67 83.78,0 158.04,13.29 222.71,39.67 64.71,26.45 118.53,62.97 161.49,109.47 42.98,46.5 75.6,101.59 97.88,165.26 22.21,63.66 33.37,132.18 33.37,205.64z"/>
   <path class="fil0" d="M4960.71 2841.85c21.33,0 39.7,-7.45 55.06,-22.38 15.33,-14.9 22.98,-34.69 22.98,-59.33 0,-24.61 -7.65,-44.4 -22.98,-59.33 -15.36,-14.9 -33.73,-22.38 -55.06,-22.38 -21.65,0 -40.07,7.38 -55.22,22.11 -15.2,14.84 -22.74,34.66 -22.74,59.6 0,24.94 7.54,44.79 22.74,59.56 15.15,14.76 33.57,22.15 55.22,22.15zm7.52 38.82c-18.68,0 -35.44,-3.7 -50.24,-11.09 -14.86,-7.39 -25.92,-16.6 -33.24,-27.73l-2 0 2 31.4 0 99.76 -46.01 0 0 -325.98 44.01 0 0 31.4 2 0c7.32,-11.06 18.38,-20.32 33.24,-27.73 14.8,-7.39 31.56,-11.06 50.24,-11.06 31.66,0 59,11.52 82.03,34.62 22.98,23.1 34.45,51.71 34.45,85.87 0,34.16 -11.48,62.77 -34.45,85.87 -23.03,23.11 -50.37,34.65 -82.03,34.65z"/>
   <path class="fil0" d="M5403.78 2732.9c-0.99,-12.93 -7.45,-25.24 -19.26,-36.92 -11.81,-11.68 -29.4,-17.55 -52.73,-17.55 -16.99,0 -31.77,4.92 -44.23,14.76 -12.51,9.88 -21.13,23.07 -25.77,39.71l141.99 0zm-65.99 147.76c-37.02,0 -67.11,-11.39 -90.31,-34.16 -23.13,-22.74 -34.69,-51.59 -34.69,-86.37 0,-32.92 11.23,-61.21 33.7,-84.93 22.55,-23.69 51.33,-35.57 86.27,-35.57 36.32,0 65.43,10.93 87.29,32.78 21.82,21.86 32.74,51.09 32.74,87.72l-0.49 7.84 -193.53 0c1.31,22.84 9.61,40.82 24.74,54.04 15.19,13.26 32.94,19.82 53.29,19.82 33.01,0 55.35,-12.89 66.97,-38.72l41.02 15.68c-7.98,17.5 -21.2,32.23 -39.48,44.07 -18.38,11.85 -40.85,17.78 -67.53,17.78z"/>
   <polygon class="fil0" points="5749.38,2873.25 5642.83,2759.65 5640.83,2759.65 5640.83,2873.25 5594.83,2873.25 5594.83,2646.99 5640.83,2646.99 5640.83,2748.59 5642.83,2748.59 5742.85,2646.99 5800.84,2646.99 5800.84,2648.84 5692.81,2754.14 5806.38,2871.42 5806.38,2873.25 "/>
   <path class="fil0" d="M5945.41 2876.97c-13.36,0 -25.04,-2 -35.01,-6.04l15.98 -36.46c5.67,2.43 12.01,3.67 19.03,3.67 20.6,0 30.97,-12.31 30.97,-36.91l0 -154.23 217.07 0 0 226.26 -46.03 0 0 -187.44 -125.03 0 0 118.66c0,22.77 -7.02,40.53 -21.03,53.33 -14.02,12.76 -32.62,19.16 -55.95,19.16z"/>
   <path class="fil0" d="M6434.46 2841.85c18.97,0 36.22,-6.53 51.71,-19.59 15.52,-13.1 23.27,-28.58 23.27,-46.43 -12.99,-9.84 -32.49,-14.73 -58.51,-14.73 -22.35,0 -39.19,4.43 -50.51,13.39 -11.35,8.89 -16.99,19.39 -16.99,31.34 0,11.1 5.18,19.92 15.49,26.39 10.31,6.43 22.18,9.65 35.54,9.65zm-7.52 38.82c-26.03,0 -47.78,-6.92 -65.27,-20.77 -17.49,-13.88 -26.29,-32.18 -26.29,-54.96 0,-24.64 10.33,-43.93 31.04,-57.95 20.68,-13.98 46.17,-21 76.5,-21 27,0 49.15,4.63 66.52,13.89l0 -6.53c0,-16.6 -6.18,-29.9 -18.48,-39.9 -12.37,-9.98 -27.5,-14.99 -45.54,-14.99 -13.32,0 -25.4,2.92 -36.26,8.73 -10.84,5.88 -18.25,13.88 -22.22,24.05l-42.03 -16.6c5.65,-13.59 16.8,-26.12 33.54,-37.67 16.63,-11.52 38.65,-17.29 65.99,-17.29 31.34,0 57.36,8.46 78.03,25.37 20.68,16.97 30.97,40.79 30.97,71.6l0 136.64 -44 0 0 -31.4 -1.97 0c-18.38,25.89 -45.19,38.82 -80.53,38.82z"/>
   <polygon class="fil0" points="6980,2873.25 6934.02,2873.25 6934.02,2755.55 6935.99,2711.21 6934.02,2711.21 6857.5,2873.25 6825.48,2873.25 6749.47,2711.21 6747.47,2711.21 6749.47,2755.55 6749.47,2873.25 6703.47,2873.25 6703.47,2646.99 6766.01,2646.99 6840.47,2807.69 6841.98,2807.69 6917.02,2646.99 6980,2646.99 "/>
   <polygon class="fil0" points="7351.08,2873.25 7305.05,2873.25 7305.05,2779.99 7180.02,2779.99 7180.02,2873.25 7134.04,2873.25 7134.04,2646.99 7180.02,2646.99 7180.02,2740.29 7305.05,2740.29 7305.05,2646.99 7351.08,2646.99 "/>
   <path class="fil0" d="M7592.1 2841.85c18.97,0 36.22,-6.53 51.71,-19.59 15.52,-13.1 23.27,-28.58 23.27,-46.43 -12.99,-9.84 -32.49,-14.73 -58.51,-14.73 -22.35,0 -39.15,4.43 -50.47,13.39 -11.39,8.89 -17,19.39 -17,31.34 0,11.1 5.19,19.92 15.46,26.39 10.31,6.43 22.21,9.65 35.54,9.65zm-7.52 38.82c-26.03,0 -47.75,-6.92 -65.27,-20.77 -17.49,-13.88 -26.25,-32.18 -26.25,-54.96 0,-24.64 10.33,-43.93 31,-57.95 20.68,-13.98 46.17,-21 76.53,-21 27.01,0 49.16,4.63 66.49,13.89l0 -6.53c0,-16.6 -6.18,-29.9 -18.48,-39.9 -12.33,-9.98 -27.5,-14.99 -45.51,-14.99 -13.35,0 -25.39,2.92 -36.26,8.73 -10.83,5.88 -18.24,13.88 -22.21,24.05l-42.03 -16.6c5.61,-13.59 16.8,-26.12 33.5,-37.67 16.67,-11.52 38.65,-17.29 66.02,-17.29 31.3,0 57.33,8.46 78.03,25.37 20.67,16.97 30.97,40.79 30.97,71.6l0 136.64 -44.03 0 0 -31.4 -1.97 0c-18.34,25.89 -45.19,38.82 -80.53,38.82z"/>
   <path class="fil0" d="M7928.13 2750.42l76 0 0 -64.61 -77.51 0c-10.3,0 -18.83,3.44 -25.5,10.4 -6.66,6.93 -9.97,14.24 -9.97,21.92 0,8.92 3.71,16.57 11.26,22.84 7.45,6.33 16.05,9.45 25.73,9.45zm-40.5 122.83l-52.5 0 0 -2.3 68.48 -85.87 -0.98 -0.92c-17.03,-3.67 -31.01,-11.92 -42.03,-24.71 -11.03,-12.72 -16.51,-27 -16.51,-42.69 0,-19.69 8.04,-36.26 24.05,-49.65 15.98,-13.36 34.82,-20.08 56.51,-20.08l125.52 0 0 226.23 -46.04 0 0 -86.34 -50.99 0 -65.5 86.34z"/>
   <polygon class="fil0" points="8570.73,2873.25 8464.19,2759.65 8462.18,2759.65 8462.18,2873.25 8416.17,2873.25 8416.17,2646.99 8462.18,2646.99 8462.18,2748.59 8464.19,2748.59 8564.2,2646.99 8622.19,2646.99 8622.19,2648.84 8514.16,2754.14 8627.73,2871.42 8627.73,2873.25 "/>
   <path class="fil0" d="M8809.25 2819.7c15.98,14.77 34.82,22.16 56.51,22.16 21.65,0 40.43,-7.45 56.25,-22.38 15.85,-14.9 23.72,-34.69 23.72,-59.33 0,-24.61 -7.87,-44.41 -23.72,-59.34 -15.82,-14.89 -34.59,-22.41 -56.25,-22.41 -21.69,0 -40.43,7.52 -56.28,22.41 -15.81,14.93 -23.76,34.72 -23.76,59.34 0,24.64 7.84,44.46 23.52,59.55zm-34.03 -145.46c23.72,-23.07 53.85,-34.58 90.53,-34.58 36.66,0 66.84,11.45 90.47,34.39 23.66,22.94 35.54,51.64 35.54,86.11 0,34.48 -11.88,63.2 -35.54,86.1 -23.63,22.94 -53.81,34.4 -90.47,34.4 -36.69,0 -66.81,-11.46 -90.53,-34.4 -23.66,-22.9 -35.48,-51.62 -35.48,-86.1 0,-34.46 11.81,-63.08 35.48,-85.91z"/>
   <polygon class="fil0" points="9408.31,2873.25 9362.3,2873.25 9362.3,2755.55 9364.26,2711.21 9362.3,2711.21 9285.8,2873.25 9253.75,2873.25 9177.78,2711.21 9175.78,2711.21 9177.78,2755.55 9177.78,2873.25 9131.77,2873.25 9131.77,2646.99 9194.28,2646.99 9268.74,2807.69 9270.29,2807.69 9345.3,2646.99 9408.31,2646.99 "/>
   <polygon class="fil0" points="9562.34,2873.25 9562.34,2646.99 9779.38,2646.99 9779.38,2873.25 9733.35,2873.25 9733.35,2685.82 9608.32,2685.82 9608.32,2873.25 "/>
   <path class="fil0" d="M10020.41 2841.85c18.97,0 36.22,-6.53 51.71,-19.59 15.52,-13.1 23.27,-28.58 23.27,-46.43 -12.99,-9.84 -32.49,-14.73 -58.51,-14.73 -22.35,0 -39.19,4.43 -50.51,13.39 -11.35,8.89 -16.99,19.39 -16.99,31.34 0,11.1 5.18,19.92 15.49,26.39 10.31,6.43 22.21,9.65 35.54,9.65zm-7.52 38.82c-26.03,0 -47.78,-6.92 -65.27,-20.77 -17.49,-13.88 -26.25,-32.18 -26.25,-54.96 0,-24.64 10.33,-43.93 31.01,-57.95 20.67,-13.98 46.16,-21 76.49,-21 27,0 49.15,4.63 66.52,13.89l0 -6.53c0,-16.6 -6.18,-29.9 -18.48,-39.9 -12.33,-9.98 -27.5,-14.99 -45.51,-14.99 -13.35,0 -25.39,2.92 -36.26,8.73 -10.86,5.88 -18.24,13.88 -22.21,24.05l-42.07 -16.6c5.65,-13.59 16.84,-26.12 33.54,-37.67 16.67,-11.52 38.65,-17.29 66.02,-17.29 31.3,0 57.33,8.46 78,25.37 20.71,16.97 30.97,40.79 30.97,71.6l0 136.64 -44 0 0 -31.4 -1.97 0c-18.38,25.89 -45.19,38.82 -80.53,38.82z"/>
   <polygon class="fil0" points="10508.45,2873.25 10462.42,2873.25 10462.42,2779.99 10337.43,2779.99 10337.43,2873.25 10291.43,2873.25 10291.43,2646.99 10337.43,2646.99 10337.43,2740.29 10462.42,2740.29 10462.42,2646.99 10508.45,2646.99 "/>
   <polygon class="fil0" points="10881.5,2647.01 10881.5,2873.27 10835.46,2873.27 10835.46,2755.95 10837.49,2711.69 10835.46,2711.69 10710.43,2873.27 10664.46,2873.27 10664.46,2647.01 10710.43,2647.01 10710.43,2764.29 10708.47,2808.66 10710.43,2808.66 10835.46,2647.01 "/>
   <path class="fil0" d="M11102.55 2750.42l75.97 0 0 -64.61 -77.47 0c-10.31,0 -18.84,3.44 -25.5,10.4 -6.67,6.93 -10.01,14.24 -10.01,21.92 0,8.92 3.74,16.57 11.28,22.84 7.45,6.33 16.02,9.45 25.73,9.45zm-40.49 122.83l-52.54 0 0 -2.3 68.52 -85.87 -0.99 -0.92c-17.03,-3.67 -31.01,-11.92 -42.03,-24.71 -11.03,-12.72 -16.51,-27 -16.51,-42.69 0,-19.69 8.01,-36.26 24.05,-49.65 15.98,-13.36 34.79,-20.08 56.51,-20.08l125.52 0 0 226.23 -46.07 0 0 -86.34 -50.96 0 -65.49 86.34z"/>
  </g>
 </g>
</svg>
