<svg xmlns="http://www.w3.org/2000/svg" xmlns:xlink="http://www.w3.org/1999/xlink" width="56" height="63" viewBox="0 0 56 63"><defs><path id="b" d="M956.65 1271.179a3.71 3.71 0 0 1-3.706 3.706h-43.777a3.71 3.71 0 0 1-3.706-3.706v-26.012a3.71 3.71 0 0 1 3.706-3.706h43.777a3.71 3.71 0 0 1 3.706 3.706zm-14.139 28.36h-3.106l-4.183-22.193h3.107zm-9.793-22.193l4.182 22.192h-11.69l4.182-22.192zm-13.119 22.192l4.183-22.192h3.106l-4.182 22.192zM909.167 1239a6.174 6.174 0 0 0-6.167 6.167v26.012c0 3.4 2.766 6.167 6.167 6.167h12.11l-4.182 22.192h-8.512a1.23 1.23 0 0 0 0 2.461h44.945a1.23 1.23 0 1 0 0-2.46h-8.512l-4.183-22.193h12.11a6.175 6.175 0 0 0 6.168-6.167v-26.012c0-3.4-2.767-6.167-6.167-6.167z"/><path id="d" d="M936.167 1268.597v-5.317c0-.107.087-.193.194-.193H938c.107 0 .194.086.194.193v5.317zm-9.616 0v-14.95a1.014 1.014 0 0 1 2.028 0v14.95zm-9.616 0v-7.486a1.014 1.014 0 0 1 2.028 0v7.486zm36.289 0h-2.952v-6.339c0-.655-.495-1.227-1.149-1.27a1.23 1.23 0 0 0-1.312 1.228v6.38h-2.028v-18.447a1.014 1.014 0 0 1 2.028 0v2.181c0 .655.494 1.228 1.148 1.27a1.23 1.23 0 0 0 1.313-1.227v-2.224a3.475 3.475 0 0 0-6.95 0v18.448h-2.666v-5.317a2.654 2.654 0 0 0-2.654-2.654h-1.641a2.654 2.654 0 0 0-2.655 2.654v5.317h-2.666v-14.95a3.475 3.475 0 0 0-6.95 0v14.95h-2.665v-7.486a3.475 3.475 0 0 0-6.95 0v7.486h-2.817v-19.076l.562.539a1.227 1.227 0 0 0 1.79-.092c.425-.5.359-1.257-.117-1.713l-2.032-1.948a2.067 2.067 0 0 0-2.866 0l-2.062 1.976a1.231 1.231 0 0 0 1.702 1.777l.562-.539v19.087a2.45 2.45 0 0 0 2.45 2.45h41.618a1.23 1.23 0 0 0 1.228-1.312c-.042-.655-.614-1.15-1.27-1.15z"/><path id="f" d="M949.042 1256.064c-.68 0-1.23.55-1.23 1.23v.003c0 .68.55 1.23 1.23 1.23a1.232 1.232 0 0 0 0-2.463z"/><linearGradient id="a" x1="959.11" x2="903" y1="1306.85" y2="1245.9" gradientUnits="userSpaceOnUse"><stop offset="0" stop-color="#35a5f9"/><stop offset="1" stop-color="#9545ca"/></linearGradient><linearGradient id="c" x1="954.5" x2="906.55" y1="1273.01" y2="1248.5" gradientUnits="userSpaceOnUse"><stop offset="0" stop-color="#35a5f9"/><stop offset="1" stop-color="#9545ca"/></linearGradient><linearGradient id="e" x1="950.27" x2="947.81" y1="1258.72" y2="1256.33" gradientUnits="userSpaceOnUse"><stop offset="0" stop-color="#35a5f9"/><stop offset="1" stop-color="#9545ca"/></linearGradient></defs><use fill="url(#a)" xlink:href="#b" transform="translate(-903 -1239)"/><use fill="url(#c)" xlink:href="#d" transform="translate(-903 -1239)"/><use fill="url(#e)" xlink:href="#f" transform="translate(-903 -1239)"/></svg>