<svg xmlns="http://www.w3.org/2000/svg" xmlns:xlink="http://www.w3.org/1999/xlink" width="63" height="63" viewBox="0 0 63 63"><defs><path id="b" d="M1299.523 1281.177a.948.948 0 0 1-.946.945h-56.74a.948.948 0 0 1-.946-.945v-33.855c0-.473.379-.946.946-.946h56.74c.473 0 .946.378.946.946zm-33.95 14.185v-11.348h9.268v11.348zm17.4 1.891v3.31h-25.438v-3.31h25.439zm15.604-52.768h-5.485v-2.553h2.08c.568 0 .947-.379.947-.946s-.379-.946-.946-.946h-6.052c-.568 0-.946.378-.946.946 0 .567.378.945.946.945h2.08v2.554h-12.767v-2.553h2.081c.567 0 .946-.379.946-.946s-.379-.946-.946-.946h-5.958c-.567 0-.945.378-.945.946 0 .567.378.945.945.945h2.08v2.554h-12.766v-2.553h2.08c.568 0 .946-.379.946-.946s-.378-.946-.945-.946h-5.958c-.568 0-.946.378-.946.946 0 .567.379.945.946.945h2.08v2.554h-12.86v-2.554h2.08c.567 0 .945-.378.945-.945s-.378-.946-.945-.946h-6.053c-.567 0-.945.378-.945.946 0 .567.378.945.945.945h2.08v2.554h-5.484c-1.513 0-2.837 1.23-2.837 2.837v33.855c0 1.513 1.23 2.837 2.837 2.837h21.845v11.348h-7.187c-.568 0-.946.378-.946.945v5.202c0 .567.378.945.946.945h27.33c.567 0 .945-.378.945-.945v-5.201c0-.568-.378-.946-.945-.946h-7.187v-11.348h21.94c1.512 0 2.836-1.23 2.836-2.837v-33.855c0-1.513-1.23-2.837-2.837-2.837z"/><path id="d" d="M1266.897 1269.45l-2.837-5.2 2.27-4.54 4.918 9.74zm-18.535 0l8.227-14.941 8.228 14.942h-16.455zm18.819-12.293c-.284-.662-1.324-.662-1.702 0l-2.554 5.012-5.579-10.213c-.378-.568-1.324-.568-1.702 0l-9.74 17.967a.859.859 0 0 0 0 .946c.189.284.472.473.85.473h26.101c.284 0 .662-.19.851-.473a.859.859 0 0 0 0-.946z"/><path id="f" d="M1272.855 1274.179h-26.1c-.568 0-.946.378-.946.946 0 .567.378.945.945.945h26.101c.567 0 .946-.378.946-.945a.948.948 0 0 0-.946-.946z"/><path id="h" d="M1277.489 1259.9h10.308c.567 0 .945-.379.945-.946 0-.568-.378-.946-.945-.946h-10.308c-.568 0-.946.378-.946.946 0 .567.473.945.946.945z"/><path id="j" d="M1295.173 1263.776h-17.684c-.568 0-.946.379-.946.946s.379.946.946.946h17.59c.567 0 .945-.379.945-.946s-.378-.946-.851-.946z"/><path id="l" d="M1295.173 1269.45h-17.684c-.568 0-.946.379-.946.946 0 .568.379.946.946.946h17.59c.567 0 .945-.378.945-.946 0-.567-.378-.945-.851-.945z"/><linearGradient id="a" x1="1299.21" x2="1233.26" y1="1295.32" y2="1244.75" gradientUnits="userSpaceOnUse"><stop offset="0" stop-color="#3e9cf4"/><stop offset="1" stop-color="#9545ca"/></linearGradient><linearGradient id="c" x1="1272.86" x2="1243.17" y1="1269.08" y2="1253.03" gradientUnits="userSpaceOnUse"><stop offset="0" stop-color="#3e9cf4"/><stop offset="1" stop-color="#9545ca"/></linearGradient><linearGradient id="e" x1="1272.81" x2="1243.23" y1="1275.85" y2="1274.32" gradientUnits="userSpaceOnUse"><stop offset="0" stop-color="#3e9cf4"/><stop offset="1" stop-color="#9545ca"/></linearGradient><linearGradient id="g" x1="1288.31" x2="1275.42" y1="1259.68" y2="1258.15" gradientUnits="userSpaceOnUse"><stop offset="0" stop-color="#3e9cf4"/><stop offset="1" stop-color="#9545ca"/></linearGradient><linearGradient id="i" x1="1295.33" x2="1274.75" y1="1265.45" y2="1263.92" gradientUnits="userSpaceOnUse"><stop offset="0" stop-color="#3e9cf4"/><stop offset="1" stop-color="#9545ca"/></linearGradient><linearGradient id="k" x1="1295.33" x2="1274.75" y1="1271.12" y2="1269.59" gradientUnits="userSpaceOnUse"><stop offset="0" stop-color="#3e9cf4"/><stop offset="1" stop-color="#9545ca"/></linearGradient></defs><use fill="url(#a)" xlink:href="#b" transform="translate(-1239 -1240)"/><use fill="url(#c)" xlink:href="#d" transform="translate(-1239 -1240)"/><use fill="url(#e)" xlink:href="#f" transform="translate(-1239 -1240)"/><use fill="url(#g)" xlink:href="#h" transform="translate(-1239 -1240)"/><use fill="url(#i)" xlink:href="#j" transform="translate(-1239 -1240)"/><use fill="url(#k)" xlink:href="#l" transform="translate(-1239 -1240)"/></svg>