<svg xmlns="http://www.w3.org/2000/svg" width="62" height="67" viewBox="0 0 85.258 91.816"><defs><linearGradient id="a" x2=".872" y2="1" gradientUnits="objectBoundingBox"><stop offset="0" stop-color="#9446cb"/><stop offset="1" stop-color="#4299f3"/></linearGradient></defs><g data-name="Group 16328" fill="url(#a)"><path data-name="Path 947" d="M72.095 19.012h-1.86V2.194A2.194 2.194 0 0 0 68.041 0H17.218a2.194 2.194 0 0 0-2.194 2.194v16.817h-1.861A13.178 13.178 0 0 0 0 32.174v27.177a13.178 13.178 0 0 0 13.163 13.162h1.861v17.109a2.193 2.193 0 0 0 2.194 2.194h50.823a2.194 2.194 0 0 0 2.194-2.194V72.513h1.855A13.178 13.178 0 0 0 85.253 59.35V32.174a13.178 13.178 0 0 0-13.158-13.162zM19.412 4.388h46.436v14.624H19.412zm46.436 83.041H19.412V60.372h46.436zm15.023-28.078a8.785 8.785 0 0 1-8.776 8.775h-1.86v-7.754h4.745a2.194 2.194 0 0 0 0-4.388H10.929a2.194 2.194 0 1 0 0 4.388h4.1v7.754h-1.866a8.785 8.785 0 0 1-8.773-8.775V32.174a8.785 8.785 0 0 1 8.773-8.774h58.932a8.785 8.785 0 0 1 8.775 8.775v27.176z"/><path data-name="Path 948" d="M68.035 32.14a3 3 0 1 0 3 3 3.006 3.006 0 0 0-3-3z"/><path data-name="Path 949" d="M24.467 67.962h36.326a2.2 2.2 0 1 0 0-4.4H24.467a2.2 2.2 0 1 0 0 4.4z"/><path data-name="Path 950" d="M24.467 76.097h36.326a2.2 2.2 0 1 0 0-4.4H24.467a2.2 2.2 0 1 0 0 4.4z"/></g></svg>