<svg xmlns="http://www.w3.org/2000/svg" xmlns:xlink="http://www.w3.org/1999/xlink" width="67" height="62" viewBox="0 0 67 62"><defs><path id="b" d="M1274.885 996.964l-4.93 4.93a.336.336 0 0 1-.474 0l-.738-.739a.334.334 0 0 1 0-.474c.497-.497.77-1.157.77-1.859s-.274-1.362-.77-1.859l-2.919-2.919a2.612 2.612 0 0 0-1.859-.77c-.702 0-1.362.274-1.858.77a.334.334 0 0 1-.474 0l-.739-.738a.336.336 0 0 1 0-.474l4.93-4.93c.13-.13.344-.13.474 0l.739.739c.13.13.13.343 0 .474a2.611 2.611 0 0 0-.77 1.859c0 .702.273 1.362.77 1.858l2.919 2.92c.496.496 1.156.77 1.858.77.703 0 1.363-.274 1.86-.77a.334.334 0 0 1 .473 0l.739.738c.13.13.13.343 0 .474zm.736-2.686a2.422 2.422 0 0 0-3.422 0 .558.558 0 0 1-.77 0l-2.919-2.92a.542.542 0 0 1 0-.77 2.422 2.422 0 0 0 0-3.42v-.001l-.738-.738a2.422 2.422 0 0 0-3.421 0l-4.93 4.93a2.422 2.422 0 0 0 0 3.42l.738.739a2.403 2.403 0 0 0 1.71.709 2.4 2.4 0 0 0 1.711-.71.558.558 0 0 1 .77 0l2.92 2.92a.541.541 0 0 1 0 .77 2.403 2.403 0 0 0-.709 1.71c0 .647.252 1.255.709 1.712l.738.738a2.411 2.411 0 0 0 1.71.707c.62 0 1.24-.235 1.711-.707l4.93-4.93a2.422 2.422 0 0 0 0-3.42z"/><path id="d" d="M1283.697 987.979h-8.622c-2.122 0-3.875-1.689-3.91-3.765a3.804 3.804 0 0 1 1.099-2.75 3.803 3.803 0 0 1 2.73-1.145c.576 0 1.043-.467 1.043-1.042a3.8 3.8 0 0 1 1.144-2.731 3.803 3.803 0 0 1 2.752-1.099c2.075.035 3.764 1.789 3.764 3.91zm-3.73-14.616a5.87 5.87 0 0 0-4.247 1.697 5.866 5.866 0 0 0-1.69 3.252c-1.23.2-2.36.783-3.252 1.69a5.872 5.872 0 0 0-1.697 4.247c.054 3.206 2.743 5.814 5.994 5.814h8.917a1.79 1.79 0 0 0 1.789-1.788v-8.918c0-3.251-2.608-5.94-5.814-5.994z"/><path id="f" d="M1302.894 990.261l-25.85 25.85a2.262 2.262 0 0 1-3.196 0l-27.321-27.322a2.245 2.245 0 0 1-.662-1.598c0-.604.235-1.171.662-1.598l25.849-25.85a2.263 2.263 0 0 1 3.196 0l27.322 27.322a2.262 2.262 0 0 1 0 3.196zm-52.08 5.763l11.162 11.162-3.025 3.024c-.638.639-1.49.99-2.396.99a3.366 3.366 0 0 1-2.397-.99l-6.368-6.368a3.366 3.366 0 0 1-.99-2.397c0-.907.351-1.758.99-2.397zm12.18 18.23a9.046 9.046 0 0 1-6.44 2.662 9.046 9.046 0 0 1-6.44-2.663l-6.367-6.368c-3.551-3.551-3.551-9.33 0-12.88l3.024-3.024 2.57 2.57-3.024 3.024a5.436 5.436 0 0 0-1.602 3.87c0 1.463.57 2.838 1.602 3.87l6.368 6.368a5.436 5.436 0 0 0 3.87 1.601 5.436 5.436 0 0 0 3.87-1.6l3.024-3.025 2.57 2.57zm41.373-28.663l-27.321-27.321a4.35 4.35 0 0 0-6.144 0l-25.849 25.85a4.316 4.316 0 0 0-1.272 3.071c0 1.16.451 2.251 1.272 3.072l.244.244-3.024 3.024c-4.363 4.364-4.363 11.464 0 15.828l6.368 6.368a11.116 11.116 0 0 0 7.914 3.273c2.992 0 5.803-1.162 7.913-3.273l3.025-3.025 4.881 4.882a4.33 4.33 0 0 0 3.072 1.27 4.331 4.331 0 0 0 3.071-1.27l25.85-25.85a4.316 4.316 0 0 0 1.272-3.071c0-1.16-.451-2.251-1.272-3.072z"/><linearGradient id="a" x1="1258.71" x2="1298.84" y1="964.95" y2="1019.12" gradientUnits="userSpaceOnUse"><stop offset="0" stop-color="#ae4be6"/><stop offset="1" stop-color="#34a5f8"/></linearGradient><linearGradient id="c" x1="1269.08" x2="1305.59" y1="954.46" y2="1003.75" gradientUnits="userSpaceOnUse"><stop offset="0" stop-color="#ae4be6"/><stop offset="1" stop-color="#34a5f8"/></linearGradient><linearGradient id="e" x1="1239" x2="1384.67" y1="886.84" y2="1069.83" gradientUnits="userSpaceOnUse"><stop offset="0" stop-color="#ae4be6"/><stop offset="1" stop-color="#34a5f8"/></linearGradient></defs><use fill="url(#a)" xlink:href="#b" transform="translate(-1239 -957)"/><use fill="url(#c)" xlink:href="#d" transform="translate(-1239 -957)"/><use fill="url(#e)" xlink:href="#f" transform="translate(-1239 -957)"/></svg>