<svg xmlns="http://www.w3.org/2000/svg" xmlns:xlink="http://www.w3.org/1999/xlink" width="44" height="29" viewBox="0 0 44 29"><defs><path id="a" d="M1331.828 1781.526h-37.735v-14.774h2.384v8.767c0 2.06 1.646 3.735 3.669 3.735s3.669-1.676 3.669-3.735v-2.68c.48.077.995.054 1.461-.065.57 1.314 1.86 2.233 3.36 2.233 2.023 0 3.669-1.675 3.669-3.734v-4.52h7.194v2.965c0 2.059 1.646 3.734 3.669 3.734.306 0 .602-.038.885-.11.57 1.313 1.86 2.233 3.36 2.233 2.023 0 3.668-1.676 3.668-3.735v-5.088h.748v14.774zm-35.183-22.432h32.631v4.564h-32.631zm9.868 8.51c-.854 0-1.546.692-1.546 1.546 0 .347-.264.64-.576.64-.313 0-.576-.293-.576-.64a1.547 1.547 0 1 0-3.092 0v6.37c0 .346-.265.64-.577.64-.312 0-.576-.294-.576-.64v-8.768h9.641v4.521c0 .347-.264.64-.576.64-.312 0-.576-.293-.576-.64v-2.123c0-.854-.692-1.547-1.546-1.547zm18.777.566c-.854 0-1.547.693-1.547 1.548 0 .346-.263.64-.575.64-.312 0-.576-.294-.576-.64v-2.966h5.397v5.088c0 .348-.264.64-.577.64-.312 0-.575-.292-.575-.64v-2.122c0-.855-.693-1.548-1.547-1.548zm8.085-4.512h-1.005v-6.111c0-.854-.693-1.547-1.547-1.547h-35.725c-.853 0-1.546.693-1.546 1.547v6.111h-1.006c-.853 0-1.546.693-1.546 1.547v17.868c0 .854.693 1.547 1.546 1.547h40.829c.854 0 1.547-.693 1.547-1.547v-17.868c0-.854-.693-1.547-1.547-1.547z"/></defs><use fill="#07b1e8" xlink:href="#a" transform="translate(-1291 -1756)"/></svg>