<svg xmlns="http://www.w3.org/2000/svg" xmlns:xlink="http://www.w3.org/1999/xlink" width="44" height="44" viewBox="0 0 44 44"><defs><path id="bqw2a" d="M750.557 1663.557h-34.621v-.72a.721.721 0 0 0-1.443 0v.72h-1.443v-.72a.721.721 0 0 0-1.442 0v.72h-1.443v-2.885h40.392zm-28.13-7.212h15.869v2.885h-15.869zm28.852 2.885h-11.54v-3.607a.721.721 0 0 0-.722-.721h-17.311a.721.721 0 0 0-.721.721v3.607h-11.541a.721.721 0 0 0-.721.721v4.328c0 .398.323.721.721.721h41.835a.721.721 0 0 0 .721-.721v-4.328a.721.721 0 0 0-.721-.721z"/><path id="bqw2b" d="M733.246 1631.82h-5.77v-1.442h5.77zm.722-2.884h-7.213a.721.721 0 0 0-.721.72v2.886c0 .398.323.721.72.721h7.214a.721.721 0 0 0 .721-.721v-2.885a.721.721 0 0 0-.721-.721z"/><path id="bqw2c" d="M733.246 1637.591h-5.77v-1.443h5.77zm.722-2.885h-7.213a.721.721 0 0 0-.721.721v2.885c0 .399.323.722.72.722h7.214a.721.721 0 0 0 .721-.722v-2.885a.721.721 0 0 0-.721-.721z"/><path id="bqw2d" d="M750.557 1631.82h-.72a.721.721 0 0 0-.722.722v3.606h-11.54v-1.442h9.376a.721.721 0 0 0 .721-.721v-3.607h2.885zm-23.802 11.541a2.164 2.164 0 0 1-2.031-1.442h11.275a2.164 2.164 0 0 1-2.031 1.442zm5.049 3.607a.721.721 0 0 1-.721.721h-1.443a.721.721 0 0 1-.721-.721v-2.164h2.885zm-2.164-23.803v.722a.721.721 0 0 0 1.443 0v-.722h1.442v.722a.721.721 0 0 0 1.443 0v-.722c1.195 0 2.164.97 2.164 2.164v.721H724.59v-.72c0-1.196.969-2.165 2.164-2.165zm-5.049 4.328h11.54v12.983h-11.54zm19.475 4.328a.721.721 0 0 0 .721-.722v-3.606h5.77v1.443h-3.606a.721.721 0 0 0-.721.72v3.607h-8.656v-1.442zm7.213-5.77h-7.213a.721.721 0 0 0-.721.72v3.607h-5.77v-5.049a3.61 3.61 0 0 0-3.607-3.606h-7.213a3.61 3.61 0 0 0-3.607 3.606v15.868a3.61 3.61 0 0 0 3.607 3.607h.721v2.164c0 1.195.97 2.164 2.164 2.164v3.606a.721.721 0 0 0 1.443 0v-3.606a2.164 2.164 0 0 0 2.163-2.164v-2.164h.722a3.61 3.61 0 0 0 3.606-3.607v-3.606h12.262a.721.721 0 0 0 .721-.721v-3.607h.722a.721.721 0 0 0 .721-.721v-5.77a.721.721 0 0 0-.721-.722z"/><path id="bqw2e" d="M720.263 1630.434v11.485a.721.721 0 0 0 1.443 0v-11.485a.721.721 0 0 0-1.443 0z"/><path id="bqw2f" d="M717.378 1625.33v10.208a.721.721 0 0 0 1.443 0v-10.209a.721.721 0 0 0-1.443 0z"/></defs><g><g transform="translate(-708 -1621)"><g><g><use fill="#07b1e8" xlink:href="#bqw2a"/></g><g><use fill="#07b1e8" xlink:href="#bqw2b"/></g><g><use fill="#07b1e8" xlink:href="#bqw2c"/></g><g><use fill="#07b1e8" xlink:href="#bqw2d"/></g><g><use fill="#07b1e8" xlink:href="#bqw2e"/></g><g><use fill="#07b1e8" xlink:href="#bqw2f"/></g></g></g></g></svg>