<svg xmlns="http://www.w3.org/2000/svg" xmlns:xlink="http://www.w3.org/1999/xlink" width="45" height="38" viewBox="0 0 45 38"><defs><path id="a" d="M459.679 1639.775l-6.73-.674a38.266 38.266 0 0 1-.257-4.36c0-2.654.118-4.857.31-5.917l8.625 3.703zm-31.26 22.457v-22.71c.113-.897.301-2.689.301-4.781 0-1.126-.028-4.649-.356-6.23l7.463-2.523c.429 1.526 2.235 3.035 4.458 3.035 2.214 0 4.019-1.51 4.447-3.035l7.464 2.522c-.328 1.582-.356 5.105-.356 6.23 0 2.095.187 3.882.301 4.777v22.715zm-7.538-22.457l-1.948-7.248 8.625-3.704c.191 1.06.31 3.264.31 5.918 0 1.825-.146 3.416-.257 4.36zm41.42-7.885l-9.426-4.048a.495.495 0 0 0-.028-.011h-.002l-.001-.001h-.001l-8.307-2.808a.425.425 0 0 0-.562.378c-.069 1.13-1.54 2.772-3.7 2.772-2.15 0-3.62-1.642-3.69-2.772a.426.426 0 0 0-.56-.378l-8.308 2.808h-.003a.401.401 0 0 0-.028.012l-9.428 4.048a.426.426 0 0 0-.243.502l2.138 7.953a.425.425 0 0 0 .454.313l6.96-.697v22.697c0 .235.191.426.426.426h24.575c.235 0 .426-.19.426-.426v-22.697l6.96.697c.208.021.4-.111.454-.313l2.138-7.953a.426.426 0 0 0-.243-.502z"/><path id="b" d="M438.044 1634.54a.426.426 0 0 0-.426-.425h-1.278a.426.426 0 0 0 0 .851h1.278c.235 0 .426-.19.426-.425zm2.555 0a.426.426 0 0 0-.425-.425h-1.278a.426.426 0 1 0 0 .851h1.278c.235 0 .425-.19.425-.425zm2.556 0a.426.426 0 0 0-.426-.425h-1.278a.426.426 0 0 0 0 .851h1.278c.235 0 .426-.19.426-.425zm2.555 0a.426.426 0 0 0-.425-.425h-1.278a.426.426 0 0 0 0 .851h1.278c.235 0 .425-.19.425-.425zm-11.919.506a.435.435 0 0 0 .107-.013 2.12 2.12 0 0 1 .528-.067h.637a.426.426 0 0 0 0-.851h-.638c-.25 0-.499.031-.74.093a.426.426 0 0 0 .106.838zm13.92.478a.425.425 0 0 0 .267-.759 2.967 2.967 0 0 0-1.345-.607.426.426 0 1 0-.146.84c.35.06.68.21.959.432a.424.424 0 0 0 .266.094zm-15.703 1.2c.18 0 .346-.115.405-.295.109-.337.304-.644.564-.888a.426.426 0 1 0-.584-.62 2.976 2.976 0 0 0-.79 1.246.426.426 0 0 0 .405.557zm16.658 1.061c.235 0 .426-.19.426-.425v-.277c0-.395-.076-.778-.226-1.139a.426.426 0 0 0-.787.327c.107.257.16.53.16.811v.277c0 .236.192.426.427.426zm-16.356 1.055v-1.277a.426.426 0 0 0-.852 0v1.277a.426.426 0 0 0 .852 0zm16.782 1.075v-1.278a.426.426 0 0 0-.852 0v1.278a.426.426 0 0 0 .852 0zm-16.782 1.481v-1.278a.426.426 0 0 0-.852 0v1.278a.426.426 0 0 0 .852 0zm16.782 1.074v-1.277a.426.426 0 0 0-.852 0v1.277a.426.426 0 0 0 .852 0zm-16.782 1.481v-1.277a.426.426 0 0 0-.852 0v1.277a.426.426 0 0 0 .852 0zm16.782 1.075v-1.278a.426.426 0 0 0-.852 0v1.278a.426.426 0 0 0 .852 0zm-17.183 1.906a.426.426 0 0 0 .422-.485 2.15 2.15 0 0 1-.02-.3v-.918a.426.426 0 0 0-.853 0v.919c0 .14.01.28.03.417.03.213.212.367.42.367zm16.363 1c.142 0 .28-.07.36-.198.267-.421.424-.907.454-1.405a.426.426 0 1 0-.85-.051 2.12 2.12 0 0 1-.323 1 .426.426 0 0 0 .36.654zm-14.893.959a.426.426 0 0 0 .176-.815 2.128 2.128 0 0 1-.822-.658.426.426 0 1 0-.68.511c.3.4.697.718 1.15.924a.424.424 0 0 0 .176.038zm2.949-.201a.426.426 0 0 0-.426-.426h-1.278a.426.426 0 0 0 0 .851h1.278c.235 0 .426-.19.426-.425zm2.555 0a.426.426 0 0 0-.425-.426h-1.278a.426.426 0 0 0 0 .851h1.278c.235 0 .425-.19.425-.425zm2.556 0a.426.426 0 0 0-.426-.426h-1.278a.426.426 0 1 0 0 .851h1.278c.235 0 .426-.19.426-.425zm2.555 0a.426.426 0 0 0-.426-.426h-1.277a.426.426 0 0 0 0 .851h1.277c.236 0 .426-.19.426-.425zm2.135.425h.001a2.97 2.97 0 0 0 1.43-.369.426.426 0 0 0-.413-.745c-.31.171-.662.262-1.019.263h-1.282a.426.426 0 0 0 0 .851h1.283z"/></defs><use fill="#07b1e8" xlink:href="#a" transform="translate(-418 -1625)"/><use fill="#07b1e8" xlink:href="#b" transform="translate(-418 -1625)"/></svg>