<svg xmlns="http://www.w3.org/2000/svg" xmlns:xlink="http://www.w3.org/1999/xlink" width="44" height="27" viewBox="0 0 44 27"><defs><path id="xl0ba" d="M1044.579 1782.769a.047.047 0 0 1-.048.047h-9.142v-1.61h9.142c.027 0 .048.02.048.047zm-10.659 2.321h-19.707a.048.048 0 0 1-.047-.047v-8.385h19.802v8.385a.048.048 0 0 1-.048.047zm-30.318-2.274a.048.048 0 0 1-.047-.047v-1.516c0-.026.021-.048.047-.048h9.143v1.611zm1.516-17.527h37.898c.444 0 .805.36.805.805v1.563h-39.508v-1.563c0-.444.361-.805.805-.805zm8.049-3.76a.047.047 0 0 1 .044-.03h4.082v2.368h-5.068zm17.674-.03h4.082c.02 0 .037.011.045.031l.941 2.337h-5.068zm4.548 18.285v-3.126h3.079a.71.71 0 1 0 0-1.421h-28.802a.71.71 0 1 0 0 1.42h3.079v3.127h-8.432v-10.706h39.508v10.706zm9.853.185v-13.875a2.229 2.229 0 0 0-2.226-2.227h-5.575l-1.155-2.866a1.462 1.462 0 0 0-1.363-.923h-4.793a.71.71 0 0 0-.71.71v3.08h-10.706v-3.08a.71.71 0 0 0-.71-.71h-4.793c-.604 0-1.14.362-1.363.921l-1.156 2.868h-5.574a2.229 2.229 0 0 0-2.226 2.227v13.875a1.47 1.47 0 0 0-.758 1.284v1.516c0 .81.658 1.468 1.468 1.468h9.143v.806c0 .81.659 1.468 1.468 1.468h19.707a1.47 1.47 0 0 0 1.469-1.468v-.806h9.142a1.47 1.47 0 0 0 1.469-1.468v-1.516a1.47 1.47 0 0 0-.758-1.284z"/><path id="xl0bb" d="M1014.213 1771.447h-4.547a.71.71 0 1 0 0 1.421h4.547a.71.71 0 1 0 0-1.421z"/><path id="xl0bc" d="M1036.952 1772.963a.806.806 0 0 1 0-1.61.806.806 0 0 1 0 1.61zm0-3.032a2.229 2.229 0 0 0-2.227 2.226c0 1.228 1 2.227 2.227 2.227a2.229 2.229 0 0 0 2.226-2.227 2.229 2.229 0 0 0-2.226-2.226z"/><path id="xl0bd" d="M1032.404 1770.689a1.47 1.47 0 0 0-1.468 1.468c0 .81.659 1.469 1.468 1.469a1.47 1.47 0 0 0 1.469-1.469 1.47 1.47 0 0 0-1.469-1.468z"/></defs><g><g transform="translate(-1002 -1760)"><g><use fill="#07b1e8" xlink:href="#xl0ba"/></g><g><use fill="#07b1e8" xlink:href="#xl0bb"/></g><g><use fill="#07b1e8" xlink:href="#xl0bc"/></g><g><use fill="#07b1e8" xlink:href="#xl0bd"/></g></g></g></svg>