<svg xmlns="http://www.w3.org/2000/svg" xmlns:xlink="http://www.w3.org/1999/xlink" width="44" height="26" viewBox="0 0 44 26"><defs><path id="a" d="M425.224 1782.225l-1.758 1.815 24.154 1.875.483-1.1c.245-.558.444-1.506.444-2.116v-13.042s-.369-4.454 1.105-4.749l-22.84-.482s-1.254 1.179-1.106 4.788c.115 2.806.043 8.505.007 10.905-.009.611-.229 1.554-.489 2.106z"/><path id="b" d="M419.002 1767.262h5.282v13.046l-2.273 1.819v.607l1.326.277 1.714-1.326v-1.99c-.01.009-.01-12.432-.01-12.432.003 0-.192-1.665.628-2.027h-5.709l1.163-2.071 31.09.744-.898 2.181-1.662-.1c-1.057 1.272-.357 3.075-.357 3.075l4.409.228v10.955h-4.595v1.326h4.595v.608h.066l-1.558 2.266v.939h1.492l2.929-4.034v-1.326h-1.382v-10.654l3.649.188c.833.043 1.64-.275 1.804-.709.162-.435.295-1.463.295-2.297v-2.902c0-.834-.676-1.527-1.51-1.545l-38.315-.89c-.834-.02-1.816.568-2.195 1.312l-.692 1.36c-.379.743-.685 1.726-.685 2.194 0 .467.313.838.7.828l.699-.018z"/></defs><use fill="#fff" fill-opacity="0" stroke="#07b1e8" stroke-miterlimit="50" xlink:href="#a" transform="translate(-417 -1761)"/><use fill="#07b1e8" xlink:href="#b" transform="translate(-417 -1761)"/></svg>