<svg xmlns="http://www.w3.org/2000/svg" xmlns:xlink="http://www.w3.org/1999/xlink" width="44" height="37" viewBox="0 0 44 37"><defs><path id="stlga" d="M1003.095 1914.1a1.621 1.621 0 0 1-1.63-1.608v-1.986h41.053v1.986a1.621 1.621 0 0 1-1.63 1.609zm20.188 7.087h-2.583v-5.62h2.583zm17.605-33.721a1.621 1.621 0 0 1 1.63 1.608v19.965h-41.052v-19.965a1.621 1.621 0 0 1 1.63-1.608zm0-1.466h-37.793a3.088 3.088 0 0 0-3.095 3.074v23.418a3.089 3.089 0 0 0 3.095 3.075h16.139v5.62h-9.39a.733.733 0 1 0 0 1.466h24.295a.733.733 0 0 0 0-1.466h-9.39v-5.62h16.139a3.089 3.089 0 0 0 3.096-3.075v-23.418a3.089 3.089 0 0 0-3.096-3.074z"/><path id="stlgb" d="M1014.661 1892.69a4.307 4.307 0 1 1 0 8.613 4.307 4.307 0 0 1 0-8.614zm-4.562 7.831l-1.658 1.658 1.037 1.037 1.658-1.658a5.735 5.735 0 0 0 2.792 1.156v2.346h1.466v-2.346a5.74 5.74 0 0 0 2.792-1.16l1.659 1.659 1.036-1.037-1.658-1.658a5.74 5.74 0 0 0 1.156-2.789h2.346v-1.466h-2.346a5.739 5.739 0 0 0-1.159-2.793l1.658-1.658-1.036-1.036-1.659 1.658a5.734 5.734 0 0 0-2.789-1.156v-2.346h-1.466v2.346a5.738 5.738 0 0 0-2.792 1.16l-1.658-1.66-1.037 1.037 1.658 1.658a5.74 5.74 0 0 0-1.156 2.79h-2.345v1.466h2.345a5.743 5.743 0 0 0 1.156 2.792z"/><path id="stlgc" d="M1027.856 1900.845a2.016 2.016 0 1 1 0 4.031 2.016 2.016 0 0 1 0-4.031zm-2.92 3.9l-.708.708 1.037 1.036.708-.708c.351.228.74.391 1.15.481v.997h1.466v-.997c.41-.09.8-.253 1.15-.481l.708.708 1.037-1.036-.708-.708c.229-.352.392-.742.482-1.151h.997v-1.467h-.997c-.09-.41-.253-.8-.482-1.15l.708-.709-1.037-1.036-.708.708a3.477 3.477 0 0 0-1.15-.481v-.997h-1.466v.997c-.41.09-.799.253-1.15.48l-.708-.707-1.037 1.036.708.708c-.229.352-.392.742-.481 1.151h-.997v1.467h.997c.09.41.253.8.481 1.15z"/><path id="stlgd" d="M1026.39 1891.864a.733.733 0 1 1 0 1.467.733.733 0 0 1 0-1.467zm-.733 2.798v.868h1.466v-.868c.621-.222 1.11-.71 1.332-1.332h.867v-1.466h-.867a2.2 2.2 0 0 0-1.332-1.33v-.869h-1.466v.868a2.2 2.2 0 0 0-1.331 1.331h-.868v1.466h.868a2.2 2.2 0 0 0 1.331 1.332z"/><path id="stlge" d="M1014.661 1895.53a1.466 1.466 0 1 1 0 2.932 1.466 1.466 0 0 1 0-2.932zm0 4.398a2.932 2.932 0 1 0 0-5.864 2.932 2.932 0 0 0 0 5.864z"/></defs><g><g transform="translate(-1000 -1886)"><g><use fill="#07b1e8" xlink:href="#stlga"/></g><g><use fill="#07b1e8" xlink:href="#stlgb"/></g><g><use fill="#07b1e8" xlink:href="#stlgc"/></g><g><use fill="#07b1e8" xlink:href="#stlgd"/></g><g><use fill="#07b1e8" xlink:href="#stlge"/></g></g></g></svg>