<svg xmlns="http://www.w3.org/2000/svg" xmlns:xlink="http://www.w3.org/1999/xlink" width="45" height="41" viewBox="0 0 45 41"><defs><path id="a" d="M1298.74 1655.106h-4.3c-1.9 0-3.44-1.538-3.44-3.436v-15.463a3.438 3.438 0 0 1 3.44-3.436h36.12c1.9 0 3.44 1.538 3.44 3.436v15.463a3.438 3.438 0 0 1-3.44 3.436h-4.3"/><path id="b" d="M1298.017 1650.867h28.966"/><path id="c" d="M1301.975 1650.721h21.05v10.525c0 .969-.786 1.754-1.754 1.754h-17.542a1.754 1.754 0 0 1-1.754-1.754z"/><path id="d" d="M1322.336 1640.903a1.754 1.754 0 1 1 3.508 0 1.754 1.754 0 0 1-3.508 0z"/><path id="e" d="M1318.411 1624v3.508c0 .97.756 1.754 1.689 1.754h3.428l-4.467-5.262h-15.848c-.932 0-1.688.785-1.688 1.754v6.14"/><path id="f" d="M1307.238 1654.333h10.524"/><path id="g" d="M1332.264 1637.413c-.505.719-1.087 1.298-1.723 1.726.636.428 1.218 1.008 1.724 1.727 1.119 1.59 1.735 3.688 1.735 5.91v16.313c0 .48-.376.868-.84.868h-13.585c-.464 0-.84-.389-.84-.868 0-.48.376-.868.84-.868h12.745v-15.446c0-1.857-.502-3.593-1.413-4.89-.853-1.21-1.962-1.878-3.123-1.878h-26.791c.254.268.488.555.701.859 1.12 1.59 1.736 3.688 1.736 5.91v15.445h7.908c.464 0 .84.389.84.868 0 .48-.376.868-.84.868h-8.748c-.464 0-.84-.389-.84-.868v-7.81h-4.535c-1.712 0-3.303-.92-4.48-2.593-1.119-1.59-1.735-3.689-1.735-5.91 0-2.222.616-4.32 1.736-5.91.505-.72 1.087-1.299 1.723-1.727-.636-.427-1.218-1.007-1.724-1.726-1.119-1.589-1.735-3.688-1.735-5.91 0-2.221.616-4.32 1.735-5.91 1.177-1.673 2.768-2.593 4.48-2.593h30.57c1.712 0 3.302.92 4.48 2.593 1.119 1.59 1.735 3.689 1.735 5.91s-.616 4.321-1.735 5.91zm-30.514 15.19l-.055.082a7.632 7.632 0 0 1-.702.86h.757zm-1.414-10.717c-.853-1.211-1.961-1.879-3.121-1.879s-2.268.668-3.122 1.879c-.91 1.296-1.413 3.032-1.413 4.89 0 1.857.502 3.593 1.413 4.888.854 1.213 1.962 1.88 3.122 1.88s2.268-.667 3.121-1.88c.912-1.294 1.414-3.031 1.414-4.889 0-1.857-.502-3.593-1.414-4.89zm1.414-10.383c0-1.857-.502-3.594-1.414-4.89-.853-1.21-1.961-1.878-3.121-1.878s-2.268.667-3.122 1.879c-.91 1.295-1.413 3.032-1.413 4.89 0 1.857.502 3.593 1.413 4.888.854 1.212 1.962 1.88 3.122 1.88s2.268-.668 3.121-1.88c.912-1.295 1.414-3.032 1.414-4.889zm26.035 6.769c1.16 0 2.268-.668 3.122-1.88.91-1.295 1.413-3.032 1.413-4.89 0-1.857-.502-3.593-1.413-4.888-.853-1.211-1.962-1.88-3.123-1.88h-26.791c.254.268.489.555.701.86 1.12 1.589 1.736 3.688 1.736 5.909 0 2.221-.616 4.321-1.736 5.91-.22.313-.455.6-.7.86h26.791z"/><path id="h" d="M1312.47 1662.188a1.045 1.045 0 0 0-.733-.305 1.04 1.04 0 0 0-.734 1.772 1.04 1.04 0 0 0 1.771-.733c0-.273-.11-.541-.304-.734z"/><path id="i" d="M1299.416 1646.015a1.045 1.045 0 0 0-.734-.303 1.038 1.038 0 1 0 .734.304z"/><path id="j" d="M1299.416 1630.877a1.045 1.045 0 0 0-.734-.304c-.274 0-.54.112-.734.304a1.05 1.05 0 0 0-.305.735c0 .273.112.54.305.734.193.192.46.304.734.304.272 0 .54-.112.734-.304a1.05 1.05 0 0 0 .304-.734c0-.273-.112-.541-.304-.735z"/><path id="k" d="M1318.972 1627.364h-8.149a1.038 1.038 0 1 0 0 2.077h8.15a1.038 1.038 0 1 0 0-2.077z"/><path id="l" d="M1310.201 1627.661a1.045 1.045 0 0 0-.733-.304 1.042 1.042 0 0 0-.734 1.771 1.04 1.04 0 0 0 1.771-.733c0-.275-.11-.54-.304-.734z"/></defs><use fill="#fff" fill-opacity="0" stroke="#07b1e8" stroke-linecap="round" stroke-linejoin="round" stroke-miterlimit="50" stroke-width="2" xlink:href="#a" transform="translate(-1290 -1623)"/><use fill="#fff" fill-opacity="0" stroke="#07b1e8" stroke-linecap="round" stroke-linejoin="round" stroke-miterlimit="50" stroke-width="2" xlink:href="#b" transform="translate(-1290 -1623)"/><use fill="#fff" fill-opacity="0" stroke="#07b1e8" stroke-linecap="round" stroke-linejoin="round" stroke-miterlimit="50" stroke-width="2" xlink:href="#c" transform="translate(-1290 -1623)"/><use fill="#07b1e8" xlink:href="#d" transform="translate(-1290 -1623)"/><use fill="#fff" fill-opacity="0" stroke="#07b1e8" stroke-linecap="round" stroke-linejoin="round" stroke-miterlimit="50" stroke-width="2" xlink:href="#e" transform="translate(-1290 -1623)"/><use fill="#fff" fill-opacity="0" stroke="#07b1e8" stroke-linecap="round" stroke-linejoin="round" stroke-miterlimit="50" stroke-width="2" xlink:href="#f" transform="translate(-1290 -1623)"/><g fill="#07b1e8" transform="translate(-1290 -1623)"><use xlink:href="#g"/><use xlink:href="#h"/><use xlink:href="#i"/><use xlink:href="#j"/><use xlink:href="#k"/><use xlink:href="#l"/></g></svg>