<svg xmlns="http://www.w3.org/2000/svg" xmlns:xlink="http://www.w3.org/1999/xlink" width="43" height="43" viewBox="0 0 43 43"><defs><path id="tu5ua" d="M746.983 1905.8h-1.433v-10.033h1.433zm-32.966 0v-10.033h1.433v10.033zM752 1892.183v-8.6a3.588 3.588 0 0 0-3.583-3.583h-35.834a3.588 3.588 0 0 0-3.583 3.583v1.434a.717.717 0 0 0 1.433 0v-1.434a2.15 2.15 0 0 1 2.15-2.15h35.834a2.15 2.15 0 0 1 2.15 2.15v8.6a2.15 2.15 0 0 1-2.15 2.15h-2.867v-6.378a2.222 2.222 0 0 0-2.222-2.222H734.8a.717.717 0 0 0 0 1.434h8.528c.436 0 .789.353.789.788v6.378h-1.434v-5.016a.717.717 0 0 0-.716-.717h-22.934a.717.717 0 0 0-.716.717v5.016h-1.434v-6.378c0-.435.353-.788.789-.788h9.245a.717.717 0 0 0 0-1.434h-9.245a2.222 2.222 0 0 0-2.222 2.222v6.378h-2.867a2.15 2.15 0 0 1-2.15-2.15v-1.433a.717.717 0 0 0-1.433 0v1.433a3.588 3.588 0 0 0 3.583 3.584v10.033h-.716a2.15 2.15 0 0 0 0 4.3h4.3a.717.717 0 0 0 0-1.433h-4.3a.717.717 0 0 1 0-1.434h4.3c.395 0 .716-.32.716-.716v-10.75h1.434v17.602l-9.086 8.388a.717.717 0 0 0 .486 1.243h41.566a.716.716 0 0 0 .486-1.243l-3.105-2.867a.717.717 0 1 0-.973 1.053l1.759 1.624h-6.373l-5.25-8.268a.717.717 0 0 0-1.21.769l4.762 7.499h-6.064l-1.764-5.246a.718.718 0 1 0-1.361.457l1.613 4.789h-6.606l1.61-4.789a.717.717 0 1 0-1.358-.457l-1.764 5.246h-6.064l4.762-7.5a.717.717 0 1 0-1.21-.768l-5.25 8.268h-6.373l7.97-7.357a.716.716 0 0 0 .23-.527v-23.65h21.5v23.65c0 .2.084.392.23.527l2.33 2.15a.717.717 0 1 0 .972-1.053l-2.099-1.938v-17.602h1.434v10.75c0 .395.32.716.716.716h4.3a.717.717 0 0 1 0 1.434h-4.3a.717.717 0 0 0 0 1.433h4.3a2.15 2.15 0 0 0 0-4.3h-.716v-10.033a3.588 3.588 0 0 0 3.583-3.584z"/><path id="tu5ub" d="M744.117 1884.3a.717.717 0 0 0 0-1.433h-4.3a.717.717 0 0 0 0 1.433z"/><path id="tu5uc" d="M749.133 1887.167a.717.717 0 1 1-1.433 0 .717.717 0 0 1 1.433 0z"/><path id="tu5ud" d="M749.133 1890.033a.717.717 0 1 1-1.433 0 .717.717 0 0 1 1.433 0z"/><path id="tu5ue" d="M713.3 1887.167a.717.717 0 1 1-1.433 0 .717.717 0 0 1 1.433 0z"/><path id="tu5uf" d="M713.3 1890.033a.717.717 0 1 1-1.433 0 .717.717 0 0 1 1.433 0z"/><path id="tu5ug" d="M734.083 1903.52l-7.166-1.194v-4.519l7.166-1.194zm-4.38.724l.954 2.86a.638.638 0 0 1-.088.579.668.668 0 0 1-1.132-.173l-1.169-3.505.717.12zm-7.086-4.177a2.15 2.15 0 0 1 2.15-2.15h.716v4.3h-.716a2.15 2.15 0 0 1-2.15-2.15zm12.183 5.016c.396 0 .717-.32.717-.716v-8.6a.716.716 0 0 0-.835-.707l-8.542 1.423h-1.373a3.584 3.584 0 0 0 0 7.167h1.373l.528.088 1.409 4.228a2.078 2.078 0 1 0 3.942-1.313l-.716-2.143 3.379.562c.039.008.078.011.118.011z"/><path id="tu5uh" d="M739.1 1899.35h-1.433a.717.717 0 0 0 0 1.433h1.433a.717.717 0 0 0 0-1.433z"/><path id="tu5ui" d="M737.667 1897.2c.11 0 .22-.026.32-.075l1.432-.717a.717.717 0 1 0-.64-1.283l-1.434.717a.717.717 0 0 0 .322 1.358z"/><path id="tu5uj" d="M737.987 1903.005a.717.717 0 1 0-.64 1.283l1.433.717a.717.717 0 0 0 .64-1.283z"/></defs><g><g transform="translate(-709 -1880)"><g><use fill="#07b1e8" xlink:href="#tu5ua"/></g><g><use fill="#07b1e8" xlink:href="#tu5ub"/></g><g><use fill="#07b1e8" xlink:href="#tu5uc"/></g><g><use fill="#07b1e8" xlink:href="#tu5ud"/></g><g><use fill="#07b1e8" xlink:href="#tu5ue"/></g><g><use fill="#07b1e8" xlink:href="#tu5uf"/></g><g><use fill="#07b1e8" xlink:href="#tu5ug"/></g><g><use fill="#07b1e8" xlink:href="#tu5uh"/></g><g><use fill="#07b1e8" xlink:href="#tu5ui"/></g><g><use fill="#07b1e8" xlink:href="#tu5uj"/></g></g></g></svg>