<svg xmlns="http://www.w3.org/2000/svg" xmlns:xlink="http://www.w3.org/1999/xlink" width="44" height="38" viewBox="0 0 44 38"><defs><path id="gfh6a" d="M726.913 1786.395v-8.257h22.776l.043 8.257zm19.664 2.002l-7.495.005v-.74h7.492zm-27.27 0l-7.496.005v-.74h1.015a.634.634 0 1 0 0-1.267h-3.817v-5.946a2.315 2.315 0 0 1 2.314-2.31h14.323v8.256h-10.201a.634.634 0 1 0 0 1.267h3.858zm17.71-15.712a3.162 3.162 0 0 1 3.436 4.139h-3.436zm.206-2.538c.067-.024.2-.05.343.033l.597.349a1.675 1.675 0 0 0 1.693 0l.598-.349a.403.403 0 0 1 .364-.025.4.4 0 0 1 .239.275l.176.668a1.678 1.678 0 0 0 1.197 1.197l.67.175a.403.403 0 0 1 .274.24c.03.07.064.21-.025.362l-.349.597a1.676 1.676 0 0 0 0 1.693l.35.597a.402.402 0 0 1 .024.362.402.402 0 0 1-.275.24l-.669.175a1.677 1.677 0 0 0-.253.088h-.408a4.43 4.43 0 0 0-4.752-5.414v-1.102a.41.41 0 0 1 .206-.16zm11.572 1.164l-.463.27a.169.169 0 0 1-.154.011.172.172 0 0 1-.102-.117l-.136-.518a1.444 1.444 0 0 0-1.029-1.028l-.519-.136a.167.167 0 0 1-.115-.1.17.17 0 0 1 .01-.155l.27-.462a1.443 1.443 0 0 0 0-1.455l-.27-.462a.17.17 0 0 1-.01-.154.167.167 0 0 1 .116-.101l.518-.136a1.443 1.443 0 0 0 1.029-1.028l.136-.518a.172.172 0 0 1 .102-.117.17.17 0 0 1 .154.01l.463.271c.28.164.603.226.916.184l-.012 5.555a1.444 1.444 0 0 0-.904.186zm2.158 6.19l-.001-.02.001-.022.03-14.102a.634.634 0 0 0-.632-.635h-.001a.634.634 0 0 0-.634.632l-.002.878-.102.06a.177.177 0 0 1-.177 0l-.463-.27a1.43 1.43 0 0 0-1.279-.088c-.42.174-.727.526-.843.966l-.136.518a.174.174 0 0 1-.124.124l-.518.136c-.44.115-.792.421-.966.841-.175.42-.143.887.087 1.28l.27.462a.174.174 0 0 1 0 .175l-.27.462a1.43 1.43 0 0 0-.087 1.28c.174.42.526.727.966.841l.518.136a.175.175 0 0 1 .124.124l.136.518c.116.44.423.792.843.966a1.436 1.436 0 0 0 1.279-.087l.462-.27a.175.175 0 0 1 .177-.001l.085.05-.01 4.369h-5.149l.008-.017a1.664 1.664 0 0 0-.102-1.489l-.35-.596a.408.408 0 0 1 0-.413l.35-.596c.267-.458.304-1 .102-1.489a1.665 1.665 0 0 0-1.125-.98l-.669-.175a.409.409 0 0 1-.292-.292l-.176-.668a1.661 1.661 0 0 0-.98-1.124 1.664 1.664 0 0 0-1.488.101l-.599.35a.409.409 0 0 1-.413 0l-.597-.35a1.67 1.67 0 0 0-1.189-.194v-2.258a2.354 2.354 0 0 0-2.352-2.351h-3.288a.634.634 0 1 0 0 1.267h3.288c.598 0 1.085.486 1.085 1.084v10.237h-24.427a3.584 3.584 0 0 0-3.58 3.578v6.082c0 .623.506 1.13 1.13 1.13h1.671v.74c0 .697.566 1.263 1.262 1.263h7.5c.696 0 1.262-.566 1.262-1.262v-.74h17.246v.74c0 .696.566 1.262 1.262 1.262h7.5c.696 0 1.262-.566 1.262-1.262v-.74h2.031c.624 0 1.131-.508 1.131-1.134z"/><path id="gfh6b" d="M721.496 1766.723a.653.653 0 1 0-1.306 0 .653.653 0 0 0 1.306 0z"/><path id="gfh6c" d="M728.762 1760.091a.653.653 0 1 0-1.306.001.653.653 0 0 0 1.306 0z"/><path id="gfh6d" d="M712.832 1757.464c0-1 .814-1.814 1.815-1.814h3.286v13.253h-3.286a1.817 1.817 0 0 1-1.815-1.814zm11.192-3.962c.728 0 1.404.338 1.848.88h-3.696a2.397 2.397 0 0 1 1.848-.88zm-8 16.74h3.089v.963h-3.088zm-4.988-9.662h.528v6.509a3.085 3.085 0 0 0 3.083 3.081h.11v1.12c0 .652.531 1.183 1.183 1.183h2.04v3.012a.634.634 0 0 0 1.268 0v-3.015a1.183 1.183 0 0 0 1.132-1.18v-1.133c1.37-.1 2.63-.812 3.42-1.95l.86-1.238a3.303 3.303 0 0 1 2.713-1.419h1.389a.634.634 0 0 0 0-1.267h-1.389a4.57 4.57 0 0 0-3.753 1.963l-.861 1.239a3.303 3.303 0 0 1-2.713 1.418h-.845v-13.253h27.351c.85 0 1.647.331 2.247.932.6.6.928 1.397.926 2.245l-.003 1.746a.633.633 0 0 0 .632.635h.001c.35 0 .633-.283.634-.632l.003-1.747a4.407 4.407 0 0 0-1.296-3.143 4.413 4.413 0 0 0-3.143-1.304h-2.858v-1.167a.634.634 0 1 0-1.267 0v1.168H727.35a3.677 3.677 0 0 0-3.326-2.148 3.675 3.675 0 0 0-3.326 2.148h-6.051a3.085 3.085 0 0 0-3.083 3.081v1.849h-.528a.634.634 0 1 0 0 1.267z"/><path id="gfh6e" d="M747.16 1758.724v.734h-1.345v-1.26h.82c.29 0 .526.236.526.526zm-.526 3.261h-.82v-1.26h1.347v.734c0 .29-.236.526-.527.526zm-3.395 0v-1.26h1.309v1.26zm-16.762-.526v-2.735c0-.29.236-.526.526-.526h5.175v3.787h-5.175a.527.527 0 0 1-.526-.526zm15.495.526h-8.526v-3.787h8.526zm2.576-3.787v1.26h-1.309v-1.26zm-17.544-1.268c-.99 0-1.794.805-1.794 1.794v2.735c0 .989.805 1.793 1.794 1.793h19.63c.99 0 1.794-.804 1.794-1.793v-2.735c0-.99-.804-1.794-1.793-1.794z"/><path id="gfh6f" d="M749.158 1768.348a.653.653 0 1 0-1.307.002.653.653 0 0 0 1.307-.002z"/><path id="gfh6g" d="M739.214 1775.207a.653.653 0 1 0-1.305 0 .653.653 0 0 0 1.305 0z"/></defs><g><g transform="translate(-707 -1752)"><g><use fill="#07b1e8" xlink:href="#gfh6a"/></g><g><use fill="#07b1e8" xlink:href="#gfh6b"/></g><g><use fill="#07b1e8" xlink:href="#gfh6c"/></g><g><use fill="#07b1e8" xlink:href="#gfh6d"/></g><g><use fill="#07b1e8" xlink:href="#gfh6e"/></g><g><use fill="#07b1e8" xlink:href="#gfh6f"/></g><g><use fill="#07b1e8" xlink:href="#gfh6g"/></g></g></g></svg>