<svg xmlns="http://www.w3.org/2000/svg" xmlns:xlink="http://www.w3.org/1999/xlink" width="44" height="38" viewBox="0 0 44 38"><defs><path id="bsjna" d="M1031.464 1646.79c-.102.379-.523 1.382-.81 1.88-.86 1.525-2.394 2.983-3.987 3.776-.624.311-1.55.649-1.61.59-.025-.026.127-.388.337-.81.498-.977.869-2.115 1.046-3.22l.151-.885.666-.092c1.256-.186 2.748-.675 3.675-1.206.557-.32.599-.32.532-.034zm.387-3.111l-.295.253c-1.323 1.163-3.228 1.947-5.167 2.133-1.121.1-1.475.219-1.644.556-.067.126-.168.708-.227 1.281-.186 1.964-.877 3.692-2.04 5.083l-.337.405h-8.834v-20.568h18.544zm7.738-16.007a3.06 3.06 0 0 1 2.293 1.652l.21.421.026 3.094.025 3.102h-8.269v-3.102l1.13-.034c1.29-.025 1.509-.118 1.728-.7.11-.27.11-.362 0-.657-.068-.185-.228-.421-.354-.514l-.236-.177h-27.126l-.236.177c-.126.101-.286.32-.354.497-.11.27-.11.363 0 .658.211.598.422.683 1.728.716l1.13.034v3.102h-8.27l.026-3.102.025-3.094.21-.421c.43-.86 1.307-1.509 2.218-1.644.632-.093 33.456-.093 34.096-.008zm-34.425-2.015c-1.939.287-3.549 1.728-4.03 3.6-.109.43-.134 1.129-.134 4.307v3.793l.244.253c.32.32.532.354 1.998.354h1.214v23.012h-1.13c-1.095 0-1.137.008-1.39.22-.464.387-.498 1.044-.085 1.457.127.135.354.262.506.295.438.085 5.993.06 6.322-.033a1 1 0 0 0 .632-1.416c-.244-.48-.387-.523-1.669-.523h-1.163v-23.012h4.805v16.875l.286.287.295.295 6.221-.034c6.786-.025 6.575-.017 8.118-.54 3.414-1.162 6.094-3.902 7.156-7.324.472-1.51.514-1.99.514-5.96v-3.599h4.805v23.012h-1.163c-1.281 0-1.425.042-1.67.523a1 1 0 0 0 .633 1.416c.329.092 5.884.118 6.322.033.152-.033.38-.16.506-.295.413-.413.379-1.07-.085-1.458-.252-.21-.295-.219-1.39-.219h-1.13v-23.012h1.214c1.467 0 1.677-.034 1.998-.354l.244-.253v-3.793c0-4.114-.017-4.333-.48-5.243-.607-1.206-1.644-2.065-3.06-2.546-.447-.152-1.13-.16-17.744-.168-9.5-.009-17.474.016-17.71.05z"/><path id="bsjnb" d="M1039.396 1629.004c-.776.202-1.037 1.213-.456 1.787.422.421 1.138.379 1.534-.093a1.046 1.046 0 0 0-.514-1.67 3.549 3.549 0 0 0-.354-.075 1.96 1.96 0 0 1-.21.05z"/><path id="bsjnc" d="M1039.42 1632.468c-.336.042-.716.455-.783.851-.135.784.556 1.4 1.323 1.18.717-.193.995-1.087.515-1.66-.245-.287-.624-.421-1.054-.37z"/></defs><g><g transform="translate(-1001 -1625)"><g><use fill="#07b1e8" xlink:href="#bsjna"/></g><g><use fill="#07b1e8" xlink:href="#bsjnb"/></g><g><use fill="#07b1e8" xlink:href="#bsjnc"/></g></g></g></svg>